Titillium Math Sans Pro Zanichelli-Light.ufo
<glyph name="exclam" format="2">
  <advance width="218"/>
  <unicode hex="0021"/>
  <note>
exclam
</note>
  <outline>
    <contour>
      <point x="142" y="98" type="line"/>
      <point x="76" y="98" type="line"/>
      <point x="76" y="0" type="line"/>
      <point x="142" y="0" type="line"/>
    </contour>
    <contour>
      <point x="140" y="700" type="line"/>
      <point x="79" y="700" type="line"/>
      <point x="82" y="223" type="line"/>
      <point x="137" y="223" type="line"/>
    </contour>
  </outline>
</glyph>
<glyph name="quotedbl" format="2">
  <advance width="339"/>
  <unicode hex="0022"/>
  <note>
quotedbl
</note>
  <outline>
    <contour>
      <point x="129" y="730" type="line"/>
      <point x="66" y="730" type="line"/>
      <point x="71" y="513" type="line"/>
      <point x="124" y="513" type="line"/>
    </contour>
    <contour>
      <point x="274" y="730" type="line"/>
      <point x="211" y="730" type="line"/>
      <point x="216" y="513" type="line"/>
      <point x="269" y="513" type="line"/>
    </contour>
  </outline>
</glyph>
<glyph name="numbersign" format="2">
  <advance width="618"/>
  <unicode hex="0023"/>
  <note>
numbersign
</note>
  <outline>
    <contour>
      <point x="448" y="0" type="line"/>
      <point x="448" y="180" type="line"/>
      <point x="563" y="180" type="line"/>
      <point x="563" y="232" type="line"/>
      <point x="448" y="232" type="line"/>
      <point x="448" y="426" type="line"/>
      <point x="563" y="426" type="line"/>
      <point x="563" y="477" type="line"/>
      <point x="448" y="477" type="line"/>
      <point x="448" y="660" type="line"/>
      <point x="393" y="660" type="line"/>
      <point x="393" y="477" type="line"/>
      <point x="226" y="477" type="line"/>
      <point x="226" y="660" type="line"/>
      <point x="170" y="660" type="line"/>
      <point x="170" y="477" type="line"/>
      <point x="56" y="477" type="line"/>
      <point x="56" y="426" type="line"/>
      <point x="170" y="426" type="line"/>
      <point x="170" y="232" type="line"/>
      <point x="56" y="232" type="line"/>
      <point x="56" y="180" type="line"/>
      <point x="170" y="180" type="line"/>
      <point x="170" y="0" type="line"/>
      <point x="226" y="0" type="line"/>
      <point x="226" y="180" type="line"/>
      <point x="393" y="180" type="line"/>
      <point x="393" y="0" type="line"/>
    </contour>
    <contour>
      <point x="394" y="231" type="line"/>
      <point x="224" y="231" type="line"/>
      <point x="224" y="427" type="line"/>
      <point x="394" y="427" type="line"/>
    </contour>
  </outline>
</glyph>
<glyph name="dollar" format="2">
  <advance width="500"/>
  <unicode hex="0024"/>
  <note>
dollar
</note>
  <outline>
    <contour>
      <point x="432" y="591" type="curve"/>
      <point x="437" y="640" type="line"/>
      <point x="437" y="640"/>
      <point x="378" y="648"/>
      <point x="318" y="653" type="curve"/>
      <point x="337" y="795" type="line"/>
      <point x="293" y="795" type="line"/>
      <point x="275" y="656" type="line"/>
      <point x="250" y="656" type="line" smooth="yes"/>
      <point x="128" y="656"/>
      <point x="49" y="611"/>
      <point x="49" y="491" type="curve" smooth="yes"/>
      <point x="49" y="369"/>
      <point x="112" y="340"/>
      <point x="231" y="316" type="curve"/>
      <point x="197" y="57" type="line"/>
      <point x="134" y="61"/>
      <point x="60" y="71"/>
      <point x="60" y="71" type="curve"/>
      <point x="54" y="23" type="line"/>
      <point x="54" y="23"/>
      <point x="124" y="13"/>
      <point x="191" y="7" type="curve"/>
      <point x="175" y="-118" type="line"/>
      <point x="219" y="-118" type="line"/>
      <point x="234" y="5" type="line"/>
      <point x="252" y="5" type="line" smooth="yes"/>
      <point x="377" y="5"/>
      <point x="450" y="58"/>
      <point x="450" y="198" type="curve" smooth="yes"/>
      <point x="450" y="306"/>
      <point x="395" y="338"/>
      <point x="281" y="362" type="curve"/>
      <point x="311" y="603" type="line"/>
      <point x="366" y="599"/>
      <point x="432" y="591"/>
    </contour>
    <contour>
      <point x="106" y="494" type="curve" smooth="yes"/>
      <point x="106" y="573"/>
      <point x="158" y="606"/>
      <point x="253" y="606" type="curve" smooth="yes"/>
      <point x="269" y="606" type="line"/>
      <point x="238" y="371" type="line"/>
      <point x="146" y="389"/>
      <point x="106" y="409"/>
    </contour>
    <contour>
      <point x="251" y="55" type="curve" smooth="yes"/>
      <point x="241" y="55" type="line"/>
      <point x="273" y="308" type="line"/>
      <point x="359" y="290"/>
      <point x="394" y="266"/>
      <point x="394" y="194" type="curve" smooth="yes"/>
      <point x="394" y="96"/>
      <point x="344" y="55"/>
    </contour>
  </outline>
</glyph>
<glyph name="percent" format="2">
  <advance width="654"/>
  <unicode hex="0025"/>
  <note>
percent
</note>
  <outline>
    <contour>
      <point x="158" y="710" type="curve" smooth="yes"/>
      <point x="87" y="710"/>
      <point x="43" y="670"/>
      <point x="43" y="544" type="curve" smooth="yes"/>
      <point x="43" y="417"/>
      <point x="89" y="377"/>
      <point x="159" y="377" type="curve" smooth="yes"/>
      <point x="230" y="377"/>
      <point x="275" y="417"/>
      <point x="275" y="543" type="curve" smooth="yes"/>
      <point x="275" y="669"/>
      <point x="232" y="710"/>
    </contour>
    <contour>
      <point x="524" y="710" type="line"/>
      <point x="93" y="13" type="line"/>
      <point x="128" y="-10" type="line"/>
      <point x="560" y="687" type="line"/>
    </contour>
    <contour>
      <point x="96" y="543" type="curve" smooth="yes"/>
      <point x="96" y="631"/>
      <point x="117" y="663"/>
      <point x="158" y="663" type="curve" smooth="yes"/>
      <point x="202" y="663"/>
      <point x="221" y="629"/>
      <point x="221" y="544" type="curve" smooth="yes"/>
      <point x="221" y="452"/>
      <point x="199" y="424"/>
      <point x="159" y="424" type="curve" smooth="yes"/>
      <point x="120" y="424"/>
      <point x="96" y="452"/>
    </contour>
    <contour>
      <point x="378" y="157" type="curve" smooth="yes"/>
      <point x="378" y="30"/>
      <point x="424" y="-10"/>
      <point x="494" y="-10" type="curve" smooth="yes"/>
      <point x="565" y="-10"/>
      <point x="610" y="30"/>
      <point x="610" y="156" type="curve" smooth="yes"/>
      <point x="610" y="282"/>
      <point x="567" y="323"/>
      <point x="493" y="323" type="curve" smooth="yes"/>
      <point x="422" y="323"/>
      <point x="378" y="283"/>
    </contour>
    <contour>
      <point x="431" y="156" type="curve" smooth="yes"/>
      <point x="431" y="244"/>
      <point x="452" y="276"/>
      <point x="493" y="276" type="curve" smooth="yes"/>
      <point x="537" y="276"/>
      <point x="556" y="242"/>
      <point x="556" y="157" type="curve" smooth="yes"/>
      <point x="556" y="65"/>
      <point x="534" y="37"/>
      <point x="494" y="37" type="curve" smooth="yes"/>
      <point x="455" y="37"/>
      <point x="431" y="65"/>
    </contour>
  </outline>
</glyph>
<glyph name="ampersand" format="2">
  <advance width="677"/>
  <unicode hex="0026"/>
  <note>
ampersand
</note>
  <outline>
    <contour>
      <point x="317" y="710" type="curve" smooth="yes"/>
      <point x="206" y="710"/>
      <point x="148" y="655"/>
      <point x="148" y="547" type="curve" smooth="yes"/>
      <point x="148" y="508"/>
      <point x="158" y="464"/>
      <point x="205" y="411" type="curve"/>
      <point x="97" y="378"/>
      <point x="44" y="330"/>
      <point x="44" y="209" type="curve" smooth="yes"/>
      <point x="44" y="73"/>
      <point x="111" y="-10"/>
      <point x="280" y="-10" type="curve" smooth="yes"/>
      <point x="394" y="-10"/>
      <point x="459" y="28"/>
      <point x="506" y="112" type="curve"/>
      <point x="632" y="-9" type="line"/>
      <point x="670" y="34" type="line"/>
      <point x="536" y="162" type="line"/>
      <point x="555" y="209"/>
      <point x="573" y="304"/>
      <point x="580" y="374" type="curve"/>
      <point x="521" y="375" type="line"/>
      <point x="518" y="322"/>
      <point x="504" y="237"/>
      <point x="492" y="201" type="curve"/>
      <point x="324" y="369" type="line"/>
      <point x="436" y="414"/>
      <point x="483" y="460"/>
      <point x="483" y="556" type="curve" smooth="yes"/>
      <point x="483" y="651"/>
      <point x="429" y="710"/>
    </contour>
    <contour>
      <point x="105" y="213" type="curve" smooth="yes"/>
      <point x="105" y="305"/>
      <point x="143" y="344"/>
      <point x="241" y="372" type="curve"/>
      <point x="464" y="149" type="line"/>
      <point x="429" y="76"/>
      <point x="373" y="45"/>
      <point x="283" y="45" type="curve" smooth="yes"/>
      <point x="163" y="45"/>
      <point x="105" y="103"/>
    </contour>
    <contour>
      <point x="207" y="550" type="curve" smooth="yes"/>
      <point x="207" y="625"/>
      <point x="245" y="657"/>
      <point x="317" y="657" type="curve" smooth="yes"/>
      <point x="391" y="657"/>
      <point x="423" y="622"/>
      <point x="423" y="553" type="curve" smooth="yes"/>
      <point x="423" y="476"/>
      <point x="385" y="442"/>
      <point x="286" y="404" type="curve"/>
      <point x="254" y="436" type="line" smooth="yes"/>
      <point x="217" y="473"/>
      <point x="207" y="514"/>
    </contour>
  </outline>
</glyph>
<glyph name="quotesingle" format="2">
  <advance width="195"/>
  <unicode hex="0027"/>
  <note>
quotesingle
</note>
  <outline>
    <contour>
      <point x="129" y="730" type="line"/>
      <point x="66" y="730" type="line"/>
      <point x="71" y="513" type="line"/>
      <point x="124" y="513" type="line"/>
    </contour>
  </outline>
</glyph>
<glyph name="parenleft" format="2">
  <advance width="252"/>
  <unicode hex="0028"/>
  <note>
parenleft
</note>
  <outline>
    <contour>
      <point x="212" y="750" type="curve"/>
      <point x="155" y="750" type="line"/>
      <point x="155" y="750"/>
      <point x="53" y="511"/>
      <point x="53" y="301" type="curve" smooth="yes"/>
      <point x="53" y="91"/>
      <point x="155" y="-125"/>
      <point x="155" y="-125" type="curve"/>
      <point x="212" y="-125" type="line"/>
      <point x="212" y="-125"/>
      <point x="117" y="112"/>
      <point x="117" y="301" type="curve" smooth="yes"/>
      <point x="117" y="492"/>
      <point x="212" y="750"/>
    </contour>
  </outline>
</glyph>
<glyph name="parenright" format="2">
  <advance width="251"/>
  <unicode hex="0029"/>
  <note>
parenright
</note>
  <outline>
    <contour>
      <point x="96" y="750" type="curve"/>
      <point x="39" y="750" type="line"/>
      <point x="39" y="750"/>
      <point x="134" y="492"/>
      <point x="134" y="301" type="curve" smooth="yes"/>
      <point x="134" y="112"/>
      <point x="39" y="-125"/>
      <point x="39" y="-125" type="curve"/>
      <point x="96" y="-125" type="line"/>
      <point x="96" y="-125"/>
      <point x="198" y="91"/>
      <point x="198" y="301" type="curve" smooth="yes"/>
      <point x="198" y="511"/>
      <point x="96" y="750"/>
    </contour>
  </outline>
</glyph>
<glyph name="asterisk" format="2">
  <advance width="433"/>
  <unicode hex="002A"/>
  <note>
asterisk
</note>
  <outline>
    <contour>
      <point x="289" y="398" type="line"/>
      <point x="248" y="524" type="line"/>
      <point x="382" y="524" type="line"/>
      <point x="382" y="568" type="line"/>
      <point x="250" y="568" type="line"/>
      <point x="291" y="696" type="line"/>
      <point x="248" y="710" type="line"/>
      <point x="207" y="583" type="line"/>
      <point x="99" y="662" type="line"/>
      <point x="73" y="626" type="line"/>
      <point x="180" y="548" type="line"/>
      <point x="71" y="468" type="line"/>
      <point x="97" y="433" type="line"/>
      <point x="206" y="512" type="line"/>
      <point x="247" y="385" type="line"/>
    </contour>
  </outline>
</glyph>
<glyph name="plus" format="2">
  <advance width="560"/>
  <unicode hex="002B"/>
  <note>
plus
</note>
  <outline>
    <contour>
      <point x="252" y="315" type="line"/>
      <point x="57" y="315" type="line"/>
      <point x="57" y="260" type="line"/>
      <point x="252" y="260" type="line"/>
      <point x="252" y="60" type="line"/>
      <point x="308" y="60" type="line"/>
      <point x="308" y="260" type="line"/>
      <point x="503" y="260" type="line"/>
      <point x="503" y="315" type="line"/>
      <point x="308" y="315" type="line"/>
      <point x="308" y="514" type="line"/>
      <point x="252" y="514" type="line"/>
    </contour>
  </outline>
</glyph>
<glyph name="comma" format="2">
  <advance width="207"/>
  <unicode hex="002C"/>
  <note>
comma
</note>
  <outline>
    <contour>
      <point x="147" y="101" type="line"/>
      <point x="80" y="101" type="line"/>
      <point x="36" y="-123" type="line"/>
      <point x="86" y="-123" type="line"/>
    </contour>
  </outline>
</glyph>
<glyph name="hyphen" format="2">
  <advance width="414"/>
  <unicode hex="002D"/>
  <note>
hyphen
</note>
  <outline>
    <contour>
      <point x="360" y="315" type="line"/>
      <point x="54" y="315" type="line"/>
      <point x="54" y="259" type="line"/>
      <point x="360" y="259" type="line"/>
    </contour>
  </outline>
</glyph>
<glyph name="period" format="2">
  <advance width="204"/>
  <unicode hex="002E"/>
  <note>
period
</note>
  <outline>
    <contour>
      <point x="135" y="101" type="line"/>
      <point x="69" y="101" type="line"/>
      <point x="69" y="0" type="line"/>
      <point x="135" y="0" type="line"/>
    </contour>
  </outline>
</glyph>
<glyph name="slash" format="2">
  <advance width="378"/>
  <unicode hex="002F"/>
  <note>
slash
</note>
  <outline>
    <contour>
      <point x="359" y="689" type="line"/>
      <point x="305" y="710" type="line"/>
      <point x="18" y="10" type="line"/>
      <point x="72" y="-10" type="line"/>
    </contour>
  </outline>
</glyph>
<glyph name="zero" format="2">
  <advance width="598"/>
  <unicode hex="0030"/>
  <note>
zero
</note>
  <outline>
    <contour>
      <point x="299" y="671" type="curve" smooth="yes"/>
      <point x="150" y="671"/>
      <point x="63" y="592"/>
      <point x="63" y="322" type="curve" smooth="yes"/>
      <point x="63" y="59"/>
      <point x="152" y="-11"/>
      <point x="299" y="-11" type="curve" smooth="yes"/>
      <point x="447" y="-11"/>
      <point x="536" y="60"/>
      <point x="536" y="323" type="curve" smooth="yes"/>
      <point x="536" y="593"/>
      <point x="450" y="671"/>
    </contour>
    <contour>
      <point x="126" y="322" type="curve" smooth="yes"/>
      <point x="126" y="553"/>
      <point x="184" y="615"/>
      <point x="299" y="615" type="curve" smooth="yes"/>
      <point x="416" y="615"/>
      <point x="473" y="552"/>
      <point x="473" y="322" type="curve" smooth="yes"/>
      <point x="473" y="96"/>
      <point x="409" y="44"/>
      <point x="299" y="44" type="curve" smooth="yes"/>
      <point x="190" y="44"/>
      <point x="126" y="95"/>
    </contour>
  </outline>
</glyph>
<glyph name="one" format="2">
  <advance width="377"/>
  <unicode hex="0031"/>
  <note>
one
</note>
  <outline>
    <contour>
      <point x="287" y="660" type="line"/>
      <point x="229" y="660" type="line"/>
      <point x="21" y="522" type="line"/>
      <point x="48" y="474" type="line"/>
      <point x="226" y="592" type="line"/>
      <point x="226" y="0" type="line"/>
      <point x="287" y="0" type="line"/>
    </contour>
  </outline>
</glyph>
<glyph name="two" format="2">
  <advance width="520"/>
  <unicode hex="0032"/>
  <note>
two
</note>
  <outline>
    <contour>
      <point x="49" y="52" type="line"/>
      <point x="49" y="0" type="line"/>
      <point x="470" y="0" type="line"/>
      <point x="470" y="53" type="line"/>
      <point x="124" y="53" type="line"/>
      <point x="315" y="252" type="line" smooth="yes"/>
      <point x="402" y="341"/>
      <point x="451" y="398"/>
      <point x="451" y="496" type="curve" smooth="yes"/>
      <point x="451" y="620"/>
      <point x="380" y="670"/>
      <point x="244" y="670" type="curve" smooth="yes"/>
      <point x="149" y="670"/>
      <point x="55" y="643"/>
      <point x="55" y="643" type="curve"/>
      <point x="60" y="591" type="line"/>
      <point x="60" y="591"/>
      <point x="161" y="615"/>
      <point x="235" y="615" type="curve" smooth="yes"/>
      <point x="335" y="615"/>
      <point x="388" y="584"/>
      <point x="388" y="491" type="curve" smooth="yes"/>
      <point x="388" y="409"/>
      <point x="336" y="356"/>
      <point x="256" y="270" type="curve" smooth="yes"/>
    </contour>
  </outline>
</glyph>
<glyph name="three" format="2">
  <advance width="537"/>
  <unicode hex="0033"/>
  <note>
three
</note>
  <outline>
    <contour>
      <point x="59" y="645" type="curve"/>
      <point x="66" y="594" type="line"/>
      <point x="66" y="594"/>
      <point x="158" y="615"/>
      <point x="252" y="615" type="curve" smooth="yes"/>
      <point x="358" y="615"/>
      <point x="397" y="578"/>
      <point x="397" y="501" type="curve" smooth="yes"/>
      <point x="397" y="411"/>
      <point x="319" y="372"/>
      <point x="267" y="372" type="curve" smooth="yes"/>
      <point x="134" y="372" type="line"/>
      <point x="134" y="319" type="line"/>
      <point x="268" y="319" type="line" smooth="yes"/>
      <point x="347" y="317"/>
      <point x="414" y="285"/>
      <point x="414" y="183" type="curve" smooth="yes"/>
      <point x="414" y="91"/>
      <point x="366" y="45"/>
      <point x="260" y="44" type="curve" smooth="yes"/>
      <point x="162" y="44"/>
      <point x="55" y="66"/>
      <point x="55" y="66" type="curve"/>
      <point x="48" y="15" type="line"/>
      <point x="48" y="15"/>
      <point x="160" y="-11"/>
      <point x="265" y="-11" type="curve" smooth="yes"/>
      <point x="411" y="-11"/>
      <point x="477" y="54"/>
      <point x="477" y="186" type="curve" smooth="yes"/>
      <point x="477" y="298"/>
      <point x="426" y="328"/>
      <point x="356" y="351" type="curve"/>
      <point x="368" y="358"/>
      <point x="460" y="385"/>
      <point x="460" y="503" type="curve" smooth="yes"/>
      <point x="460" y="612"/>
      <point x="405" y="671"/>
      <point x="254" y="671" type="curve" smooth="yes"/>
      <point x="154" y="671"/>
      <point x="59" y="645"/>
    </contour>
  </outline>
</glyph>
<glyph name="four" format="2">
  <advance width="545"/>
  <unicode hex="0034"/>
  <note>
four
</note>
  <outline>
    <contour>
      <point x="34" y="134" type="line"/>
      <point x="364" y="134" type="line"/>
      <point x="364" y="0" type="line"/>
      <point x="425" y="0" type="line"/>
      <point x="425" y="134" type="line"/>
      <point x="514" y="134" type="line"/>
      <point x="514" y="188" type="line"/>
      <point x="425" y="188" type="line"/>
      <point x="425" y="400" type="line"/>
      <point x="364" y="400" type="line"/>
      <point x="364" y="188" type="line"/>
      <point x="98" y="188" type="line"/>
      <point x="293" y="660" type="line"/>
      <point x="228" y="660" type="line"/>
      <point x="34" y="182" type="line"/>
    </contour>
  </outline>
</glyph>
<glyph name="five" format="2">
  <advance width="550"/>
  <unicode hex="0035"/>
  <note>
five
</note>
  <outline>
    <contour>
      <point x="468" y="604" type="line"/>
      <point x="468" y="660" type="line"/>
      <point x="88" y="660" type="line"/>
      <point x="70" y="321" type="line"/>
      <point x="115" y="313" type="line"/>
      <point x="115" y="313"/>
      <point x="191" y="359"/>
      <point x="281" y="359" type="curve" smooth="yes"/>
      <point x="365" y="359"/>
      <point x="433" y="325"/>
      <point x="433" y="215" type="curve" smooth="yes"/>
      <point x="433" y="103"/>
      <point x="369" y="44"/>
      <point x="271" y="44" type="curve" smooth="yes"/>
      <point x="181" y="44"/>
      <point x="68" y="67"/>
      <point x="68" y="67" type="curve"/>
      <point x="61" y="17" type="line"/>
      <point x="61" y="17"/>
      <point x="175" y="-11"/>
      <point x="276" y="-11" type="curve" smooth="yes"/>
      <point x="412" y="-11"/>
      <point x="496" y="65"/>
      <point x="496" y="218" type="curve" smooth="yes"/>
      <point x="496" y="362"/>
      <point x="409" y="414"/>
      <point x="287" y="414" type="curve" smooth="yes"/>
      <point x="198" y="414"/>
      <point x="122" y="370"/>
      <point x="122" y="370" type="curve"/>
      <point x="140" y="604" type="line"/>
    </contour>
  </outline>
</glyph>
<glyph name="six" format="2">
  <advance width="573"/>
  <unicode hex="0036"/>
  <note>
six
</note>
  <outline>
    <contour>
      <point x="485" y="604" type="curve"/>
      <point x="491" y="655" type="line"/>
      <point x="491" y="655"/>
      <point x="391" y="670"/>
      <point x="314" y="670" type="curve" smooth="yes"/>
      <point x="153" y="670"/>
      <point x="61" y="570"/>
      <point x="61" y="335" type="curve" smooth="yes"/>
      <point x="61" y="115"/>
      <point x="130" y="-11"/>
      <point x="301" y="-11" type="curve" smooth="yes"/>
      <point x="438" y="-11"/>
      <point x="521" y="71"/>
      <point x="521" y="208" type="curve" smooth="yes"/>
      <point x="521" y="345"/>
      <point x="444" y="410"/>
      <point x="304" y="410" type="curve" smooth="yes"/>
      <point x="217" y="410"/>
      <point x="125" y="367"/>
      <point x="125" y="368" type="curve" smooth="yes"/>
      <point x="125" y="528"/>
      <point x="186" y="615"/>
      <point x="314" y="615" type="curve" smooth="yes"/>
      <point x="391" y="615"/>
      <point x="485" y="604"/>
    </contour>
    <contour>
      <point x="124" y="313" type="curve"/>
      <point x="124" y="313"/>
      <point x="210" y="355"/>
      <point x="298" y="355" type="curve" smooth="yes"/>
      <point x="397" y="355"/>
      <point x="457" y="309"/>
      <point x="457" y="208" type="curve" smooth="yes"/>
      <point x="457" y="104"/>
      <point x="397" y="44"/>
      <point x="302" y="44" type="curve" smooth="yes"/>
      <point x="169" y="44"/>
      <point x="126" y="160"/>
    </contour>
  </outline>
</glyph>
<glyph name="seven" format="2">
  <advance width="475"/>
  <unicode hex="0037"/>
  <note>
seven
</note>
  <outline>
    <contour>
      <point x="436" y="660" type="line"/>
      <point x="30" y="660" type="line"/>
      <point x="30" y="604" type="line"/>
      <point x="375" y="604" type="line"/>
      <point x="375" y="578" type="line"/>
      <point x="122" y="14" type="line"/>
      <point x="177" y="-11" type="line"/>
      <point x="436" y="574" type="line"/>
    </contour>
  </outline>
</glyph>
<glyph name="eight" format="2">
  <advance width="607"/>
  <unicode hex="0038"/>
  <note>
eight
</note>
  <outline>
    <contour>
      <point x="127" y="178" type="curve" smooth="yes"/>
      <point x="127" y="257"/>
      <point x="172" y="297"/>
      <point x="248" y="317" type="curve"/>
      <point x="359" y="317" type="line"/>
      <point x="435" y="297"/>
      <point x="480" y="257"/>
      <point x="480" y="178" type="curve" smooth="yes"/>
      <point x="480" y="81"/>
      <point x="409" y="45"/>
      <point x="304" y="45" type="curve" smooth="yes"/>
      <point x="198" y="45"/>
      <point x="127" y="81"/>
    </contour>
    <contour>
      <point x="62" y="176" type="curve" smooth="yes"/>
      <point x="62" y="45"/>
      <point x="153" y="-11"/>
      <point x="304" y="-11" type="curve" smooth="yes"/>
      <point x="454" y="-11"/>
      <point x="545" y="45"/>
      <point x="545" y="176" type="curve" smooth="yes"/>
      <point x="545" y="273"/>
      <point x="495" y="311"/>
      <point x="423" y="346" type="curve"/>
      <point x="495" y="377"/>
      <point x="534" y="417"/>
      <point x="534" y="501" type="curve" smooth="yes"/>
      <point x="534" y="616"/>
      <point x="445" y="671"/>
      <point x="304" y="671" type="curve" smooth="yes"/>
      <point x="162" y="671"/>
      <point x="73" y="616"/>
      <point x="73" y="501" type="curve" smooth="yes"/>
      <point x="73" y="417"/>
      <point x="112" y="377"/>
      <point x="184" y="346" type="curve"/>
      <point x="112" y="311"/>
      <point x="62" y="273"/>
    </contour>
    <contour>
      <point x="137" y="496" type="curve" smooth="yes"/>
      <point x="137" y="583"/>
      <point x="202" y="615"/>
      <point x="304" y="615" type="curve" smooth="yes"/>
      <point x="406" y="615"/>
      <point x="470" y="583"/>
      <point x="470" y="496" type="curve" smooth="yes"/>
      <point x="470" y="428"/>
      <point x="432" y="393"/>
      <point x="359" y="370" type="curve"/>
      <point x="248" y="370" type="line"/>
      <point x="175" y="393"/>
      <point x="137" y="428"/>
    </contour>
  </outline>
</glyph>
<glyph name="nine" format="2">
  <advance width="574"/>
  <unicode hex="0039"/>
  <note>
nine
</note>
  <outline>
    <contour>
      <point x="83" y="55" type="curve"/>
      <point x="77" y="4" type="line"/>
      <point x="77" y="4"/>
      <point x="175" y="-11"/>
      <point x="254" y="-11" type="curve" smooth="yes"/>
      <point x="422" y="-11"/>
      <point x="512" y="71"/>
      <point x="512" y="326" type="curve" smooth="yes"/>
      <point x="512" y="539"/>
      <point x="442" y="671"/>
      <point x="276" y="671" type="curve" smooth="yes"/>
      <point x="139" y="671"/>
      <point x="51" y="587"/>
      <point x="51" y="451" type="curve" smooth="yes"/>
      <point x="51" y="314"/>
      <point x="131" y="252"/>
      <point x="262" y="252" type="curve" smooth="yes"/>
      <point x="347" y="252"/>
      <point x="448" y="293"/>
      <point x="448" y="293" type="curve"/>
      <point x="447" y="120"/>
      <point x="390" y="44"/>
      <point x="255" y="44" type="curve" smooth="yes"/>
      <point x="176" y="44"/>
      <point x="83" y="55"/>
    </contour>
    <contour>
      <point x="115" y="451" type="curve" smooth="yes"/>
      <point x="115" y="553"/>
      <point x="175" y="616"/>
      <point x="276" y="616" type="curve" smooth="yes"/>
      <point x="403" y="616"/>
      <point x="447" y="506"/>
      <point x="449" y="347" type="curve"/>
      <point x="449" y="347"/>
      <point x="346" y="307"/>
      <point x="266" y="307" type="curve" smooth="yes"/>
      <point x="172" y="307"/>
      <point x="115" y="351"/>
    </contour>
  </outline>
</glyph>
<glyph name="colon" format="2">
  <advance width="204"/>
  <unicode hex="003A"/>
  <note>
colon
</note>
  <outline>
    <contour>
      <point x="135" y="101" type="line"/>
      <point x="69" y="101" type="line"/>
      <point x="69" y="0" type="line"/>
      <point x="135" y="0" type="line"/>
    </contour>
    <contour>
      <point x="69" y="431" type="line"/>
      <point x="69" y="330" type="line"/>
      <point x="135" y="330" type="line"/>
      <point x="135" y="431" type="line"/>
    </contour>
  </outline>
</glyph>
<glyph name="semicolon" format="2">
  <advance width="240"/>
  <unicode hex="003B"/>
  <note>
semicolon
</note>
  <outline>
    <contour>
      <point x="163" y="101" type="line"/>
      <point x="96" y="101" type="line"/>
      <point x="52" y="-123" type="line"/>
      <point x="102" y="-123" type="line"/>
    </contour>
    <contour>
      <point x="96" y="431" type="line"/>
      <point x="96" y="330" type="line"/>
      <point x="162" y="330" type="line"/>
      <point x="162" y="431" type="line"/>
    </contour>
  </outline>
</glyph>
<glyph name="less" format="2">
  <advance width="560"/>
  <unicode hex="003C"/>
  <note>
less
</note>
  <outline>
    <contour>
      <point x="490" y="108" type="line"/>
      <point x="126" y="287" type="line"/>
      <point x="490" y="466" type="line"/>
      <point x="490" y="528" type="line"/>
      <point x="64" y="313" type="line"/>
      <point x="64" y="262" type="line"/>
      <point x="490" y="47" type="line"/>
    </contour>
  </outline>
</glyph>
<glyph name="equal" format="2">
  <advance width="560"/>
  <unicode hex="003D"/>
  <note>
equal
</note>
  <outline>
    <contour>
      <point x="77" y="408" type="line"/>
      <point x="77" y="353" type="line"/>
      <point x="483" y="353" type="line"/>
      <point x="483" y="408" type="line"/>
    </contour>
    <contour>
      <point x="77" y="222" type="line"/>
      <point x="77" y="167" type="line"/>
      <point x="483" y="167" type="line"/>
      <point x="483" y="222" type="line"/>
    </contour>
  </outline>
</glyph>
<glyph name="greater" format="2">
  <advance width="560"/>
  <unicode hex="003E"/>
  <note>
greater
</note>
  <outline>
    <contour>
      <point x="70" y="466" type="line"/>
      <point x="434" y="287" type="line"/>
      <point x="70" y="108" type="line"/>
      <point x="70" y="47" type="line"/>
      <point x="496" y="262" type="line"/>
      <point x="496" y="313" type="line"/>
      <point x="70" y="528" type="line"/>
    </contour>
  </outline>
</glyph>
<glyph name="question" format="2">
  <advance width="430"/>
  <unicode hex="003F"/>
  <note>
question
</note>
  <outline>
    <contour>
      <point x="394" y="543" type="curve" smooth="yes"/>
      <point x="394" y="671"/>
      <point x="314" y="710"/>
      <point x="196" y="710" type="curve" smooth="yes"/>
      <point x="95" y="710"/>
      <point x="26" y="681"/>
      <point x="26" y="681" type="curve"/>
      <point x="31" y="631" type="line"/>
      <point x="31" y="631"/>
      <point x="107" y="656"/>
      <point x="192" y="656" type="curve" smooth="yes"/>
      <point x="271" y="656"/>
      <point x="334" y="635"/>
      <point x="334" y="544" type="curve" smooth="yes"/>
      <point x="334" y="494"/>
      <point x="315" y="461"/>
      <point x="244" y="399" type="curve" smooth="yes"/>
      <point x="191" y="353"/>
      <point x="145" y="310"/>
      <point x="145" y="255" type="curve" smooth="yes"/>
      <point x="145" y="227"/>
      <point x="154" y="202"/>
      <point x="154" y="202" type="curve"/>
      <point x="205" y="202" type="line"/>
      <point x="205" y="238" type="line" smooth="yes"/>
      <point x="205" y="287"/>
      <point x="242" y="322"/>
      <point x="298" y="369" type="curve" smooth="yes"/>
      <point x="378" y="438"/>
      <point x="394" y="483"/>
    </contour>
    <contour>
      <point x="149" y="98" type="line"/>
      <point x="149" y="0" type="line"/>
      <point x="214" y="0" type="line"/>
      <point x="214" y="98" type="line"/>
    </contour>
  </outline>
</glyph>
<glyph name="at" format="2">
  <advance width="985"/>
  <unicode hex="0040"/>
  <note>
at
</note>
  <outline>
    <contour>
      <point x="928" y="290" type="curve" smooth="yes"/>
      <point x="928" y="305" type="line" smooth="yes"/>
      <point x="928" y="587"/>
      <point x="805" y="721"/>
      <point x="502" y="721" type="curve" smooth="yes"/>
      <point x="211" y="721"/>
      <point x="53" y="594"/>
      <point x="53" y="261" type="curve" smooth="yes"/>
      <point x="53" y="-100"/>
      <point x="206" y="-201"/>
      <point x="502" y="-201" type="curve" smooth="yes"/>
      <point x="553" y="-201"/>
      <point x="648" y="-192"/>
      <point x="648" y="-192" type="curve"/>
      <point x="645" y="-139" type="line"/>
      <point x="645" y="-139"/>
      <point x="545" y="-149"/>
      <point x="502" y="-149" type="curve" smooth="yes"/>
      <point x="234" y="-149"/>
      <point x="114" y="-49"/>
      <point x="114" y="261" type="curve" smooth="yes"/>
      <point x="114" y="556"/>
      <point x="240" y="669"/>
      <point x="502" y="669" type="curve" smooth="yes"/>
      <point x="767" y="669"/>
      <point x="867" y="558"/>
      <point x="867" y="306" type="curve" smooth="yes"/>
      <point x="867" y="290" type="line" smooth="yes"/>
      <point x="867" y="58"/>
      <point x="825" y="43"/>
      <point x="761" y="43" type="curve" smooth="yes"/>
      <point x="682" y="43"/>
      <point x="677" y="68"/>
      <point x="677" y="302" type="curve" smooth="yes"/>
      <point x="677" y="497" type="line"/>
      <point x="618" y="497" type="line"/>
      <point x="618" y="480" type="line"/>
      <point x="618" y="480"/>
      <point x="548" y="507"/>
      <point x="496" y="507" type="curve" smooth="yes"/>
      <point x="337" y="507"/>
      <point x="290" y="414"/>
      <point x="290" y="245" type="curve" smooth="yes"/>
      <point x="290" y="16"/>
      <point x="387" y="-7"/>
      <point x="463" y="-7" type="curve" smooth="yes"/>
      <point x="541" y="-7"/>
      <point x="644" y="54"/>
      <point x="644" y="54" type="curve"/>
      <point x="644" y="54"/>
      <point x="659" y="-8"/>
      <point x="758" y="-8" type="curve" smooth="yes"/>
      <point x="860" y="-8"/>
      <point x="928" y="21"/>
    </contour>
    <contour>
      <point x="350" y="242" type="curve" smooth="yes"/>
      <point x="350" y="380"/>
      <point x="378" y="454"/>
      <point x="503" y="454" type="curve" smooth="yes"/>
      <point x="552" y="454"/>
      <point x="618" y="431"/>
      <point x="618" y="431" type="curve"/>
      <point x="618" y="288" type="line" smooth="yes"/>
      <point x="618" y="201"/>
      <point x="626" y="105"/>
      <point x="627" y="98" type="curve"/>
      <point x="622" y="95"/>
      <point x="526" y="46"/>
      <point x="466" y="46" type="curve" smooth="yes"/>
      <point x="414" y="46"/>
      <point x="350" y="70"/>
    </contour>
  </outline>
</glyph>
<glyph name="E" format="2">
  <advance width="553"/>
  <unicode hex="0045"/>
  <note>
E
</note>
  <anchor x="300" y="0" name="bottom"/>
  <anchor x="463" y="0" name="ogonek"/>
  <anchor x="300" y="700" name="top"/>
  <outline>
    <contour>
      <point x="505" y="700" type="line"/>
      <point x="89" y="700" type="line"/>
      <point x="89" y="0" type="line"/>
      <point x="505" y="0" type="line"/>
      <point x="505" y="55" type="line"/>
      <point x="150" y="55" type="line"/>
      <point x="150" y="330" type="line"/>
      <point x="445" y="330" type="line"/>
      <point x="445" y="384" type="line"/>
      <point x="150" y="384" type="line"/>
      <point x="150" y="645" type="line"/>
      <point x="505" y="645" type="line"/>
    </contour>
  </outline>
</glyph>
<glyph name="F" format="2">
  <advance width="527"/>
  <unicode hex="0046"/>
  <note>
F
</note>
  <anchor x="303" y="0" name="bottom"/>
  <anchor x="303" y="700" name="top"/>
  <outline>
    <contour>
      <point x="497" y="700" type="line"/>
      <point x="89" y="700" type="line"/>
      <point x="89" y="0" type="line"/>
      <point x="150" y="0" type="line"/>
      <point x="150" y="303" type="line"/>
      <point x="446" y="303" type="line"/>
      <point x="446" y="358" type="line"/>
      <point x="150" y="358" type="line"/>
      <point x="150" y="645" type="line"/>
      <point x="497" y="645" type="line"/>
    </contour>
  </outline>
</glyph>
<glyph name="G" format="2">
  <advance width="617"/>
  <unicode hex="0047"/>
  <note>
G
</note>
  <anchor x="347" y="0" name="bottom"/>
  <anchor x="340" y="700" name="top"/>
  <outline>
    <contour>
      <point x="549" y="351" type="line"/>
      <point x="360" y="351" type="line"/>
      <point x="360" y="297" type="line"/>
      <point x="489" y="297" type="line"/>
      <point x="489" y="60" type="line"/>
      <point x="456" y="53"/>
      <point x="376" y="44"/>
      <point x="325" y="44" type="curve" smooth="yes"/>
      <point x="150" y="44"/>
      <point x="124" y="146"/>
      <point x="124" y="345" type="curve" smooth="yes"/>
      <point x="124" y="549"/>
      <point x="145" y="657"/>
      <point x="316" y="657" type="curve" smooth="yes"/>
      <point x="407" y="657"/>
      <point x="546" y="630"/>
      <point x="546" y="630" type="curve"/>
      <point x="549" y="683" type="line"/>
      <point x="549" y="683"/>
      <point x="417" y="712"/>
      <point x="312" y="712" type="curve" smooth="yes"/>
      <point x="102" y="712"/>
      <point x="61" y="578"/>
      <point x="61" y="345" type="curve" smooth="yes"/>
      <point x="61" y="114"/>
      <point x="104" y="-11"/>
      <point x="321" y="-11" type="curve" smooth="yes"/>
      <point x="393" y="-11"/>
      <point x="511" y="6"/>
      <point x="549" y="14" type="curve"/>
    </contour>
  </outline>
</glyph>
<glyph name="H" format="2">
  <advance width="676"/>
  <unicode hex="0048"/>
  <note>
H
</note>
  <anchor x="338" y="0" name="bottom"/>
  <anchor x="338" y="543" name="center"/>
  <anchor x="338" y="700" name="top"/>
  <outline>
    <contour>
      <point x="150" y="328" type="line"/>
      <point x="526" y="328" type="line"/>
      <point x="526" y="0" type="line"/>
      <point x="588" y="0" type="line"/>
      <point x="588" y="700" type="line"/>
      <point x="526" y="700" type="line"/>
      <point x="526" y="384" type="line"/>
      <point x="150" y="384" type="line"/>
      <point x="150" y="700" type="line"/>
      <point x="89" y="700" type="line"/>
      <point x="89" y="0" type="line"/>
      <point x="150" y="0" type="line"/>
    </contour>
  </outline>
</glyph>
<glyph name="I" format="2">
  <advance width="239"/>
  <unicode hex="0049"/>
  <note>
I
</note>
  <anchor x="119" y="0" name="bottom"/>
  <anchor x="119" y="353" name="center"/>
  <anchor x="150" y="0" name="ogonek"/>
  <anchor x="119" y="700" name="top"/>
  <outline>
    <contour>
      <point x="150" y="700" type="line"/>
      <point x="89" y="700" type="line"/>
      <point x="89" y="0" type="line"/>
      <point x="150" y="0" type="line"/>
    </contour>
  </outline>
</glyph>
<glyph name="K" format="2">
  <advance width="562"/>
  <unicode hex="004B"/>
  <note>
K
</note>
  <anchor x="295" y="0" name="bottom"/>
  <anchor x="287" y="700" name="top"/>
  <outline>
    <contour>
      <point x="150" y="316" type="line"/>
      <point x="271" y="319" type="line"/>
      <point x="473" y="0" type="line"/>
      <point x="546" y="0" type="line"/>
      <point x="323" y="349" type="line"/>
      <point x="534" y="700" type="line"/>
      <point x="464" y="700" type="line"/>
      <point x="270" y="373" type="line"/>
      <point x="150" y="371" type="line"/>
      <point x="150" y="700" type="line"/>
      <point x="89" y="700" type="line"/>
      <point x="89" y="0" type="line"/>
      <point x="150" y="0" type="line"/>
    </contour>
  </outline>
</glyph>
<glyph name="L" format="2">
  <advance width="482"/>
  <unicode hex="004C"/>
  <note>
L
</note>
  <anchor x="279" y="0" name="bottom"/>
  <anchor x="118" y="350" name="center"/>
  <anchor x="120" y="700" name="top"/>
  <anchor x="286" y="700" name="topright"/>
  <outline>
    <contour>
      <point x="89" y="700" type="line"/>
      <point x="89" y="0" type="line"/>
      <point x="468" y="0" type="line"/>
      <point x="468" y="56" type="line"/>
      <point x="150" y="56" type="line"/>
      <point x="150" y="700" type="line"/>
    </contour>
  </outline>
</glyph>
<glyph name="M" format="2">
  <advance width="836"/>
  <unicode hex="004D"/>
  <note>
M
</note>
  <anchor x="418" y="0" name="bottom"/>
  <anchor x="418" y="700" name="top"/>
  <outline>
    <contour>
      <point x="220" y="700" type="line"/>
      <point x="89" y="700" type="line"/>
      <point x="89" y="0" type="line"/>
      <point x="148" y="0" type="line"/>
      <point x="148" y="642" type="line"/>
      <point x="178" y="642" type="line"/>
      <point x="379" y="0" type="line"/>
      <point x="451" y="0" type="line"/>
      <point x="656" y="642" type="line"/>
      <point x="686" y="642" type="line"/>
      <point x="686" y="0" type="line"/>
      <point x="748" y="0" type="line"/>
      <point x="748" y="700" type="line"/>
      <point x="617" y="700" type="line"/>
      <point x="417" y="65" type="line"/>
    </contour>
  </outline>
</glyph>
<glyph name="P" format="2">
  <advance width="597"/>
  <unicode hex="0050"/>
  <note>
P
</note>
  <anchor x="302" y="0" name="bottom"/>
  <anchor x="302" y="700" name="top"/>
  <outline>
    <contour>
      <point x="150" y="0" type="line"/>
      <point x="150" y="242" type="line"/>
      <point x="342" y="242" type="line" smooth="yes"/>
      <point x="491" y="242"/>
      <point x="558" y="327"/>
      <point x="558" y="478" type="curve" smooth="yes"/>
      <point x="558" y="628"/>
      <point x="491" y="700"/>
      <point x="342" y="700" type="curve" smooth="yes"/>
      <point x="89" y="700" type="line"/>
      <point x="89" y="0" type="line"/>
    </contour>
    <contour>
      <point x="342" y="297" type="curve" smooth="yes"/>
      <point x="150" y="297" type="line"/>
      <point x="150" y="645" type="line"/>
      <point x="342" y="645" type="line" smooth="yes"/>
      <point x="450" y="645"/>
      <point x="494" y="592"/>
      <point x="494" y="478" type="curve" smooth="yes"/>
      <point x="494" y="363"/>
      <point x="450" y="297"/>
    </contour>
  </outline>
</glyph>
<glyph name="Q" format="2">
  <advance width="661"/>
  <unicode hex="0051"/>
  <note>
Q
</note>
  <outline>
    <contour>
      <point x="330" y="46" type="curve" smooth="yes"/>
      <point x="159" y="46"/>
      <point x="123" y="151"/>
      <point x="123" y="346" type="curve" smooth="yes"/>
      <point x="123" y="546"/>
      <point x="159" y="657"/>
      <point x="330" y="657" type="curve" smooth="yes"/>
      <point x="501" y="657"/>
      <point x="538" y="545"/>
      <point x="538" y="346" type="curve" smooth="yes"/>
      <point x="538" y="147"/>
      <point x="503" y="46"/>
    </contour>
    <contour>
      <point x="60" y="346" type="curve" smooth="yes"/>
      <point x="60" y="116"/>
      <point x="116" y="-10"/>
      <point x="330" y="-10" type="curve" smooth="yes"/>
      <point x="367" y="-10"/>
      <point x="399" y="-6"/>
      <point x="427" y="2" type="curve"/>
      <point x="515" y="-145" type="line"/>
      <point x="567" y="-114" type="line"/>
      <point x="485" y="24" type="line"/>
      <point x="574" y="74"/>
      <point x="602" y="183"/>
      <point x="602" y="346" type="curve" smooth="yes"/>
      <point x="602" y="579"/>
      <point x="544" y="712"/>
      <point x="330" y="712" type="curve" smooth="yes"/>
      <point x="116" y="712"/>
      <point x="60" y="578"/>
    </contour>
  </outline>
</glyph>
<glyph name="S" format="2">
  <advance width="542"/>
  <unicode hex="0053"/>
  <note>
S
</note>
  <anchor x="256" y="0" name="bottom"/>
  <anchor x="277" y="700" name="top"/>
  <outline>
    <contour>
      <point x="469" y="636" type="curve"/>
      <point x="474" y="690" type="line"/>
      <point x="474" y="690"/>
      <point x="360" y="712"/>
      <point x="271" y="712" type="curve" smooth="yes"/>
      <point x="140" y="712"/>
      <point x="53" y="664"/>
      <point x="53" y="524" type="curve" smooth="yes"/>
      <point x="53" y="416"/>
      <point x="103" y="374"/>
      <point x="206" y="347" type="curve" smooth="yes"/>
      <point x="318" y="318" type="line" smooth="yes"/>
      <point x="407" y="295"/>
      <point x="431" y="264"/>
      <point x="431" y="196" type="curve" smooth="yes"/>
      <point x="431" y="89"/>
      <point x="376" y="44"/>
      <point x="271" y="44" type="curve" smooth="yes"/>
      <point x="200" y="44"/>
      <point x="62" y="64"/>
      <point x="62" y="64" type="curve"/>
      <point x="56" y="10" type="line"/>
      <point x="56" y="10"/>
      <point x="194" y="-11"/>
      <point x="273" y="-11" type="curve" smooth="yes"/>
      <point x="412" y="-11"/>
      <point x="493" y="49"/>
      <point x="493" y="199" type="curve" smooth="yes"/>
      <point x="493" y="303"/>
      <point x="454" y="346"/>
      <point x="339" y="376" type="curve" smooth="yes"/>
      <point x="229" y="404" type="line" smooth="yes"/>
      <point x="150" y="424"/>
      <point x="115" y="448"/>
      <point x="115" y="526" type="curve" smooth="yes"/>
      <point x="115" y="622"/>
      <point x="168" y="658"/>
      <point x="271" y="658" type="curve" smooth="yes"/>
      <point x="348" y="658"/>
      <point x="469" y="636"/>
    </contour>
  </outline>
</glyph>
<glyph name="T" format="2">
  <advance width="524"/>
  <unicode hex="0054"/>
  <note>
T
</note>
  <anchor x="262" y="0" name="bottom"/>
  <anchor x="262" y="342" name="center"/>
  <anchor x="262" y="700" name="top"/>
  <outline>
    <contour>
      <point x="511" y="700" type="line"/>
      <point x="14" y="700" type="line"/>
      <point x="14" y="644" type="line"/>
      <point x="231" y="644" type="line"/>
      <point x="231" y="0" type="line"/>
      <point x="293" y="0" type="line"/>
      <point x="293" y="644" type="line"/>
      <point x="511" y="644" type="line"/>
    </contour>
  </outline>
</glyph>
<glyph name="U" format="2">
  <advance width="644"/>
  <unicode hex="0055"/>
  <note>
U
</note>
  <anchor x="322" y="0" name="bottom"/>
  <anchor x="399" y="0" name="ogonek"/>
  <anchor x="322" y="700" name="top"/>
  <anchor x="620" y="700" name="topright"/>
  <outline>
    <contour>
      <point x="146" y="202" type="curve" smooth="yes"/>
      <point x="146" y="700" type="line"/>
      <point x="84" y="700" type="line"/>
      <point x="84" y="203" type="line" smooth="yes"/>
      <point x="84" y="47"/>
      <point x="170" y="-11"/>
      <point x="320" y="-11" type="curve" smooth="yes"/>
      <point x="473" y="-11"/>
      <point x="560" y="48"/>
      <point x="560" y="203" type="curve" smooth="yes"/>
      <point x="560" y="700" type="line"/>
      <point x="498" y="700" type="line"/>
      <point x="498" y="202" type="line" smooth="yes"/>
      <point x="498" y="87"/>
      <point x="433" y="44"/>
      <point x="320" y="44" type="curve" smooth="yes"/>
      <point x="210" y="44"/>
      <point x="146" y="87"/>
    </contour>
  </outline>
</glyph>
<glyph name="V" format="2">
  <advance width="584"/>
  <unicode hex="0056"/>
  <note>
V
</note>
  <anchor x="292" y="0" name="bottom"/>
  <anchor x="292" y="700" name="top"/>
  <outline>
    <contour>
      <point x="349" y="0" type="line"/>
      <point x="557" y="700" type="line"/>
      <point x="498" y="700" type="line"/>
      <point x="308" y="58" type="line"/>
      <point x="278" y="58" type="line"/>
      <point x="90" y="700" type="line"/>
      <point x="27" y="700" type="line"/>
      <point x="235" y="0" type="line"/>
    </contour>
  </outline>
</glyph>
<glyph name="W" format="2">
  <advance width="878"/>
  <unicode hex="0057"/>
  <note>
W
</note>
  <anchor x="439" y="0" name="bottom"/>
  <anchor x="439" y="700" name="top"/>
  <outline>
    <contour>
      <point x="226" y="58" type="line"/>
      <point x="99" y="700" type="line"/>
      <point x="37" y="700" type="line"/>
      <point x="182" y="0" type="line"/>
      <point x="296" y="0" type="line"/>
      <point x="439" y="610" type="line"/>
      <point x="583" y="0" type="line"/>
      <point x="697" y="0" type="line"/>
      <point x="841" y="700" type="line"/>
      <point x="782" y="700" type="line"/>
      <point x="656" y="58" type="line"/>
      <point x="626" y="58" type="line"/>
      <point x="476" y="687" type="line"/>
      <point x="405" y="687" type="line"/>
      <point x="256" y="58" type="line"/>
    </contour>
  </outline>
</glyph>
<glyph name="X" format="2">
  <advance width="571"/>
  <unicode hex="0058"/>
  <note>
X
</note>
  <outline>
    <contour>
      <point x="250" y="352" type="line"/>
      <point x="24" y="0" type="line"/>
      <point x="91" y="0" type="line"/>
      <point x="283" y="304" type="line"/>
      <point x="476" y="0" type="line"/>
      <point x="545" y="0" type="line"/>
      <point x="321" y="349" type="line"/>
      <point x="545" y="700" type="line"/>
      <point x="477" y="700" type="line"/>
      <point x="288" y="397" type="line"/>
      <point x="98" y="700" type="line"/>
      <point x="28" y="700" type="line"/>
    </contour>
  </outline>
</glyph>
<glyph name="Y" format="2">
  <advance width="548"/>
  <unicode hex="0059"/>
  <note>
Y
</note>
  <anchor x="275" y="0" name="bottom"/>
  <anchor x="275" y="700" name="top"/>
  <outline>
    <contour>
      <point x="243" y="297" type="line"/>
      <point x="243" y="0" type="line"/>
      <point x="305" y="0" type="line"/>
      <point x="305" y="297" type="line"/>
      <point x="528" y="700" type="line"/>
      <point x="461" y="700" type="line"/>
      <point x="275" y="355" type="line"/>
      <point x="87" y="700" type="line"/>
      <point x="20" y="700" type="line"/>
    </contour>
  </outline>
</glyph>
<glyph name="Z" format="2">
  <advance width="541"/>
  <unicode hex="005A"/>
  <note>
Z
</note>
  <anchor x="275" y="0" name="bottom"/>
  <anchor x="216" y="350" name="center"/>
  <anchor x="268" y="700" name="top"/>
  <outline>
    <contour>
      <point x="495" y="700" type="line"/>
      <point x="47" y="700" type="line"/>
      <point x="47" y="645" type="line"/>
      <point x="433" y="645" type="line"/>
      <point x="433" y="620" type="line"/>
      <point x="46" y="91" type="line"/>
      <point x="46" y="0" type="line"/>
      <point x="495" y="0" type="line"/>
      <point x="495" y="56" type="line"/>
      <point x="108" y="56" type="line"/>
      <point x="108" y="81" type="line"/>
      <point x="495" y="609" type="line"/>
    </contour>
  </outline>
</glyph>
<glyph name="bracketleft" format="2">
  <advance width="318"/>
  <unicode hex="005B"/>
  <note>
bracketleft
</note>
  <outline>
    <contour>
      <point x="147" y="695" type="line"/>
      <point x="286" y="695" type="line"/>
      <point x="286" y="748" type="line"/>
      <point x="87" y="748" type="line"/>
      <point x="87" y="-123" type="line"/>
      <point x="286" y="-123" type="line"/>
      <point x="286" y="-70" type="line"/>
      <point x="147" y="-70" type="line"/>
    </contour>
  </outline>
</glyph>
<glyph name="backslash" format="2">
  <advance width="378"/>
  <unicode hex="005C"/>
  <note>
backslash
</note>
  <outline>
    <contour>
      <point x="360" y="10" type="line"/>
      <point x="73" y="710" type="line"/>
      <point x="19" y="689" type="line"/>
      <point x="306" y="-10" type="line"/>
    </contour>
  </outline>
</glyph>
<glyph name="bracketright" format="2">
  <advance width="318"/>
  <unicode hex="005D"/>
  <note>
bracketright
</note>
  <outline>
    <contour>
      <point x="32" y="748" type="line"/>
      <point x="32" y="695" type="line"/>
      <point x="171" y="695" type="line"/>
      <point x="171" y="-70" type="line"/>
      <point x="32" y="-70" type="line"/>
      <point x="32" y="-123" type="line"/>
      <point x="231" y="-123" type="line"/>
      <point x="231" y="748" type="line"/>
    </contour>
  </outline>
</glyph>
<glyph name="asciicircum" format="2">
  <advance width="560"/>
  <unicode hex="005E"/>
  <note>
asciicircum
</note>
  <outline>
    <contour>
      <point x="131" y="321" type="line"/>
      <point x="278" y="601" type="line"/>
      <point x="430" y="321" type="line"/>
      <point x="495" y="321" type="line"/>
      <point x="304" y="660" type="line"/>
      <point x="249" y="660" type="line"/>
      <point x="66" y="321" type="line"/>
    </contour>
  </outline>
</glyph>
<glyph name="underscore" format="2">
  <advance width="547"/>
  <unicode hex="005F"/>
  <note>
underscore
</note>
  <outline>
    <contour>
      <point x="491" y="-42" type="line"/>
      <point x="55" y="-42" type="line"/>
      <point x="55" y="-96" type="line"/>
      <point x="491" y="-96" type="line"/>
    </contour>
  </outline>
</glyph>
<glyph name="grave" format="2">
  <advance width="328"/>
  <unicode hex="0060"/>
  <note>
grave
</note>
  <outline>
    <contour>
      <point x="260" y="598" type="line"/>
      <point x="278" y="640" type="line"/>
      <point x="72" y="737" type="line"/>
      <point x="50" y="686" type="line"/>
    </contour>
  </outline>
</glyph>
<glyph name="c" format="2">
  <advance width="433"/>
  <unicode hex="0063"/>
  <note>
c
</note>
  <anchor x="238" y="0" name="bottom"/>
  <anchor x="248" y="500" name="top"/>
  <outline>
    <contour>
      <point x="256" y="512" type="curve" smooth="yes"/>
      <point x="113" y="512"/>
      <point x="53" y="444"/>
      <point x="53" y="254" type="curve" smooth="yes"/>
      <point x="53" y="60"/>
      <point x="103" y="-11"/>
      <point x="260" y="-11" type="curve" smooth="yes"/>
      <point x="308" y="-11"/>
      <point x="391" y="1"/>
      <point x="391" y="1" type="curve"/>
      <point x="389" y="52" type="line"/>
      <point x="389" y="52"/>
      <point x="311" y="42"/>
      <point x="270" y="42" type="curve" smooth="yes"/>
      <point x="142" y="42"/>
      <point x="115" y="101"/>
      <point x="115" y="254" type="curve" smooth="yes"/>
      <point x="115" y="405"/>
      <point x="150" y="459"/>
      <point x="265" y="459" type="curve" smooth="yes"/>
      <point x="308" y="459"/>
      <point x="387" y="449"/>
      <point x="387" y="449" type="curve"/>
      <point x="390" y="499" type="line"/>
      <point x="390" y="499"/>
      <point x="305" y="512"/>
    </contour>
  </outline>
</glyph>
<glyph name="h" format="2">
  <advance width="538"/>
  <unicode hex="0068"/>
  <note>
h
</note>
  <anchor x="268" y="0" name="bottom"/>
  <anchor x="206" y="614" name="center"/>
  <anchor x="107" y="730" name="top"/>
  <outline>
    <contour>
      <point x="77" y="730" type="line"/>
      <point x="77" y="0" type="line"/>
      <point x="137" y="0" type="line"/>
      <point x="137" y="423" type="line"/>
      <point x="137" y="423"/>
      <point x="214" y="457"/>
      <point x="294" y="457" type="curve" smooth="yes"/>
      <point x="391" y="457"/>
      <point x="407" y="408"/>
      <point x="407" y="261" type="curve" smooth="yes"/>
      <point x="407" y="0" type="line"/>
      <point x="467" y="0" type="line"/>
      <point x="467" y="263" type="line" smooth="yes"/>
      <point x="467" y="447"/>
      <point x="435" y="510"/>
      <point x="304" y="510" type="curve" smooth="yes"/>
      <point x="219" y="510"/>
      <point x="137" y="471"/>
      <point x="137" y="471" type="curve"/>
      <point x="137" y="730" type="line"/>
    </contour>
  </outline>
</glyph>
<glyph name="i" format="2">
  <advance width="213"/>
  <unicode hex="0069"/>
  <note>
i
</note>
  <anchor x="107" y="0" name="bottom"/>
  <anchor x="137" y="0" name="ogonek"/>
  <anchor x="107" y="700" name="top"/>
  <outline>
    <contour>
      <point x="137" y="500" type="line"/>
      <point x="77" y="500" type="line"/>
      <point x="77" y="0" type="line"/>
      <point x="137" y="0" type="line"/>
    </contour>
    <contour>
      <point x="76" y="700" type="line"/>
      <point x="76" y="612" type="line"/>
      <point x="137" y="612" type="line"/>
      <point x="137" y="700" type="line"/>
    </contour>
  </outline>
</glyph>
<glyph name="k" format="2">
  <advance width="466"/>
  <unicode hex="006B"/>
  <note>
k
</note>
  <anchor x="252" y="0" name="bottom"/>
  <anchor x="107" y="730" name="top"/>
  <outline>
    <contour>
      <point x="77" y="730" type="line"/>
      <point x="77" y="0" type="line"/>
      <point x="137" y="0" type="line"/>
      <point x="137" y="247" type="line"/>
      <point x="222" y="248" type="line"/>
      <point x="383" y="0" type="line"/>
      <point x="451" y="0" type="line"/>
      <point x="273" y="278" type="line"/>
      <point x="444" y="500" type="line"/>
      <point x="376" y="500" type="line"/>
      <point x="222" y="301" type="line"/>
      <point x="137" y="299" type="line"/>
      <point x="137" y="730" type="line"/>
    </contour>
  </outline>
</glyph>
<glyph name="l" format="2">
  <advance width="262"/>
  <unicode hex="006C"/>
  <note>
l
</note>
  <anchor x="167" y="0" name="bottom"/>
  <anchor x="103" y="365" name="center"/>
  <anchor x="104" y="730" name="top"/>
  <anchor x="194" y="730" name="topright"/>
  <outline>
    <contour>
      <point x="134" y="118" type="curve" smooth="yes"/>
      <point x="134" y="730" type="line"/>
      <point x="74" y="730" type="line"/>
      <point x="74" y="96" type="line" smooth="yes"/>
      <point x="74" y="25"/>
      <point x="108" y="-11"/>
      <point x="186" y="-11" type="curve" smooth="yes"/>
      <point x="221" y="-11"/>
      <point x="246" y="-4"/>
      <point x="246" y="-4" type="curve"/>
      <point x="242" y="45" type="line"/>
      <point x="242" y="45"/>
      <point x="218" y="43"/>
      <point x="190" y="43" type="curve" smooth="yes"/>
      <point x="143" y="43"/>
      <point x="134" y="64"/>
    </contour>
  </outline>
</glyph>
<glyph name="n" format="2">
  <advance width="538"/>
  <unicode hex="006E"/>
  <note>
n
</note>
  <anchor x="277" y="0" name="bottom"/>
  <anchor x="266" y="500" name="top"/>
  <outline>
    <contour>
      <point x="77" y="500" type="line"/>
      <point x="77" y="0" type="line"/>
      <point x="137" y="0" type="line"/>
      <point x="137" y="414" type="line"/>
      <point x="137" y="414"/>
      <point x="209" y="459"/>
      <point x="293" y="459" type="curve" smooth="yes"/>
      <point x="389" y="459"/>
      <point x="407" y="411"/>
      <point x="407" y="263" type="curve" smooth="yes"/>
      <point x="407" y="0" type="line"/>
      <point x="467" y="0" type="line"/>
      <point x="467" y="265" type="line" smooth="yes"/>
      <point x="467" y="451"/>
      <point x="433" y="512"/>
      <point x="303" y="512" type="curve" smooth="yes"/>
      <point x="216" y="512"/>
      <point x="136" y="463"/>
      <point x="136" y="463" type="curve"/>
      <point x="136" y="500" type="line"/>
    </contour>
  </outline>
</glyph>
<glyph name="p" format="2">
  <advance width="525"/>
  <unicode hex="0070"/>
  <note>
p
</note>
  <anchor x="262" y="0" name="bottom"/>
  <anchor x="267" y="500" name="top"/>
  <outline>
    <contour>
      <point x="136" y="500" type="line"/>
      <point x="77" y="500" type="line"/>
      <point x="77" y="-230" type="line"/>
      <point x="137" y="-230" type="line"/>
      <point x="137" y="3" type="line"/>
      <point x="137" y="3"/>
      <point x="207" y="-11"/>
      <point x="256" y="-11" type="curve" smooth="yes"/>
      <point x="410" y="-11"/>
      <point x="472" y="63"/>
      <point x="472" y="257" type="curve" smooth="yes"/>
      <point x="472" y="433"/>
      <point x="419" y="512"/>
      <point x="295" y="512" type="curve" smooth="yes"/>
      <point x="214" y="512"/>
      <point x="136" y="462"/>
      <point x="136" y="462" type="curve"/>
    </contour>
    <contour>
      <point x="137" y="55" type="curve"/>
      <point x="137" y="411" type="line"/>
      <point x="137" y="411"/>
      <point x="213" y="459"/>
      <point x="288" y="459" type="curve" smooth="yes"/>
      <point x="366" y="459"/>
      <point x="410" y="406"/>
      <point x="410" y="257" type="curve" smooth="yes"/>
      <point x="410" y="101"/>
      <point x="371" y="41"/>
      <point x="254" y="41" type="curve" smooth="yes"/>
      <point x="207" y="41"/>
      <point x="137" y="55"/>
    </contour>
  </outline>
</glyph>
<glyph name="q" format="2">
  <advance width="523"/>
  <unicode hex="0071"/>
  <note>
q
</note>
  <outline>
    <contour>
      <point x="237" y="-11" type="curve" smooth="yes"/>
      <point x="315" y="-11"/>
      <point x="386" y="25"/>
      <point x="386" y="25" type="curve"/>
      <point x="386" y="-230" type="line"/>
      <point x="446" y="-230" type="line"/>
      <point x="446" y="502" type="line"/>
      <point x="446" y="502"/>
      <point x="338" y="512"/>
      <point x="284" y="512" type="curve" smooth="yes"/>
      <point x="112" y="512"/>
      <point x="52" y="436"/>
      <point x="52" y="242" type="curve" smooth="yes"/>
      <point x="52" y="68"/>
      <point x="101" y="-11"/>
    </contour>
    <contour>
      <point x="114" y="242" type="curve" smooth="yes"/>
      <point x="114" y="390"/>
      <point x="147" y="460"/>
      <point x="285" y="460" type="curve" smooth="yes"/>
      <point x="321" y="460"/>
      <point x="386" y="454"/>
      <point x="386" y="454" type="curve"/>
      <point x="386" y="77" type="line"/>
      <point x="386" y="77"/>
      <point x="319" y="42"/>
      <point x="242" y="42" type="curve" smooth="yes"/>
      <point x="145" y="42"/>
      <point x="114" y="110"/>
    </contour>
  </outline>
</glyph>
<glyph name="r" format="2">
  <advance width="337"/>
  <unicode hex="0072"/>
  <note>
r
</note>
  <anchor x="107" y="0" name="bottom"/>
  <anchor x="202" y="500" name="top"/>
  <outline>
    <contour>
      <point x="136" y="500" type="line"/>
      <point x="77" y="500" type="line"/>
      <point x="77" y="0" type="line"/>
      <point x="137" y="0" type="line"/>
      <point x="137" y="375" type="line"/>
      <point x="137" y="375"/>
      <point x="229" y="433"/>
      <point x="325" y="452" type="curve"/>
      <point x="325" y="512" type="line"/>
      <point x="223" y="493"/>
      <point x="136" y="428"/>
      <point x="136" y="428" type="curve"/>
    </contour>
  </outline>
</glyph>
<glyph name="t" format="2">
  <advance width="354"/>
  <unicode hex="0074"/>
  <note>
t
</note>
  <anchor x="224" y="0" name="bottom"/>
  <anchor x="129" y="267" name="center"/>
  <anchor x="131" y="657" name="top"/>
  <anchor x="222" y="730" name="topright"/>
  <outline>
    <contour>
      <point x="159" y="174" type="curve" smooth="yes"/>
      <point x="159" y="448" type="line"/>
      <point x="327" y="448" type="line"/>
      <point x="327" y="500" type="line"/>
      <point x="159" y="500" type="line"/>
      <point x="159" y="657" type="line"/>
      <point x="100" y="657" type="line"/>
      <point x="100" y="500" type="line"/>
      <point x="26" y="500" type="line"/>
      <point x="26" y="448" type="line"/>
      <point x="99" y="448" type="line"/>
      <point x="99" y="170" type="line" smooth="yes"/>
      <point x="99" y="26"/>
      <point x="135" y="-11"/>
      <point x="234" y="-11" type="curve" smooth="yes"/>
      <point x="269" y="-11"/>
      <point x="335" y="-1"/>
      <point x="335" y="-1" type="curve"/>
      <point x="331" y="49" type="line"/>
      <point x="331" y="49"/>
      <point x="267" y="42"/>
      <point x="239" y="42" type="curve" smooth="yes"/>
      <point x="167" y="42"/>
      <point x="159" y="75"/>
    </contour>
  </outline>
</glyph>
<glyph name="v" format="2">
  <advance width="478"/>
  <unicode hex="0076"/>
  <note>
v
</note>
  <anchor x="239" y="0" name="bottom"/>
  <anchor x="239" y="500" name="top"/>
  <outline>
    <contour>
      <point x="227" y="52" type="line"/>
      <point x="90" y="500" type="line"/>
      <point x="28" y="500" type="line"/>
      <point x="183" y="0" type="line"/>
      <point x="294" y="0" type="line"/>
      <point x="452" y="500" type="line"/>
      <point x="392" y="500" type="line"/>
      <point x="250" y="52" type="line"/>
    </contour>
  </outline>
</glyph>
<glyph name="w" format="2">
  <advance width="769"/>
  <unicode hex="0077"/>
  <note>
w
</note>
  <anchor x="384" y="0" name="bottom"/>
  <anchor x="384" y="500" name="top"/>
  <outline>
    <contour>
      <point x="202" y="52" type="line"/>
      <point x="93" y="500" type="line"/>
      <point x="33" y="500" type="line"/>
      <point x="157" y="0" type="line"/>
      <point x="266" y="0" type="line"/>
      <point x="385" y="413" type="line"/>
      <point x="503" y="0" type="line"/>
      <point x="612" y="0" type="line"/>
      <point x="736" y="500" type="line"/>
      <point x="677" y="500" type="line"/>
      <point x="567" y="52" type="line"/>
      <point x="544" y="52" type="line"/>
      <point x="416" y="490" type="line"/>
      <point x="353" y="490" type="line"/>
      <point x="225" y="52" type="line"/>
    </contour>
  </outline>
</glyph>
<glyph name="x" format="2">
  <advance width="449"/>
  <unicode hex="0078"/>
  <note>
x
</note>
  <outline>
    <contour>
      <point x="189" y="252" type="line"/>
      <point x="24" y="0" type="line"/>
      <point x="89" y="0" type="line"/>
      <point x="224" y="207" type="line"/>
      <point x="359" y="0" type="line"/>
      <point x="425" y="0" type="line"/>
      <point x="260" y="251" type="line"/>
      <point x="424" y="500" type="line"/>
      <point x="358" y="500" type="line"/>
      <point x="226" y="294" type="line"/>
      <point x="94" y="500" type="line"/>
      <point x="28" y="500" type="line"/>
    </contour>
  </outline>
</glyph>
<glyph name="y" format="2">
  <advance width="481"/>
  <unicode hex="0079"/>
  <note>
y
</note>
  <anchor x="238" y="0" name="bottom"/>
  <anchor x="238" y="500" name="top"/>
  <outline>
    <contour>
      <point x="229" y="52" type="line"/>
      <point x="86" y="500" type="line"/>
      <point x="26" y="500" type="line"/>
      <point x="184" y="0" type="line"/>
      <point x="238" y="0" type="line"/>
      <point x="169" y="-230" type="line"/>
      <point x="229" y="-230" type="line"/>
      <point x="452" y="500" type="line"/>
      <point x="392" y="500" type="line"/>
      <point x="252" y="52" type="line"/>
    </contour>
  </outline>
</glyph>
<glyph name="z" format="2">
  <advance width="458"/>
  <unicode hex="007A"/>
  <note>
z
</note>
  <anchor x="226" y="0" name="bottom"/>
  <anchor x="226" y="250" name="center"/>
  <anchor x="226" y="500" name="top"/>
  <outline>
    <contour>
      <point x="414" y="500" type="line"/>
      <point x="45" y="500" type="line"/>
      <point x="45" y="447" type="line"/>
      <point x="345" y="447" type="line"/>
      <point x="345" y="429" type="line"/>
      <point x="43" y="73" type="line"/>
      <point x="43" y="0" type="line"/>
      <point x="415" y="0" type="line"/>
      <point x="415" y="53" type="line"/>
      <point x="112" y="53" type="line"/>
      <point x="112" y="71" type="line"/>
      <point x="414" y="427" type="line"/>
    </contour>
  </outline>
</glyph>
<glyph name="braceleft" format="2">
  <advance width="350"/>
  <unicode hex="007B"/>
  <note>
braceleft
</note>
  <outline>
    <contour>
      <point x="201" y="170" type="curve" smooth="yes"/>
      <point x="204" y="254"/>
      <point x="177" y="288"/>
      <point x="98" y="312" type="curve"/>
      <point x="177" y="336"/>
      <point x="201" y="368"/>
      <point x="201" y="454" type="curve" smooth="yes"/>
      <point x="201" y="487"/>
      <point x="194" y="543"/>
      <point x="194" y="576" type="curve" smooth="yes"/>
      <point x="194" y="653"/>
      <point x="218" y="697"/>
      <point x="319" y="702" type="curve"/>
      <point x="317" y="754" type="line"/>
      <point x="186" y="749"/>
      <point x="136" y="699"/>
      <point x="136" y="578" type="curve" smooth="yes"/>
      <point x="136" y="541"/>
      <point x="143" y="482"/>
      <point x="143" y="450" type="curve" smooth="yes"/>
      <point x="143" y="390"/>
      <point x="114" y="355"/>
      <point x="37" y="336" type="curve"/>
      <point x="37" y="287" type="line"/>
      <point x="113" y="265"/>
      <point x="143" y="232"/>
      <point x="143" y="172" type="curve" smooth="yes"/>
      <point x="143" y="143"/>
      <point x="136" y="86"/>
      <point x="136" y="47" type="curve" smooth="yes"/>
      <point x="136" y="-72"/>
      <point x="186" y="-124"/>
      <point x="317" y="-129" type="curve"/>
      <point x="319" y="-77" type="line"/>
      <point x="218" y="-72"/>
      <point x="194" y="-25"/>
      <point x="194" y="51" type="curve" smooth="yes"/>
      <point x="194" y="89"/>
      <point x="199" y="130"/>
    </contour>
  </outline>
</glyph>
<glyph name="bar" format="2">
  <advance width="237"/>
  <unicode hex="007C"/>
  <note>
bar
</note>
  <outline>
    <contour>
      <point x="148" y="730" type="line"/>
      <point x="89" y="730" type="line"/>
      <point x="89" y="-230" type="line"/>
      <point x="148" y="-230" type="line"/>
    </contour>
  </outline>
</glyph>
<glyph name="braceright" format="2">
  <advance width="350"/>
  <unicode hex="007D"/>
  <note>
braceright
</note>
  <outline>
    <contour>
      <point x="149" y="170" type="curve" smooth="yes"/>
      <point x="151" y="130"/>
      <point x="156" y="89"/>
      <point x="156" y="51" type="curve" smooth="yes"/>
      <point x="156" y="-25"/>
      <point x="132" y="-72"/>
      <point x="31" y="-77" type="curve"/>
      <point x="33" y="-129" type="line"/>
      <point x="164" y="-124"/>
      <point x="214" y="-72"/>
      <point x="214" y="47" type="curve" smooth="yes"/>
      <point x="214" y="86"/>
      <point x="207" y="143"/>
      <point x="207" y="172" type="curve" smooth="yes"/>
      <point x="207" y="232"/>
      <point x="237" y="265"/>
      <point x="313" y="287" type="curve"/>
      <point x="313" y="336" type="line"/>
      <point x="236" y="355"/>
      <point x="207" y="390"/>
      <point x="207" y="450" type="curve" smooth="yes"/>
      <point x="207" y="482"/>
      <point x="214" y="541"/>
      <point x="214" y="578" type="curve" smooth="yes"/>
      <point x="214" y="699"/>
      <point x="164" y="749"/>
      <point x="33" y="754" type="curve"/>
      <point x="31" y="702" type="line"/>
      <point x="132" y="697"/>
      <point x="156" y="653"/>
      <point x="156" y="576" type="curve" smooth="yes"/>
      <point x="156" y="543"/>
      <point x="149" y="487"/>
      <point x="149" y="454" type="curve" smooth="yes"/>
      <point x="149" y="368"/>
      <point x="173" y="336"/>
      <point x="252" y="312" type="curve"/>
      <point x="173" y="288"/>
      <point x="146" y="254"/>
    </contour>
  </outline>
</glyph>
<glyph name="asciitilde" format="2">
  <advance width="560"/>
  <unicode hex="007E"/>
  <note>
asciitilde
</note>
  <outline>
    <contour>
      <point x="506" y="292" type="curve"/>
      <point x="482" y="329" type="line"/>
      <point x="482" y="329"/>
      <point x="416" y="281"/>
      <point x="380" y="281" type="curve" smooth="yes"/>
      <point x="335" y="281"/>
      <point x="237" y="346"/>
      <point x="181" y="346" type="curve" smooth="yes"/>
      <point x="129" y="346"/>
      <point x="53" y="280"/>
      <point x="53" y="280" type="curve"/>
      <point x="78" y="243" type="line"/>
      <point x="78" y="243"/>
      <point x="142" y="292"/>
      <point x="181" y="292" type="curve" smooth="yes"/>
      <point x="224" y="292"/>
      <point x="323" y="225"/>
      <point x="380" y="225" type="curve" smooth="yes"/>
      <point x="432" y="225"/>
      <point x="506" y="292"/>
    </contour>
  </outline>
</glyph>
<glyph name="exclamdown" format="2">
  <advance width="212"/>
  <unicode hex="00A1"/>
  <note>
exclamdown
</note>
  <outline>
    <contour>
      <point x="73" y="500" type="line"/>
      <point x="73" y="402" type="line"/>
      <point x="139" y="402" type="line"/>
      <point x="139" y="500" type="line"/>
    </contour>
    <contour>
      <point x="79" y="277" type="line"/>
      <point x="76" y="-200" type="line"/>
      <point x="137" y="-200" type="line"/>
      <point x="134" y="277" type="line"/>
    </contour>
  </outline>
</glyph>
<glyph name="cent" format="2">
  <advance width="452"/>
  <unicode hex="00A2"/>
  <note>
cent
</note>
  <outline>
    <contour>
      <point x="232" y="78" type="curve"/>
      <point x="232" y="-38" type="line"/>
      <point x="285" y="-38" type="line"/>
      <point x="285" y="80" type="line"/>
      <point x="328" y="81"/>
      <point x="393" y="90"/>
      <point x="393" y="90" type="curve"/>
      <point x="391" y="141" type="line"/>
      <point x="391" y="141"/>
      <point x="317" y="133"/>
      <point x="264" y="133" type="curve" smooth="yes"/>
      <point x="151" y="133"/>
      <point x="119" y="170"/>
      <point x="119" y="288" type="curve" smooth="yes"/>
      <point x="119" y="404"/>
      <point x="154" y="448"/>
      <point x="257" y="448" type="curve" smooth="yes"/>
      <point x="310" y="448"/>
      <point x="389" y="440"/>
      <point x="389" y="440" type="curve"/>
      <point x="392" y="490" type="line"/>
      <point x="392" y="490"/>
      <point x="329" y="501"/>
      <point x="285" y="502" type="curve"/>
      <point x="285" y="623" type="line"/>
      <point x="232" y="623" type="line"/>
      <point x="232" y="504" type="line"/>
      <point x="112" y="499"/>
      <point x="56" y="437"/>
      <point x="56" y="288" type="curve" smooth="yes"/>
      <point x="56" y="129"/>
      <point x="112" y="84"/>
    </contour>
  </outline>
</glyph>
<glyph name="sterling" format="2">
  <advance width="476"/>
  <unicode hex="00A3"/>
  <note>
sterling
</note>
  <outline>
    <contour>
      <point x="400" y="605" type="curve"/>
      <point x="400" y="655" type="line"/>
      <point x="400" y="655"/>
      <point x="320" y="670"/>
      <point x="272" y="670" type="curve" smooth="yes"/>
      <point x="170" y="670"/>
      <point x="129" y="633"/>
      <point x="129" y="467" type="curve" smooth="yes"/>
      <point x="129" y="413" type="line"/>
      <point x="61" y="413" type="line"/>
      <point x="61" y="361" type="line"/>
      <point x="129" y="361" type="line"/>
      <point x="129" y="54" type="line"/>
      <point x="41" y="54" type="line"/>
      <point x="41" y="0" type="line"/>
      <point x="356" y="0" type="line"/>
      <point x="438" y="18" type="line"/>
      <point x="428" y="70" type="line"/>
      <point x="349" y="54" type="line"/>
      <point x="187" y="54" type="line"/>
      <point x="187" y="361" type="line"/>
      <point x="362" y="361" type="line"/>
      <point x="362" y="413" type="line"/>
      <point x="187" y="413" type="line"/>
      <point x="187" y="462" type="line" smooth="yes"/>
      <point x="187" y="586"/>
      <point x="206" y="617"/>
      <point x="277" y="617" type="curve" smooth="yes"/>
      <point x="317" y="617"/>
      <point x="400" y="605"/>
    </contour>
  </outline>
</glyph>
<glyph name="currency" format="2">
  <advance width="543"/>
  <unicode hex="00A4"/>
  <note>
currency
</note>
  <outline>
    <contour>
      <point x="374" y="144" type="curve"/>
      <point x="444" y="73" type="line"/>
      <point x="486" y="116" type="line"/>
      <point x="415" y="186" type="line"/>
      <point x="436" y="214"/>
      <point x="448" y="249"/>
      <point x="448" y="288" type="curve" smooth="yes"/>
      <point x="448" y="326"/>
      <point x="436" y="361"/>
      <point x="415" y="390" type="curve"/>
      <point x="486" y="460" type="line"/>
      <point x="444" y="503" type="line"/>
      <point x="374" y="432" type="line"/>
      <point x="345" y="452"/>
      <point x="309" y="465"/>
      <point x="271" y="465" type="curve" smooth="yes"/>
      <point x="233" y="465"/>
      <point x="198" y="452"/>
      <point x="169" y="432" type="curve"/>
      <point x="99" y="503" type="line"/>
      <point x="57" y="460" type="line"/>
      <point x="127" y="390" type="line"/>
      <point x="107" y="361"/>
      <point x="95" y="326"/>
      <point x="95" y="288" type="curve" smooth="yes"/>
      <point x="95" y="249"/>
      <point x="107" y="214"/>
      <point x="127" y="186" type="curve"/>
      <point x="57" y="116" type="line"/>
      <point x="99" y="73" type="line"/>
      <point x="169" y="144" type="line"/>
      <point x="198" y="123"/>
      <point x="233" y="111"/>
      <point x="271" y="111" type="curve" smooth="yes"/>
      <point x="309" y="111"/>
      <point x="345" y="123"/>
    </contour>
    <contour>
      <point x="149" y="288" type="curve" smooth="yes"/>
      <point x="149" y="355"/>
      <point x="205" y="410"/>
      <point x="271" y="410" type="curve" smooth="yes"/>
      <point x="338" y="410"/>
      <point x="394" y="355"/>
      <point x="394" y="288" type="curve" smooth="yes"/>
      <point x="394" y="221"/>
      <point x="338" y="166"/>
      <point x="271" y="166" type="curve" smooth="yes"/>
      <point x="205" y="166"/>
      <point x="149" y="221"/>
    </contour>
  </outline>
</glyph>
<glyph name="yen" format="2">
  <advance width="574"/>
  <unicode hex="00A5"/>
  <note>
yen
</note>
  <outline>
    <contour>
      <point x="256" y="0" type="line"/>
      <point x="318" y="0" type="line"/>
      <point x="318" y="133" type="line"/>
      <point x="485" y="133" type="line"/>
      <point x="485" y="184" type="line"/>
      <point x="318" y="184" type="line"/>
      <point x="318" y="268" type="line"/>
      <point x="485" y="268" type="line"/>
      <point x="485" y="320" type="line"/>
      <point x="345" y="320" type="line"/>
      <point x="541" y="660" type="line"/>
      <point x="474" y="660" type="line"/>
      <point x="287" y="332" type="line"/>
      <point x="100" y="660" type="line"/>
      <point x="33" y="660" type="line"/>
      <point x="229" y="320" type="line"/>
      <point x="88" y="320" type="line"/>
      <point x="88" y="268" type="line"/>
      <point x="256" y="268" type="line"/>
      <point x="256" y="184" type="line"/>
      <point x="88" y="184" type="line"/>
      <point x="88" y="133" type="line"/>
      <point x="256" y="133" type="line"/>
    </contour>
  </outline>
</glyph>
<glyph name="brokenbar" format="2">
  <advance width="237"/>
  <unicode hex="00A6"/>
  <note>
brokenbar
</note>
  <outline>
    <contour>
      <point x="148" y="730" type="line"/>
      <point x="90" y="730" type="line"/>
      <point x="90" y="360" type="line"/>
      <point x="148" y="360" type="line"/>
    </contour>
    <contour>
      <point x="90" y="140" type="line"/>
      <point x="90" y="-230" type="line"/>
      <point x="148" y="-230" type="line"/>
      <point x="148" y="140" type="line"/>
    </contour>
  </outline>
</glyph>
<glyph name="section" format="2">
  <advance width="489"/>
  <unicode hex="00A7"/>
  <note>
section
</note>
  <outline>
    <contour>
      <point x="410" y="644" type="curve"/>
      <point x="413" y="695" type="line"/>
      <point x="413" y="695"/>
      <point x="317" y="710"/>
      <point x="252" y="710" type="curve" smooth="yes"/>
      <point x="135" y="710"/>
      <point x="67" y="661"/>
      <point x="67" y="557" type="curve" smooth="yes"/>
      <point x="67" y="498"/>
      <point x="82" y="466"/>
      <point x="111" y="445" type="curve"/>
      <point x="103" y="439"/>
      <point x="54" y="385"/>
      <point x="54" y="321" type="curve" smooth="yes"/>
      <point x="54" y="223"/>
      <point x="113" y="193"/>
      <point x="225" y="174" type="curve" smooth="yes"/>
      <point x="323" y="158"/>
      <point x="370" y="149"/>
      <point x="370" y="77" type="curve" smooth="yes"/>
      <point x="370" y="3"/>
      <point x="324" y="-32"/>
      <point x="241" y="-32" type="curve" smooth="yes"/>
      <point x="186" y="-32"/>
      <point x="76" y="-18"/>
      <point x="76" y="-18" type="curve"/>
      <point x="71" y="-69" type="line"/>
      <point x="71" y="-69"/>
      <point x="181" y="-84"/>
      <point x="243" y="-84" type="curve" smooth="yes"/>
      <point x="364" y="-84"/>
      <point x="427" y="-30"/>
      <point x="427" y="80" type="curve" smooth="yes"/>
      <point x="427" y="131"/>
      <point x="415" y="157"/>
      <point x="391" y="177" type="curve"/>
      <point x="397" y="187"/>
      <point x="433" y="247"/>
      <point x="433" y="307" type="curve" smooth="yes"/>
      <point x="433" y="406"/>
      <point x="376" y="431"/>
      <point x="270" y="450" type="curve" smooth="yes"/>
      <point x="171" y="467"/>
      <point x="125" y="480"/>
      <point x="125" y="559" type="curve" smooth="yes"/>
      <point x="125" y="627"/>
      <point x="167" y="658"/>
      <point x="254" y="658" type="curve" smooth="yes"/>
      <point x="302" y="658"/>
      <point x="410" y="644"/>
    </contour>
    <contour>
      <point x="114" y="329" type="curve" smooth="yes"/>
      <point x="114" y="373"/>
      <point x="149" y="420"/>
      <point x="151" y="423" type="curve"/>
      <point x="177" y="412"/>
      <point x="211" y="406"/>
      <point x="249" y="400" type="curve" smooth="yes"/>
      <point x="328" y="385"/>
      <point x="373" y="371"/>
      <point x="373" y="300" type="curve" smooth="yes"/>
      <point x="373" y="252"/>
      <point x="348" y="204"/>
      <point x="346" y="201" type="curve"/>
      <point x="320" y="212"/>
      <point x="284" y="220"/>
      <point x="240" y="228" type="curve" smooth="yes"/>
      <point x="153" y="242"/>
      <point x="114" y="262"/>
    </contour>
  </outline>
</glyph>
<glyph name="dieresis" format="2">
  <advance width="354"/>
  <unicode hex="00A8"/>
  <note>
dieresis
</note>
  <outline>
    <contour>
      <point x="109" y="707" type="line"/>
      <point x="50" y="707" type="line"/>
      <point x="50" y="631" type="line"/>
      <point x="109" y="631" type="line"/>
    </contour>
    <contour>
      <point x="245" y="707" type="line"/>
      <point x="245" y="631" type="line"/>
      <point x="304" y="631" type="line"/>
      <point x="304" y="707" type="line"/>
    </contour>
  </outline>
</glyph>
<glyph name="copyright" format="2">
  <advance width="634"/>
  <unicode hex="00A9"/>
  <note>
copyright
</note>
  <outline>
    <contour>
      <point x="317" y="701" type="curve" smooth="yes"/>
      <point x="444" y="701"/>
      <point x="537" y="597"/>
      <point x="537" y="470" type="curve" smooth="yes"/>
      <point x="537" y="343"/>
      <point x="444" y="239"/>
      <point x="317" y="239" type="curve" smooth="yes"/>
      <point x="190" y="239"/>
      <point x="98" y="343"/>
      <point x="98" y="470" type="curve" smooth="yes"/>
      <point x="98" y="597"/>
      <point x="190" y="701"/>
    </contour>
    <contour>
      <point x="57" y="470" type="curve" smooth="yes"/>
      <point x="57" y="319"/>
      <point x="168" y="200"/>
      <point x="317" y="200" type="curve" smooth="yes"/>
      <point x="467" y="200"/>
      <point x="578" y="319"/>
      <point x="578" y="470" type="curve" smooth="yes"/>
      <point x="578" y="620"/>
      <point x="467" y="740"/>
      <point x="317" y="740" type="curve" smooth="yes"/>
      <point x="167" y="740"/>
      <point x="57" y="620"/>
    </contour>
    <contour>
      <point x="205" y="472" type="curve" smooth="yes"/>
      <point x="205" y="378"/>
      <point x="231" y="324"/>
      <point x="319" y="324" type="curve" smooth="yes"/>
      <point x="356" y="324"/>
      <point x="395" y="334"/>
      <point x="395" y="334" type="curve"/>
      <point x="392" y="379" type="line"/>
      <point x="392" y="379"/>
      <point x="350" y="371"/>
      <point x="321" y="371" type="curve" smooth="yes"/>
      <point x="266" y="371"/>
      <point x="255" y="410"/>
      <point x="255" y="472" type="curve" smooth="yes"/>
      <point x="255" y="534"/>
      <point x="262" y="572"/>
      <point x="321" y="572" type="curve" smooth="yes"/>
      <point x="353" y="572"/>
      <point x="392" y="565"/>
      <point x="392" y="565" type="curve"/>
      <point x="395" y="610" type="line"/>
      <point x="395" y="610"/>
      <point x="360" y="619"/>
      <point x="319" y="619" type="curve" smooth="yes"/>
      <point x="229" y="619"/>
      <point x="205" y="563"/>
    </contour>
  </outline>
</glyph>
<glyph name="ordfeminine" format="2">
  <advance width="400"/>
  <unicode hex="00AA"/>
  <note>
ordfeminine
</note>
  <outline>
    <contour>
      <point x="301" y="482" type="curve"/>
      <point x="301" y="618" type="line" smooth="yes"/>
      <point x="301" y="689"/>
      <point x="268" y="712"/>
      <point x="202" y="712" type="curve" smooth="yes"/>
      <point x="156" y="712"/>
      <point x="87" y="700"/>
      <point x="87" y="700" type="curve"/>
      <point x="89" y="660" type="line"/>
      <point x="89" y="660"/>
      <point x="163" y="667"/>
      <point x="200" y="667" type="curve" smooth="yes"/>
      <point x="234" y="667"/>
      <point x="250" y="655"/>
      <point x="250" y="620" type="curve" smooth="yes"/>
      <point x="250" y="598" type="line"/>
      <point x="156" y="591" type="line" smooth="yes"/>
      <point x="97" y="587"/>
      <point x="69" y="561"/>
      <point x="69" y="509" type="curve" smooth="yes"/>
      <point x="69" y="456"/>
      <point x="100" y="422"/>
      <point x="148" y="422" type="curve" smooth="yes"/>
      <point x="202" y="422"/>
      <point x="260" y="446"/>
      <point x="260" y="446" type="curve"/>
      <point x="276" y="430"/>
      <point x="290" y="422"/>
      <point x="333" y="422" type="curve"/>
      <point x="333" y="463" type="line"/>
      <point x="321" y="466"/>
      <point x="308" y="471"/>
    </contour>
    <contour>
      <point x="78" y="361" type="line"/>
      <point x="78" y="313" type="line"/>
      <point x="329" y="313" type="line"/>
      <point x="329" y="361" type="line"/>
    </contour>
    <contour>
      <point x="122" y="509" type="curve" smooth="yes"/>
      <point x="122" y="538"/>
      <point x="134" y="551"/>
      <point x="165" y="553" type="curve" smooth="yes"/>
      <point x="250" y="558" type="line"/>
      <point x="250" y="484" type="line"/>
      <point x="250" y="484"/>
      <point x="198" y="467"/>
      <point x="159" y="467" type="curve" smooth="yes"/>
      <point x="136" y="467"/>
      <point x="122" y="480"/>
    </contour>
  </outline>
</glyph>
<glyph name="guillemotleft" format="2">
  <advance width="499"/>
  <unicode hex="00AB"/>
  <note>
guillemotleft
</note>
  <outline>
    <contour>
      <point x="277" y="135" type="line"/>
      <point x="101" y="287" type="line"/>
      <point x="277" y="439" type="line"/>
      <point x="247" y="481" type="line"/>
      <point x="51" y="313" type="line"/>
      <point x="51" y="262" type="line"/>
      <point x="247" y="93" type="line"/>
    </contour>
    <contour>
      <point x="219" y="313" type="line"/>
      <point x="219" y="263" type="line"/>
      <point x="412" y="97" type="line"/>
      <point x="441" y="138" type="line"/>
      <point x="268" y="287" type="line"/>
      <point x="441" y="436" type="line"/>
      <point x="412" y="478" type="line"/>
    </contour>
  </outline>
</glyph>
<glyph name="logicalnot" format="2">
  <advance width="560"/>
  <unicode hex="00AC"/>
  <note>
logicalnot
</note>
  <outline>
    <contour>
      <point x="491" y="124" type="line"/>
      <point x="491" y="342" type="line"/>
      <point x="66" y="342" type="line"/>
      <point x="66" y="287" type="line"/>
      <point x="434" y="287" type="line"/>
      <point x="434" y="124" type="line"/>
    </contour>
  </outline>
</glyph>
<glyph name="uni00AD" format="2">
  <advance width="0"/>
  <unicode hex="00AD"/>
  <note>
uni00AD
</note>
  <outline>
    <contour>
      <point x="153" y="315" type="line"/>
      <point x="-153" y="315" type="line"/>
      <point x="-153" y="259" type="line"/>
      <point x="153" y="259" type="line"/>
    </contour>
  </outline>
</glyph>
<glyph name="registered" format="2">
  <advance width="634"/>
  <unicode hex="00AE"/>
  <note>
registered
</note>
  <outline>
    <contour>
      <point x="265" y="432" type="line"/>
      <point x="326" y="432" type="line"/>
      <point x="380" y="329" type="line"/>
      <point x="432" y="329" type="line"/>
      <point x="373" y="438" type="line"/>
      <point x="415" y="453"/>
      <point x="428" y="483"/>
      <point x="428" y="523" type="curve" smooth="yes"/>
      <point x="428" y="594"/>
      <point x="389" y="614"/>
      <point x="315" y="614" type="curve" smooth="yes"/>
      <point x="217" y="614" type="line"/>
      <point x="217" y="329" type="line"/>
      <point x="265" y="329" type="line"/>
    </contour>
    <contour>
      <point x="57" y="470" type="curve" smooth="yes"/>
      <point x="57" y="319"/>
      <point x="168" y="200"/>
      <point x="317" y="200" type="curve" smooth="yes"/>
      <point x="467" y="200"/>
      <point x="578" y="319"/>
      <point x="578" y="470" type="curve" smooth="yes"/>
      <point x="578" y="620"/>
      <point x="467" y="740"/>
      <point x="317" y="740" type="curve" smooth="yes"/>
      <point x="167" y="740"/>
      <point x="57" y="620"/>
    </contour>
    <contour>
      <point x="98" y="470" type="curve" smooth="yes"/>
      <point x="98" y="597"/>
      <point x="190" y="701"/>
      <point x="317" y="701" type="curve" smooth="yes"/>
      <point x="444" y="701"/>
      <point x="537" y="597"/>
      <point x="537" y="470" type="curve" smooth="yes"/>
      <point x="537" y="343"/>
      <point x="444" y="239"/>
      <point x="317" y="239" type="curve" smooth="yes"/>
      <point x="190" y="239"/>
      <point x="98" y="343"/>
    </contour>
    <contour>
      <point x="326" y="473" type="curve" smooth="yes"/>
      <point x="264" y="473" type="line"/>
      <point x="264" y="573" type="line"/>
      <point x="312" y="573" type="line" smooth="yes"/>
      <point x="358" y="573"/>
      <point x="378" y="562"/>
      <point x="378" y="521" type="curve" smooth="yes"/>
      <point x="378" y="490"/>
      <point x="364" y="473"/>
    </contour>
  </outline>
</glyph>
<glyph name="macron" format="2">
  <advance width="372"/>
  <unicode hex="00AF"/>
  <note>
macron
</note>
  <outline>
    <contour>
      <point x="322" y="679" type="line"/>
      <point x="50" y="679" type="line"/>
      <point x="50" y="631" type="line"/>
      <point x="322" y="631" type="line"/>
    </contour>
  </outline>
</glyph>
<glyph name="degree" format="2">
  <advance width="399"/>
  <unicode hex="00B0"/>
  <note>
degree
</note>
  <outline>
    <contour>
      <point x="199" y="712" type="curve" smooth="yes"/>
      <point x="114" y="712"/>
      <point x="55" y="652"/>
      <point x="55" y="567" type="curve" smooth="yes"/>
      <point x="55" y="481"/>
      <point x="114" y="422"/>
      <point x="199" y="422" type="curve" smooth="yes"/>
      <point x="285" y="422"/>
      <point x="344" y="481"/>
      <point x="344" y="567" type="curve" smooth="yes"/>
      <point x="344" y="652"/>
      <point x="285" y="712"/>
    </contour>
    <contour>
      <point x="105" y="567" type="curve" smooth="yes"/>
      <point x="105" y="625"/>
      <point x="142" y="666"/>
      <point x="199" y="666" type="curve" smooth="yes"/>
      <point x="257" y="666"/>
      <point x="294" y="625"/>
      <point x="294" y="567" type="curve" smooth="yes"/>
      <point x="294" y="508"/>
      <point x="257" y="469"/>
      <point x="199" y="469" type="curve" smooth="yes"/>
      <point x="142" y="469"/>
      <point x="105" y="508"/>
    </contour>
  </outline>
</glyph>
<glyph name="plusminus" format="2">
  <advance width="560"/>
  <unicode hex="00B1"/>
  <note>
plusminus
</note>
  <outline>
    <contour>
      <point x="252" y="380" type="line"/>
      <point x="57" y="380" type="line"/>
      <point x="57" y="324" type="line"/>
      <point x="252" y="324" type="line"/>
      <point x="252" y="175" type="line"/>
      <point x="308" y="175" type="line"/>
      <point x="308" y="324" type="line"/>
      <point x="503" y="324" type="line"/>
      <point x="503" y="380" type="line"/>
      <point x="308" y="380" type="line"/>
      <point x="308" y="529" type="line"/>
      <point x="252" y="529" type="line"/>
    </contour>
    <contour>
      <point x="57" y="101" type="line"/>
      <point x="57" y="45" type="line"/>
      <point x="503" y="45" type="line"/>
      <point x="503" y="101" type="line"/>
    </contour>
  </outline>
</glyph>
<glyph name="uni00B2" format="2">
  <advance width="259"/>
  <unicode hex="00B2"/>
  <note>
uni00B2
</note>
  <outline>
    <contour>
      <point x="27" y="463" type="line"/>
      <point x="27" y="417" type="line"/>
      <point x="230" y="417" type="line"/>
      <point x="230" y="465" type="line"/>
      <point x="93" y="465" type="line"/>
      <point x="163" y="536" type="line" smooth="yes"/>
      <point x="205" y="578"/>
      <point x="225" y="605"/>
      <point x="225" y="652" type="curve" smooth="yes"/>
      <point x="225" y="712"/>
      <point x="194" y="740"/>
      <point x="129" y="740" type="curve" smooth="yes"/>
      <point x="85" y="740"/>
      <point x="30" y="728"/>
      <point x="30" y="728" type="curve"/>
      <point x="32" y="682" type="line"/>
      <point x="32" y="682"/>
      <point x="88" y="691"/>
      <point x="119" y="691" type="curve" smooth="yes"/>
      <point x="149" y="691"/>
      <point x="171" y="678"/>
      <point x="171" y="649" type="curve" smooth="yes"/>
      <point x="171" y="615"/>
      <point x="149" y="590"/>
      <point x="119" y="559" type="curve" smooth="yes"/>
    </contour>
  </outline>
</glyph>
<glyph name="uni00B3" format="2">
  <advance width="270"/>
  <unicode hex="00B3"/>
  <note>
uni00B3
</note>
  <outline>
    <contour>
      <point x="29" y="730" type="curve"/>
      <point x="33" y="684" type="line"/>
      <point x="33" y="684"/>
      <point x="82" y="692"/>
      <point x="127" y="692" type="curve" smooth="yes"/>
      <point x="163" y="692"/>
      <point x="177" y="679"/>
      <point x="177" y="653" type="curve" smooth="yes"/>
      <point x="177" y="624"/>
      <point x="153" y="602"/>
      <point x="134" y="602" type="curve" smooth="yes"/>
      <point x="69" y="602" type="line"/>
      <point x="69" y="557" type="line"/>
      <point x="134" y="557" type="line" smooth="yes"/>
      <point x="164" y="557"/>
      <point x="186" y="544"/>
      <point x="186" y="504" type="curve" smooth="yes"/>
      <point x="186" y="476"/>
      <point x="169" y="454"/>
      <point x="131" y="454" type="curve" smooth="yes"/>
      <point x="85" y="454"/>
      <point x="29" y="464"/>
      <point x="29" y="464" type="curve"/>
      <point x="25" y="418" type="line"/>
      <point x="25" y="418"/>
      <point x="87" y="406"/>
      <point x="136" y="406" type="curve" smooth="yes"/>
      <point x="201" y="406"/>
      <point x="239" y="438"/>
      <point x="239" y="503" type="curve" smooth="yes"/>
      <point x="239" y="558"/>
      <point x="221" y="574"/>
      <point x="189" y="584" type="curve"/>
      <point x="195" y="587"/>
      <point x="231" y="606"/>
      <point x="231" y="658" type="curve" smooth="yes"/>
      <point x="231" y="715"/>
      <point x="198" y="740"/>
      <point x="130" y="740" type="curve" smooth="yes"/>
      <point x="86" y="740"/>
      <point x="29" y="730"/>
    </contour>
  </outline>
</glyph>
<glyph name="acute" format="2">
  <advance width="328"/>
  <unicode hex="00B4"/>
  <note>
acute
</note>
  <outline>
    <contour>
      <point x="256" y="737" type="line"/>
      <point x="50" y="640" type="line"/>
      <point x="68" y="598" type="line"/>
      <point x="278" y="686" type="line"/>
    </contour>
  </outline>
</glyph>
<glyph name="uni00B5" format="2">
  <advance width="547"/>
  <unicode hex="00B5"/>
  <note>
uni00B5
</note>
  <outline>
    <contour>
      <point x="464" y="0" type="line"/>
      <point x="464" y="500" type="line"/>
      <point x="404" y="500" type="line"/>
      <point x="404" y="86" type="line"/>
      <point x="404" y="86"/>
      <point x="343" y="43"/>
      <point x="260" y="43" type="curve" smooth="yes"/>
      <point x="163" y="43"/>
      <point x="143" y="90"/>
      <point x="143" y="195" type="curve" smooth="yes"/>
      <point x="143" y="500" type="line"/>
      <point x="83" y="500" type="line"/>
      <point x="83" y="-230" type="line"/>
      <point x="141" y="-230" type="line"/>
      <point x="141" y="30" type="line"/>
      <point x="163" y="4"/>
      <point x="204" y="-10"/>
      <point x="248" y="-10" type="curve" smooth="yes"/>
      <point x="331" y="-10"/>
      <point x="404" y="37"/>
      <point x="404" y="37" type="curve"/>
      <point x="404" y="0" type="line"/>
    </contour>
  </outline>
</glyph>
<glyph name="paragraph" format="2">
  <advance width="579"/>
  <unicode hex="00B6"/>
  <note>
paragraph
</note>
  <outline>
    <contour>
      <point x="287" y="646" type="line"/>
      <point x="408" y="646" type="line"/>
      <point x="408" y="0" type="line"/>
      <point x="466" y="0" type="line"/>
      <point x="466" y="646" type="line"/>
      <point x="548" y="646" type="line"/>
      <point x="548" y="700" type="line"/>
      <point x="222" y="700" type="line" smooth="yes"/>
      <point x="113" y="700"/>
      <point x="31" y="626"/>
      <point x="31" y="519" type="curve" smooth="yes"/>
      <point x="31" y="411"/>
      <point x="112" y="339"/>
      <point x="222" y="339" type="curve" smooth="yes"/>
      <point x="229" y="339" type="line"/>
      <point x="229" y="0" type="line"/>
      <point x="287" y="0" type="line"/>
    </contour>
  </outline>
</glyph>
<glyph name="periodcentered" format="2">
  <advance width="204"/>
  <unicode hex="00B7"/>
  <note>
periodcentered
</note>
  <outline>
    <contour>
      <point x="135" y="337" type="line"/>
      <point x="69" y="337" type="line"/>
      <point x="69" y="236" type="line"/>
      <point x="135" y="236" type="line"/>
    </contour>
  </outline>
</glyph>
<glyph name="cedilla" format="2">
  <advance width="275"/>
  <unicode hex="00B8"/>
  <note>
cedilla
</note>
  <outline>
    <contour>
      <point x="227" y="-127" type="curve" smooth="yes"/>
      <point x="227" y="-66"/>
      <point x="192" y="-52"/>
      <point x="127" y="-52" type="curve"/>
      <point x="137" y="1" type="line"/>
      <point x="99" y="1" type="line"/>
      <point x="83" y="-90" type="line"/>
      <point x="129" y="-90" type="line" smooth="yes"/>
      <point x="156" y="-90"/>
      <point x="173" y="-100"/>
      <point x="173" y="-127" type="curve" smooth="yes"/>
      <point x="173" y="-158"/>
      <point x="156" y="-168"/>
      <point x="128" y="-168" type="curve" smooth="yes"/>
      <point x="98" y="-168"/>
      <point x="55" y="-165"/>
      <point x="55" y="-165" type="curve"/>
      <point x="52" y="-205" type="line"/>
      <point x="52" y="-205"/>
      <point x="94" y="-211"/>
      <point x="138" y="-211" type="curve" smooth="yes"/>
      <point x="191" y="-211"/>
      <point x="227" y="-186"/>
    </contour>
  </outline>
</glyph>
<glyph name="uni00B9" format="2">
  <advance width="204"/>
  <unicode hex="00B9"/>
  <note>
uni00B9
</note>
  <outline>
    <contour>
      <point x="160" y="731" type="line"/>
      <point x="110" y="731" type="line"/>
      <point x="10" y="663" type="line"/>
      <point x="34" y="623" type="line"/>
      <point x="107" y="674" type="line"/>
      <point x="107" y="417" type="line"/>
      <point x="160" y="417" type="line"/>
    </contour>
  </outline>
</glyph>
<glyph name="ordmasculine" format="2">
  <advance width="397"/>
  <unicode hex="00BA"/>
  <note>
ordmasculine
</note>
  <outline>
    <contour>
      <point x="200" y="712" type="curve" smooth="yes"/>
      <point x="115" y="712"/>
      <point x="71" y="669"/>
      <point x="71" y="569" type="curve" smooth="yes"/>
      <point x="71" y="469"/>
      <point x="115" y="422"/>
      <point x="200" y="422" type="curve" smooth="yes"/>
      <point x="284" y="422"/>
      <point x="326" y="469"/>
      <point x="326" y="569" type="curve" smooth="yes"/>
      <point x="326" y="669"/>
      <point x="284" y="712"/>
    </contour>
    <contour>
      <point x="81" y="361" type="line"/>
      <point x="81" y="313" type="line"/>
      <point x="316" y="313" type="line"/>
      <point x="316" y="361" type="line"/>
    </contour>
    <contour>
      <point x="126" y="569" type="curve" smooth="yes"/>
      <point x="126" y="638"/>
      <point x="146" y="663"/>
      <point x="200" y="663" type="curve" smooth="yes"/>
      <point x="252" y="663"/>
      <point x="271" y="638"/>
      <point x="271" y="569" type="curve" smooth="yes"/>
      <point x="271" y="500"/>
      <point x="252" y="471"/>
      <point x="200" y="471" type="curve" smooth="yes"/>
      <point x="146" y="471"/>
      <point x="126" y="500"/>
    </contour>
  </outline>
</glyph>
<glyph name="guillemotright" format="2">
  <advance width="499"/>
  <unicode hex="00BB"/>
  <note>
guillemotright
</note>
  <outline>
    <contour>
      <point x="222" y="439" type="line"/>
      <point x="398" y="287" type="line"/>
      <point x="222" y="135" type="line"/>
      <point x="252" y="93" type="line"/>
      <point x="448" y="262" type="line"/>
      <point x="448" y="313" type="line"/>
      <point x="252" y="481" type="line"/>
    </contour>
    <contour>
      <point x="230" y="287" type="line"/>
      <point x="58" y="138" type="line"/>
      <point x="87" y="97" type="line"/>
      <point x="279" y="263" type="line"/>
      <point x="279" y="313" type="line"/>
      <point x="87" y="478" type="line"/>
      <point x="58" y="436" type="line"/>
    </contour>
  </outline>
</glyph>
<glyph name="onequarter" format="2">
  <advance width="588"/>
  <unicode hex="00BC"/>
  <note>
onequarter
</note>
  <outline>
    <contour>
      <point x="187" y="701" type="line"/>
      <point x="137" y="701" type="line"/>
      <point x="37" y="633" type="line"/>
      <point x="61" y="593" type="line"/>
      <point x="134" y="644" type="line"/>
      <point x="134" y="387" type="line"/>
      <point x="187" y="387" type="line"/>
    </contour>
    <contour>
      <point x="473" y="710" type="line"/>
      <point x="42" y="13" type="line"/>
      <point x="77" y="-10" type="line"/>
      <point x="509" y="687" type="line"/>
    </contour>
    <contour>
      <point x="328" y="98" type="line"/>
      <point x="328" y="53" type="line"/>
      <point x="471" y="53" type="line"/>
      <point x="471" y="0" type="line"/>
      <point x="524" y="0" type="line"/>
      <point x="524" y="53" type="line"/>
      <point x="555" y="53" type="line"/>
      <point x="555" y="101" type="line"/>
      <point x="524" y="101" type="line"/>
      <point x="524" y="191" type="line"/>
      <point x="474" y="191" type="line"/>
      <point x="471" y="101" type="line"/>
      <point x="384" y="101" type="line"/>
      <point x="463" y="314" type="line"/>
      <point x="405" y="314" type="line"/>
    </contour>
  </outline>
</glyph>
<glyph name="onehalf" format="2">
  <advance width="585"/>
  <unicode hex="00BD"/>
  <note>
onehalf
</note>
  <outline>
    <contour>
      <point x="187" y="701" type="line"/>
      <point x="137" y="701" type="line"/>
      <point x="37" y="633" type="line"/>
      <point x="61" y="593" type="line"/>
      <point x="134" y="644" type="line"/>
      <point x="134" y="387" type="line"/>
      <point x="187" y="387" type="line"/>
    </contour>
    <contour>
      <point x="473" y="710" type="line"/>
      <point x="42" y="13" type="line"/>
      <point x="77" y="-10" type="line"/>
      <point x="509" y="687" type="line"/>
    </contour>
    <contour>
      <point x="334" y="46" type="line"/>
      <point x="334" y="0" type="line"/>
      <point x="537" y="0" type="line"/>
      <point x="537" y="48" type="line"/>
      <point x="400" y="48" type="line"/>
      <point x="470" y="119" type="line" smooth="yes"/>
      <point x="512" y="161"/>
      <point x="532" y="188"/>
      <point x="532" y="235" type="curve" smooth="yes"/>
      <point x="532" y="295"/>
      <point x="501" y="323"/>
      <point x="436" y="323" type="curve" smooth="yes"/>
      <point x="392" y="323"/>
      <point x="337" y="311"/>
      <point x="337" y="311" type="curve"/>
      <point x="339" y="265" type="line"/>
      <point x="339" y="265"/>
      <point x="395" y="274"/>
      <point x="426" y="274" type="curve" smooth="yes"/>
      <point x="456" y="274"/>
      <point x="478" y="261"/>
      <point x="478" y="232" type="curve" smooth="yes"/>
      <point x="478" y="198"/>
      <point x="456" y="173"/>
      <point x="426" y="142" type="curve" smooth="yes"/>
    </contour>
  </outline>
</glyph>
<glyph name="threequarters" format="2">
  <advance width="634"/>
  <unicode hex="00BE"/>
  <note>
threequarters
</note>
  <outline>
    <contour>
      <point x="52" y="700" type="curve"/>
      <point x="56" y="654" type="line"/>
      <point x="56" y="654"/>
      <point x="105" y="662"/>
      <point x="150" y="662" type="curve" smooth="yes"/>
      <point x="186" y="662"/>
      <point x="200" y="649"/>
      <point x="200" y="623" type="curve" smooth="yes"/>
      <point x="200" y="594"/>
      <point x="176" y="572"/>
      <point x="157" y="572" type="curve" smooth="yes"/>
      <point x="92" y="572" type="line"/>
      <point x="92" y="527" type="line"/>
      <point x="157" y="527" type="line" smooth="yes"/>
      <point x="187" y="527"/>
      <point x="209" y="514"/>
      <point x="209" y="474" type="curve" smooth="yes"/>
      <point x="209" y="446"/>
      <point x="192" y="424"/>
      <point x="154" y="424" type="curve" smooth="yes"/>
      <point x="108" y="424"/>
      <point x="52" y="434"/>
      <point x="52" y="434" type="curve"/>
      <point x="48" y="388" type="line"/>
      <point x="48" y="388"/>
      <point x="110" y="376"/>
      <point x="159" y="376" type="curve" smooth="yes"/>
      <point x="224" y="376"/>
      <point x="262" y="408"/>
      <point x="262" y="473" type="curve" smooth="yes"/>
      <point x="262" y="528"/>
      <point x="244" y="544"/>
      <point x="212" y="554" type="curve"/>
      <point x="218" y="557"/>
      <point x="254" y="576"/>
      <point x="254" y="628" type="curve" smooth="yes"/>
      <point x="254" y="685"/>
      <point x="221" y="710"/>
      <point x="153" y="710" type="curve" smooth="yes"/>
      <point x="109" y="710"/>
      <point x="52" y="700"/>
    </contour>
    <contour>
      <point x="518" y="710" type="line"/>
      <point x="87" y="13" type="line"/>
      <point x="122" y="-10" type="line"/>
      <point x="554" y="687" type="line"/>
    </contour>
    <contour>
      <point x="373" y="98" type="line"/>
      <point x="373" y="53" type="line"/>
      <point x="516" y="53" type="line"/>
      <point x="516" y="0" type="line"/>
      <point x="569" y="0" type="line"/>
      <point x="569" y="53" type="line"/>
      <point x="600" y="53" type="line"/>
      <point x="600" y="101" type="line"/>
      <point x="569" y="101" type="line"/>
      <point x="569" y="191" type="line"/>
      <point x="519" y="191" type="line"/>
      <point x="516" y="101" type="line"/>
      <point x="429" y="101" type="line"/>
      <point x="508" y="314" type="line"/>
      <point x="450" y="314" type="line"/>
    </contour>
  </outline>
</glyph>
<glyph name="questiondown" format="2">
  <advance width="424"/>
  <unicode hex="00BF"/>
  <note>
questiondown
</note>
  <outline>
    <contour>
      <point x="33" y="-43" type="curve" smooth="yes"/>
      <point x="33" y="-171"/>
      <point x="113" y="-210"/>
      <point x="231" y="-210" type="curve" smooth="yes"/>
      <point x="332" y="-210"/>
      <point x="401" y="-181"/>
      <point x="401" y="-181" type="curve"/>
      <point x="396" y="-131" type="line"/>
      <point x="396" y="-131"/>
      <point x="320" y="-156"/>
      <point x="235" y="-156" type="curve" smooth="yes"/>
      <point x="156" y="-156"/>
      <point x="93" y="-135"/>
      <point x="93" y="-44" type="curve" smooth="yes"/>
      <point x="93" y="6"/>
      <point x="112" y="39"/>
      <point x="183" y="101" type="curve" smooth="yes"/>
      <point x="236" y="147"/>
      <point x="282" y="190"/>
      <point x="282" y="245" type="curve" smooth="yes"/>
      <point x="282" y="273"/>
      <point x="273" y="298"/>
      <point x="273" y="298" type="curve"/>
      <point x="222" y="298" type="line"/>
      <point x="222" y="262" type="line" smooth="yes"/>
      <point x="222" y="213"/>
      <point x="185" y="178"/>
      <point x="129" y="131" type="curve" smooth="yes"/>
      <point x="49" y="62"/>
      <point x="33" y="17"/>
    </contour>
    <contour>
      <point x="213" y="500" type="line"/>
      <point x="213" y="402" type="line"/>
      <point x="278" y="402" type="line"/>
      <point x="278" y="500" type="line"/>
    </contour>
  </outline>
</glyph>
<glyph name="Agrave" format="2">
  <advance width="597"/>
  <unicode hex="00C0"/>
  <note>
Agrave
</note>
  <anchor x="297" y="0" name="bottom"/>
  <anchor x="572" y="0" name="ogonek"/>
  <anchor x="297" y="917" name="top"/>
  <outline>
    <contour>
      <point x="282" y="642" type="line"/>
      <point x="312" y="642" type="line"/>
      <point x="432" y="253" type="line"/>
      <point x="162" y="253" type="line"/>
    </contour>
    <contour>
      <point x="241" y="700" type="line"/>
      <point x="25" y="0" type="line"/>
      <point x="84" y="0" type="line"/>
      <point x="145" y="198" type="line"/>
      <point x="448" y="198" type="line"/>
      <point x="509" y="0" type="line"/>
      <point x="572" y="0" type="line"/>
      <point x="356" y="700" type="line"/>
    </contour>
    <contour>
      <point x="205" y="917" type="line"/>
      <point x="183" y="866" type="line"/>
      <point x="393" y="778" type="line"/>
      <point x="411" y="820" type="line"/>
    </contour>
  </outline>
</glyph>
<glyph name="Acircumflex" format="2">
  <advance width="597"/>
  <unicode hex="00C2"/>
  <note>
Acircumflex
</note>
  <anchor x="297" y="0" name="bottom"/>
  <anchor x="572" y="0" name="ogonek"/>
  <anchor x="297" y="912" name="top"/>
  <outline>
    <contour>
      <point x="282" y="642" type="line"/>
      <point x="312" y="642" type="line"/>
      <point x="432" y="253" type="line"/>
      <point x="162" y="253" type="line"/>
    </contour>
    <contour>
      <point x="241" y="700" type="line"/>
      <point x="25" y="0" type="line"/>
      <point x="84" y="0" type="line"/>
      <point x="145" y="198" type="line"/>
      <point x="448" y="198" type="line"/>
      <point x="509" y="0" type="line"/>
      <point x="572" y="0" type="line"/>
      <point x="356" y="700" type="line"/>
    </contour>
    <contour>
      <point x="268" y="912" type="line"/>
      <point x="152" y="783" type="line"/>
      <point x="215" y="783" type="line"/>
      <point x="297" y="869" type="line"/>
      <point x="379" y="783" type="line"/>
      <point x="441" y="783" type="line"/>
      <point x="325" y="912" type="line"/>
    </contour>
  </outline>
</glyph>
<glyph name="Atilde" format="2">
  <advance width="597"/>
  <unicode hex="00C3"/>
  <note>
Atilde
</note>
  <anchor x="297" y="0" name="bottom"/>
  <anchor x="572" y="0" name="ogonek"/>
  <anchor x="297" y="897" name="top"/>
  <outline>
    <contour>
      <point x="282" y="642" type="line"/>
      <point x="312" y="642" type="line"/>
      <point x="432" y="253" type="line"/>
      <point x="162" y="253" type="line"/>
    </contour>
    <contour>
      <point x="241" y="700" type="line"/>
      <point x="25" y="0" type="line"/>
      <point x="84" y="0" type="line"/>
      <point x="145" y="198" type="line"/>
      <point x="448" y="198" type="line"/>
      <point x="509" y="0" type="line"/>
      <point x="572" y="0" type="line"/>
      <point x="356" y="700" type="line"/>
    </contour>
    <contour>
      <point x="132" y="839" type="curve"/>
      <point x="157" y="807" type="line"/>
      <point x="157" y="807"/>
      <point x="206" y="849"/>
      <point x="229" y="849" type="curve" smooth="yes"/>
      <point x="261" y="849"/>
      <point x="331" y="799"/>
      <point x="371" y="799" type="curve" smooth="yes"/>
      <point x="407" y="799"/>
      <point x="457" y="850"/>
      <point x="463" y="856" type="curve"/>
      <point x="438" y="888" type="line"/>
      <point x="438" y="888"/>
      <point x="391" y="849"/>
      <point x="372" y="849" type="curve" smooth="yes"/>
      <point x="341" y="849"/>
      <point x="269" y="897"/>
      <point x="229" y="897" type="curve" smooth="yes"/>
      <point x="192" y="897"/>
      <point x="132" y="839"/>
    </contour>
  </outline>
</glyph>
<glyph name="Adieresis" format="2">
  <advance width="597"/>
  <unicode hex="00C4"/>
  <note>
Adieresis
</note>
  <anchor x="297" y="0" name="bottom"/>
  <anchor x="572" y="0" name="ogonek"/>
  <anchor x="297" y="887" name="top"/>
  <outline>
    <contour>
      <point x="282" y="642" type="line"/>
      <point x="312" y="642" type="line"/>
      <point x="432" y="253" type="line"/>
      <point x="162" y="253" type="line"/>
    </contour>
    <contour>
      <point x="241" y="700" type="line"/>
      <point x="25" y="0" type="line"/>
      <point x="84" y="0" type="line"/>
      <point x="145" y="198" type="line"/>
      <point x="448" y="198" type="line"/>
      <point x="509" y="0" type="line"/>
      <point x="572" y="0" type="line"/>
      <point x="356" y="700" type="line"/>
    </contour>
    <contour>
      <point x="169" y="887" type="line"/>
      <point x="169" y="811" type="line"/>
      <point x="229" y="811" type="line"/>
      <point x="229" y="887" type="line"/>
    </contour>
    <contour>
      <point x="363" y="887" type="line"/>
      <point x="363" y="811" type="line"/>
      <point x="423" y="811" type="line"/>
      <point x="423" y="887" type="line"/>
    </contour>
  </outline>
</glyph>
<glyph name="Aring" format="2">
  <advance width="597"/>
  <unicode hex="00C5"/>
  <note>
Aring
</note>
  <anchor x="297" y="0" name="bottom"/>
  <anchor x="572" y="0" name="ogonek"/>
  <anchor x="297" y="947" name="top"/>
  <outline>
    <contour>
      <point x="282" y="642" type="line"/>
      <point x="312" y="642" type="line"/>
      <point x="432" y="253" type="line"/>
      <point x="162" y="253" type="line"/>
    </contour>
    <contour>
      <point x="241" y="700" type="line"/>
      <point x="25" y="0" type="line"/>
      <point x="84" y="0" type="line"/>
      <point x="145" y="198" type="line"/>
      <point x="448" y="198" type="line"/>
      <point x="509" y="0" type="line"/>
      <point x="572" y="0" type="line"/>
      <point x="356" y="700" type="line"/>
    </contour>
    <contour>
      <point x="195" y="849" type="curve" smooth="yes"/>
      <point x="195" y="792"/>
      <point x="240" y="749"/>
      <point x="297" y="749" type="curve" smooth="yes"/>
      <point x="353" y="749"/>
      <point x="398" y="792"/>
      <point x="398" y="849" type="curve" smooth="yes"/>
      <point x="398" y="905"/>
      <point x="353" y="948"/>
      <point x="297" y="948" type="curve" smooth="yes"/>
      <point x="240" y="948"/>
      <point x="195" y="905"/>
    </contour>
    <contour>
      <point x="241" y="849" type="curve" smooth="yes"/>
      <point x="241" y="882"/>
      <point x="266" y="906"/>
      <point x="297" y="906" type="curve" smooth="yes"/>
      <point x="328" y="906"/>
      <point x="353" y="882"/>
      <point x="353" y="849" type="curve" smooth="yes"/>
      <point x="353" y="815"/>
      <point x="328" y="791"/>
      <point x="297" y="791" type="curve" smooth="yes"/>
      <point x="266" y="791"/>
      <point x="241" y="815"/>
    </contour>
  </outline>
</glyph>
<glyph name="Ccedilla" format="2">
  <advance width="539"/>
  <unicode hex="00C7"/>
  <note>
Ccedilla
</note>
  <anchor x="341" y="-211" name="bottom"/>
  <anchor x="326" y="700" name="top"/>
  <outline>
    <contour>
      <point x="503" y="10" type="curve"/>
      <point x="500" y="63" type="line"/>
      <point x="450" y="54"/>
      <point x="376" y="44"/>
      <point x="321" y="44" type="curve" smooth="yes"/>
      <point x="148" y="44"/>
      <point x="124" y="153"/>
      <point x="124" y="350" type="curve" smooth="yes"/>
      <point x="124" y="555"/>
      <point x="150" y="657"/>
      <point x="315" y="657" type="curve" smooth="yes"/>
      <point x="374" y="657"/>
      <point x="454" y="644"/>
      <point x="498" y="635" type="curve"/>
      <point x="501" y="688" type="line"/>
      <point x="456" y="698"/>
      <point x="382" y="712"/>
      <point x="312" y="712" type="curve" smooth="yes"/>
      <point x="101" y="712"/>
      <point x="61" y="576"/>
      <point x="61" y="350" type="curve" smooth="yes"/>
      <point x="61" y="122"/>
      <point x="102" y="-3"/>
      <point x="297" y="-11" type="curve"/>
      <point x="283" y="-90" type="line"/>
      <point x="329" y="-90" type="line" smooth="yes"/>
      <point x="356" y="-90"/>
      <point x="373" y="-100"/>
      <point x="373" y="-127" type="curve" smooth="yes"/>
      <point x="373" y="-158"/>
      <point x="356" y="-168"/>
      <point x="328" y="-168" type="curve" smooth="yes"/>
      <point x="298" y="-168"/>
      <point x="255" y="-165"/>
      <point x="255" y="-165" type="curve"/>
      <point x="252" y="-205" type="line"/>
      <point x="252" y="-205"/>
      <point x="294" y="-211"/>
      <point x="338" y="-211" type="curve" smooth="yes"/>
      <point x="391" y="-211"/>
      <point x="427" y="-186"/>
      <point x="427" y="-127" type="curve" smooth="yes"/>
      <point x="427" y="-66"/>
      <point x="392" y="-52"/>
      <point x="327" y="-52" type="curve"/>
      <point x="335" y="-11" type="line"/>
      <point x="393" y="-9"/>
      <point x="458" y="0"/>
    </contour>
  </outline>
</glyph>
<glyph name="Egrave" format="2">
  <advance width="553"/>
  <unicode hex="00C8"/>
  <note>
Egrave
</note>
  <anchor x="300" y="0" name="bottom"/>
  <anchor x="463" y="0" name="ogonek"/>
  <anchor x="300" y="917" name="top"/>
  <outline>
    <contour>
      <point x="505" y="700" type="line"/>
      <point x="89" y="700" type="line"/>
      <point x="89" y="0" type="line"/>
      <point x="505" y="0" type="line"/>
      <point x="505" y="55" type="line"/>
      <point x="150" y="55" type="line"/>
      <point x="150" y="330" type="line"/>
      <point x="445" y="330" type="line"/>
      <point x="445" y="384" type="line"/>
      <point x="150" y="384" type="line"/>
      <point x="150" y="645" type="line"/>
      <point x="505" y="645" type="line"/>
    </contour>
    <contour>
      <point x="208" y="917" type="line"/>
      <point x="186" y="866" type="line"/>
      <point x="396" y="778" type="line"/>
      <point x="414" y="820" type="line"/>
    </contour>
  </outline>
</glyph>
<glyph name="Eacute" format="2">
  <advance width="553"/>
  <unicode hex="00C9"/>
  <note>
Eacute
</note>
  <anchor x="300" y="0" name="bottom"/>
  <anchor x="463" y="0" name="ogonek"/>
  <anchor x="300" y="917" name="top"/>
  <outline>
    <contour>
      <point x="505" y="700" type="line"/>
      <point x="89" y="700" type="line"/>
      <point x="89" y="0" type="line"/>
      <point x="505" y="0" type="line"/>
      <point x="505" y="55" type="line"/>
      <point x="150" y="55" type="line"/>
      <point x="150" y="330" type="line"/>
      <point x="445" y="330" type="line"/>
      <point x="445" y="384" type="line"/>
      <point x="150" y="384" type="line"/>
      <point x="150" y="645" type="line"/>
      <point x="505" y="645" type="line"/>
    </contour>
    <contour>
      <point x="392" y="917" type="line"/>
      <point x="186" y="820" type="line"/>
      <point x="204" y="778" type="line"/>
      <point x="414" y="866" type="line"/>
    </contour>
  </outline>
</glyph>
<glyph name="Edieresis" format="2">
  <advance width="553"/>
  <unicode hex="00CB"/>
  <note>
Edieresis
</note>
  <anchor x="300" y="0" name="bottom"/>
  <anchor x="463" y="0" name="ogonek"/>
  <anchor x="300" y="887" name="top"/>
  <outline>
    <contour>
      <point x="505" y="700" type="line"/>
      <point x="89" y="700" type="line"/>
      <point x="89" y="0" type="line"/>
      <point x="505" y="0" type="line"/>
      <point x="505" y="55" type="line"/>
      <point x="150" y="55" type="line"/>
      <point x="150" y="330" type="line"/>
      <point x="445" y="330" type="line"/>
      <point x="445" y="384" type="line"/>
      <point x="150" y="384" type="line"/>
      <point x="150" y="645" type="line"/>
      <point x="505" y="645" type="line"/>
    </contour>
    <contour>
      <point x="173" y="887" type="line"/>
      <point x="173" y="811" type="line"/>
      <point x="233" y="811" type="line"/>
      <point x="233" y="887" type="line"/>
    </contour>
    <contour>
      <point x="367" y="887" type="line"/>
      <point x="367" y="811" type="line"/>
      <point x="427" y="811" type="line"/>
      <point x="427" y="887" type="line"/>
    </contour>
  </outline>
</glyph>
<glyph name="Igrave" format="2">
  <advance width="239"/>
  <unicode hex="00CC"/>
  <note>
Igrave
</note>
  <anchor x="119" y="0" name="bottom"/>
  <anchor x="119" y="353" name="center"/>
  <anchor x="150" y="0" name="ogonek"/>
  <anchor x="119" y="917" name="top"/>
  <outline>
    <contour>
      <point x="150" y="700" type="line"/>
      <point x="89" y="700" type="line"/>
      <point x="89" y="0" type="line"/>
      <point x="150" y="0" type="line"/>
    </contour>
    <contour>
      <point x="27" y="917" type="line"/>
      <point x="5" y="866" type="line"/>
      <point x="215" y="778" type="line"/>
      <point x="233" y="820" type="line"/>
    </contour>
  </outline>
</glyph>
<glyph name="Iacute" format="2">
  <advance width="239"/>
  <unicode hex="00CD"/>
  <note>
Iacute
</note>
  <anchor x="119" y="0" name="bottom"/>
  <anchor x="119" y="353" name="center"/>
  <anchor x="150" y="0" name="ogonek"/>
  <anchor x="119" y="917" name="top"/>
  <outline>
    <contour>
      <point x="150" y="700" type="line"/>
      <point x="89" y="700" type="line"/>
      <point x="89" y="0" type="line"/>
      <point x="150" y="0" type="line"/>
    </contour>
    <contour>
      <point x="211" y="917" type="line"/>
      <point x="5" y="820" type="line"/>
      <point x="23" y="778" type="line"/>
      <point x="233" y="866" type="line"/>
    </contour>
  </outline>
</glyph>
<glyph name="Icircumflex" format="2">
  <advance width="239"/>
  <unicode hex="00CE"/>
  <note>
Icircumflex
</note>
  <anchor x="119" y="0" name="bottom"/>
  <anchor x="119" y="353" name="center"/>
  <anchor x="150" y="0" name="ogonek"/>
  <anchor x="119" y="912" name="top"/>
  <outline>
    <contour>
      <point x="150" y="700" type="line"/>
      <point x="89" y="700" type="line"/>
      <point x="89" y="0" type="line"/>
      <point x="150" y="0" type="line"/>
    </contour>
    <contour>
      <point x="91" y="912" type="line"/>
      <point x="-25" y="783" type="line"/>
      <point x="38" y="783" type="line"/>
      <point x="120" y="869" type="line"/>
      <point x="202" y="783" type="line"/>
      <point x="264" y="783" type="line"/>
      <point x="148" y="912" type="line"/>
    </contour>
  </outline>
</glyph>
<glyph name="Idieresis" format="2">
  <advance width="239"/>
  <unicode hex="00CF"/>
  <note>
Idieresis
</note>
  <anchor x="119" y="0" name="bottom"/>
  <anchor x="119" y="353" name="center"/>
  <anchor x="150" y="0" name="ogonek"/>
  <anchor x="119" y="887" name="top"/>
  <outline>
    <contour>
      <point x="150" y="700" type="line"/>
      <point x="89" y="700" type="line"/>
      <point x="89" y="0" type="line"/>
      <point x="150" y="0" type="line"/>
    </contour>
    <contour>
      <point x="-8" y="887" type="line"/>
      <point x="-8" y="811" type="line"/>
      <point x="52" y="811" type="line"/>
      <point x="52" y="887" type="line"/>
    </contour>
    <contour>
      <point x="186" y="887" type="line"/>
      <point x="186" y="811" type="line"/>
      <point x="246" y="811" type="line"/>
      <point x="246" y="887" type="line"/>
    </contour>
  </outline>
</glyph>
<glyph name="Ntilde" format="2">
  <advance width="675"/>
  <unicode hex="00D1"/>
  <note>
Ntilde
</note>
  <anchor x="338" y="0" name="bottom"/>
  <anchor x="361" y="897" name="top"/>
  <outline>
    <contour>
      <point x="220" y="700" type="line"/>
      <point x="89" y="700" type="line"/>
      <point x="89" y="0" type="line"/>
      <point x="150" y="0" type="line"/>
      <point x="150" y="642" type="line"/>
      <point x="180" y="642" type="line"/>
      <point x="455" y="0" type="line"/>
      <point x="587" y="0" type="line"/>
      <point x="587" y="700" type="line"/>
      <point x="525" y="700" type="line"/>
      <point x="525" y="58" type="line"/>
      <point x="495" y="58" type="line"/>
    </contour>
    <contour>
      <point x="196" y="839" type="curve"/>
      <point x="221" y="807" type="line"/>
      <point x="221" y="807"/>
      <point x="270" y="849"/>
      <point x="293" y="849" type="curve" smooth="yes"/>
      <point x="325" y="849"/>
      <point x="395" y="799"/>
      <point x="435" y="799" type="curve" smooth="yes"/>
      <point x="471" y="799"/>
      <point x="521" y="850"/>
      <point x="527" y="856" type="curve"/>
      <point x="502" y="888" type="line"/>
      <point x="502" y="888"/>
      <point x="455" y="849"/>
      <point x="436" y="849" type="curve" smooth="yes"/>
      <point x="405" y="849"/>
      <point x="333" y="897"/>
      <point x="293" y="897" type="curve" smooth="yes"/>
      <point x="256" y="897"/>
      <point x="196" y="839"/>
    </contour>
  </outline>
</glyph>
<glyph name="Otilde" format="2">
  <advance width="661"/>
  <unicode hex="00D5"/>
  <note>
Otilde
</note>
  <anchor x="331" y="0" name="bottom"/>
  <anchor x="331" y="350" name="center"/>
  <anchor x="392" y="0" name="ogonek"/>
  <anchor x="331" y="897" name="top"/>
  <anchor x="642" y="700" name="topright"/>
  <outline>
    <contour>
      <point x="330" y="44" type="curve" smooth="yes"/>
      <point x="159" y="44"/>
      <point x="123" y="149"/>
      <point x="123" y="346" type="curve" smooth="yes"/>
      <point x="123" y="546"/>
      <point x="159" y="657"/>
      <point x="330" y="657" type="curve" smooth="yes"/>
      <point x="501" y="657"/>
      <point x="538" y="545"/>
      <point x="538" y="346" type="curve" smooth="yes"/>
      <point x="538" y="146"/>
      <point x="503" y="44"/>
    </contour>
    <contour>
      <point x="60" y="346" type="curve" smooth="yes"/>
      <point x="60" y="115"/>
      <point x="116" y="-11"/>
      <point x="330" y="-11" type="curve" smooth="yes"/>
      <point x="545" y="-11"/>
      <point x="602" y="111"/>
      <point x="602" y="346" type="curve" smooth="yes"/>
      <point x="602" y="579"/>
      <point x="544" y="712"/>
      <point x="330" y="712" type="curve" smooth="yes"/>
      <point x="116" y="712"/>
      <point x="60" y="578"/>
    </contour>
    <contour>
      <point x="166" y="839" type="curve"/>
      <point x="191" y="807" type="line"/>
      <point x="191" y="807"/>
      <point x="240" y="849"/>
      <point x="263" y="849" type="curve" smooth="yes"/>
      <point x="295" y="849"/>
      <point x="365" y="799"/>
      <point x="405" y="799" type="curve" smooth="yes"/>
      <point x="441" y="799"/>
      <point x="491" y="850"/>
      <point x="497" y="856" type="curve"/>
      <point x="472" y="888" type="line"/>
      <point x="472" y="888"/>
      <point x="425" y="849"/>
      <point x="406" y="849" type="curve" smooth="yes"/>
      <point x="375" y="849"/>
      <point x="303" y="897"/>
      <point x="263" y="897" type="curve" smooth="yes"/>
      <point x="226" y="897"/>
      <point x="166" y="839"/>
    </contour>
  </outline>
</glyph>
<glyph name="multiply" format="2">
  <advance width="560"/>
  <unicode hex="00D7"/>
  <note>
multiply
</note>
  <outline>
    <contour>
      <point x="280" y="327" type="line"/>
      <point x="126" y="481" type="line"/>
      <point x="86" y="441" type="line"/>
      <point x="240" y="287" type="line"/>
      <point x="86" y="133" type="line"/>
      <point x="126" y="93" type="line"/>
      <point x="280" y="248" type="line"/>
      <point x="434" y="93" type="line"/>
      <point x="474" y="133" type="line"/>
      <point x="320" y="287" type="line"/>
      <point x="474" y="441" type="line"/>
      <point x="434" y="481" type="line"/>
    </contour>
  </outline>
</glyph>
<glyph name="Ucircumflex" format="2">
  <advance width="644"/>
  <unicode hex="00DB"/>
  <note>
Ucircumflex
</note>
  <anchor x="322" y="0" name="bottom"/>
  <anchor x="399" y="0" name="ogonek"/>
  <anchor x="322" y="912" name="top"/>
  <anchor x="620" y="700" name="topright"/>
  <outline>
    <contour>
      <point x="146" y="202" type="curve" smooth="yes"/>
      <point x="146" y="700" type="line"/>
      <point x="84" y="700" type="line"/>
      <point x="84" y="203" type="line" smooth="yes"/>
      <point x="84" y="47"/>
      <point x="170" y="-11"/>
      <point x="320" y="-11" type="curve" smooth="yes"/>
      <point x="473" y="-11"/>
      <point x="560" y="48"/>
      <point x="560" y="203" type="curve" smooth="yes"/>
      <point x="560" y="700" type="line"/>
      <point x="498" y="700" type="line"/>
      <point x="498" y="202" type="line" smooth="yes"/>
      <point x="498" y="87"/>
      <point x="433" y="44"/>
      <point x="320" y="44" type="curve" smooth="yes"/>
      <point x="210" y="44"/>
      <point x="146" y="87"/>
    </contour>
    <contour>
      <point x="293" y="912" type="line"/>
      <point x="177" y="783" type="line"/>
      <point x="240" y="783" type="line"/>
      <point x="322" y="869" type="line"/>
      <point x="404" y="783" type="line"/>
      <point x="466" y="783" type="line"/>
      <point x="350" y="912" type="line"/>
    </contour>
  </outline>
</glyph>
<glyph name="Udieresis" format="2">
  <advance width="644"/>
  <unicode hex="00DC"/>
  <note>
Udieresis
</note>
  <anchor x="322" y="0" name="bottom"/>
  <anchor x="399" y="0" name="ogonek"/>
  <anchor x="322" y="887" name="top"/>
  <anchor x="620" y="700" name="topright"/>
  <outline>
    <contour>
      <point x="146" y="202" type="curve" smooth="yes"/>
      <point x="146" y="700" type="line"/>
      <point x="84" y="700" type="line"/>
      <point x="84" y="203" type="line" smooth="yes"/>
      <point x="84" y="47"/>
      <point x="170" y="-11"/>
      <point x="320" y="-11" type="curve" smooth="yes"/>
      <point x="473" y="-11"/>
      <point x="560" y="48"/>
      <point x="560" y="203" type="curve" smooth="yes"/>
      <point x="560" y="700" type="line"/>
      <point x="498" y="700" type="line"/>
      <point x="498" y="202" type="line" smooth="yes"/>
      <point x="498" y="87"/>
      <point x="433" y="44"/>
      <point x="320" y="44" type="curve" smooth="yes"/>
      <point x="210" y="44"/>
      <point x="146" y="87"/>
    </contour>
    <contour>
      <point x="194" y="887" type="line"/>
      <point x="194" y="811" type="line"/>
      <point x="254" y="811" type="line"/>
      <point x="254" y="887" type="line"/>
    </contour>
    <contour>
      <point x="388" y="887" type="line"/>
      <point x="388" y="811" type="line"/>
      <point x="448" y="811" type="line"/>
      <point x="448" y="887" type="line"/>
    </contour>
  </outline>
</glyph>
<glyph name="Yacute" format="2">
  <advance width="548"/>
  <unicode hex="00DD"/>
  <note>
Yacute
</note>
  <anchor x="275" y="0" name="bottom"/>
  <anchor x="275" y="917" name="top"/>
  <outline>
    <contour>
      <point x="243" y="297" type="line"/>
      <point x="243" y="0" type="line"/>
      <point x="305" y="0" type="line"/>
      <point x="305" y="297" type="line"/>
      <point x="528" y="700" type="line"/>
      <point x="461" y="700" type="line"/>
      <point x="275" y="355" type="line"/>
      <point x="87" y="700" type="line"/>
      <point x="20" y="700" type="line"/>
    </contour>
    <contour>
      <point x="367" y="917" type="line"/>
      <point x="161" y="820" type="line"/>
      <point x="179" y="778" type="line"/>
      <point x="389" y="866" type="line"/>
    </contour>
  </outline>
</glyph>
<glyph name="Thorn" format="2">
  <advance width="589"/>
  <unicode hex="00DE"/>
  <note>
Thorn
</note>
  <anchor x="119" y="0" name="bottom"/>
  <anchor x="119" y="353" name="center"/>
  <anchor x="150" y="0" name="ogonek"/>
  <anchor x="119" y="700" name="top"/>
  <outline>
    <contour>
      <point x="324" y="575" type="curve" smooth="yes"/>
      <point x="150" y="575" type="line"/>
      <point x="150" y="700" type="line"/>
      <point x="89" y="700" type="line"/>
      <point x="89" y="0" type="line"/>
      <point x="150" y="0" type="line"/>
      <point x="150" y="158" type="line"/>
      <point x="324" y="158" type="line" smooth="yes"/>
      <point x="473" y="158"/>
      <point x="540" y="242"/>
      <point x="540" y="373" type="curve" smooth="yes"/>
      <point x="540" y="503"/>
      <point x="473" y="575"/>
    </contour>
    <contour>
      <point x="324" y="212" type="curve" smooth="yes"/>
      <point x="150" y="212" type="line"/>
      <point x="150" y="521" type="line"/>
      <point x="324" y="521" type="line" smooth="yes"/>
      <point x="433" y="521"/>
      <point x="476" y="467"/>
      <point x="476" y="373" type="curve" smooth="yes"/>
      <point x="476" y="278"/>
      <point x="433" y="212"/>
    </contour>
  </outline>
</glyph>
<glyph name="germandbls" format="2">
  <advance width="563"/>
  <unicode hex="00DF"/>
  <note>
germandbls
</note>
  <outline>
    <contour>
      <point x="77" y="563" type="curve" smooth="yes"/>
      <point x="77" y="0" type="line"/>
      <point x="137" y="0" type="line"/>
      <point x="137" y="557" type="line" smooth="yes"/>
      <point x="137" y="658"/>
      <point x="172" y="686"/>
      <point x="266" y="686" type="curve" smooth="yes"/>
      <point x="356" y="686"/>
      <point x="386" y="655"/>
      <point x="386" y="599" type="curve" smooth="yes"/>
      <point x="386" y="556"/>
      <point x="368" y="535"/>
      <point x="337" y="512" type="curve" smooth="yes"/>
      <point x="286" y="474"/>
      <point x="249" y="459"/>
      <point x="249" y="395" type="curve" smooth="yes"/>
      <point x="249" y="353"/>
      <point x="264" y="330"/>
      <point x="314" y="303" type="curve" smooth="yes"/>
      <point x="409" y="249" type="line" smooth="yes"/>
      <point x="458" y="223"/>
      <point x="466" y="199"/>
      <point x="466" y="159" type="curve" smooth="yes"/>
      <point x="466" y="84"/>
      <point x="426" y="45"/>
      <point x="332" y="45" type="curve" smooth="yes"/>
      <point x="280" y="45"/>
      <point x="206" y="55"/>
      <point x="206" y="55" type="curve"/>
      <point x="203" y="3" type="line"/>
      <point x="203" y="3"/>
      <point x="268" y="-10"/>
      <point x="333" y="-10" type="curve" smooth="yes"/>
      <point x="460" y="-10"/>
      <point x="529" y="44"/>
      <point x="529" y="163" type="curve" smooth="yes"/>
      <point x="529" y="229"/>
      <point x="510" y="263"/>
      <point x="452" y="295" type="curve" smooth="yes"/>
      <point x="348" y="350" type="line" smooth="yes"/>
      <point x="316" y="367"/>
      <point x="307" y="383"/>
      <point x="307" y="402" type="curve" smooth="yes"/>
      <point x="307" y="438"/>
      <point x="343" y="453"/>
      <point x="379" y="475" type="curve" smooth="yes"/>
      <point x="418" y="499"/>
      <point x="448" y="527"/>
      <point x="448" y="601" type="curve" smooth="yes"/>
      <point x="448" y="689"/>
      <point x="401" y="740"/>
      <point x="266" y="740" type="curve" smooth="yes"/>
      <point x="138" y="740"/>
      <point x="77" y="695"/>
    </contour>
  </outline>
</glyph>
<glyph name="atilde" format="2">
  <advance width="502"/>
  <unicode hex="00E3"/>
  <note>
atilde
</note>
  <anchor x="249" y="0" name="bottom"/>
  <anchor x="463" y="0" name="ogonek"/>
  <anchor x="238" y="717" name="top"/>
  <outline>
    <contour>
      <point x="417" y="81" type="curve" smooth="yes"/>
      <point x="417" y="353" type="line" smooth="yes"/>
      <point x="417" y="460"/>
      <point x="369" y="512"/>
      <point x="256" y="512" type="curve" smooth="yes"/>
      <point x="177" y="512"/>
      <point x="66" y="492"/>
      <point x="66" y="492" type="curve"/>
      <point x="69" y="444" type="line"/>
      <point x="69" y="444"/>
      <point x="188" y="459"/>
      <point x="254" y="459" type="curve" smooth="yes"/>
      <point x="324" y="459"/>
      <point x="357" y="430"/>
      <point x="357" y="353" type="curve" smooth="yes"/>
      <point x="357" y="304" type="line"/>
      <point x="187" y="287" type="line" smooth="yes"/>
      <point x="86" y="277"/>
      <point x="40" y="234"/>
      <point x="40" y="141" type="curve" smooth="yes"/>
      <point x="40" y="41"/>
      <point x="89" y="-11"/>
      <point x="183" y="-11" type="curve" smooth="yes"/>
      <point x="271" y="-11"/>
      <point x="365" y="30"/>
      <point x="365" y="30" type="curve"/>
      <point x="392" y="0"/>
      <point x="429" y="-10"/>
      <point x="478" y="-10" type="curve"/>
      <point x="481" y="38" type="line"/>
      <point x="447" y="41"/>
      <point x="418" y="52"/>
    </contour>
    <contour>
      <point x="73" y="659" type="curve"/>
      <point x="98" y="627" type="line"/>
      <point x="98" y="627"/>
      <point x="147" y="669"/>
      <point x="170" y="669" type="curve" smooth="yes"/>
      <point x="202" y="669"/>
      <point x="272" y="619"/>
      <point x="312" y="619" type="curve" smooth="yes"/>
      <point x="349" y="619"/>
      <point x="398" y="670"/>
      <point x="404" y="676" type="curve"/>
      <point x="379" y="708" type="line"/>
      <point x="379" y="708"/>
      <point x="333" y="669"/>
      <point x="313" y="669" type="curve" smooth="yes"/>
      <point x="282" y="669"/>
      <point x="211" y="717"/>
      <point x="171" y="717" type="curve" smooth="yes"/>
      <point x="133" y="717"/>
      <point x="73" y="659"/>
    </contour>
    <contour>
      <point x="101" y="143" type="curve" smooth="yes"/>
      <point x="101" y="202"/>
      <point x="126" y="234"/>
      <point x="194" y="241" type="curve" smooth="yes"/>
      <point x="357" y="257" type="line"/>
      <point x="357" y="75" type="line"/>
      <point x="357" y="75"/>
      <point x="266" y="40"/>
      <point x="190" y="40" type="curve" smooth="yes"/>
      <point x="129" y="40"/>
      <point x="101" y="77"/>
    </contour>
  </outline>
</glyph>
<glyph name="ccedilla" format="2">
  <advance width="433"/>
  <unicode hex="00E7"/>
  <note>
ccedilla
</note>
  <anchor x="260" y="-211" name="bottom"/>
  <anchor x="248" y="500" name="top"/>
  <outline>
    <contour>
      <point x="256" y="512" type="curve" smooth="yes"/>
      <point x="113" y="512"/>
      <point x="53" y="444"/>
      <point x="53" y="254" type="curve" smooth="yes"/>
      <point x="53" y="79"/>
      <point x="94" y="4"/>
      <point x="217" y="-9" type="curve"/>
      <point x="203" y="-90" type="line"/>
      <point x="249" y="-90" type="line" smooth="yes"/>
      <point x="276" y="-90"/>
      <point x="293" y="-100"/>
      <point x="293" y="-127" type="curve" smooth="yes"/>
      <point x="293" y="-158"/>
      <point x="276" y="-168"/>
      <point x="248" y="-168" type="curve" smooth="yes"/>
      <point x="218" y="-168"/>
      <point x="175" y="-165"/>
      <point x="175" y="-165" type="curve"/>
      <point x="172" y="-205" type="line"/>
      <point x="172" y="-205"/>
      <point x="214" y="-211"/>
      <point x="258" y="-211" type="curve" smooth="yes"/>
      <point x="311" y="-211"/>
      <point x="347" y="-186"/>
      <point x="347" y="-127" type="curve" smooth="yes"/>
      <point x="347" y="-66"/>
      <point x="312" y="-52"/>
      <point x="247" y="-52" type="curve"/>
      <point x="255" y="-11" type="line"/>
      <point x="260" y="-11" type="line" smooth="yes"/>
      <point x="308" y="-11"/>
      <point x="391" y="1"/>
      <point x="391" y="1" type="curve"/>
      <point x="389" y="52" type="line"/>
      <point x="389" y="52"/>
      <point x="311" y="42"/>
      <point x="270" y="42" type="curve" smooth="yes"/>
      <point x="142" y="42"/>
      <point x="115" y="101"/>
      <point x="115" y="254" type="curve" smooth="yes"/>
      <point x="115" y="405"/>
      <point x="150" y="459"/>
      <point x="265" y="459" type="curve" smooth="yes"/>
      <point x="308" y="459"/>
      <point x="387" y="449"/>
      <point x="387" y="449" type="curve"/>
      <point x="390" y="499" type="line"/>
      <point x="390" y="499"/>
      <point x="305" y="512"/>
    </contour>
  </outline>
</glyph>
<glyph name="egrave" format="2">
  <advance width="503"/>
  <unicode hex="00E8"/>
  <note>
egrave
</note>
  <anchor x="254" y="0" name="bottom"/>
  <anchor x="371" y="0" name="ogonek"/>
  <anchor x="260" y="737" name="top"/>
  <outline>
    <contour>
      <point x="255" y="42" type="curve" smooth="yes"/>
      <point x="145" y="42"/>
      <point x="113" y="105"/>
      <point x="113" y="226" type="curve"/>
      <point x="453" y="226" type="line"/>
      <point x="455" y="273" type="line" smooth="yes"/>
      <point x="455" y="443"/>
      <point x="389" y="512"/>
      <point x="259" y="512" type="curve" smooth="yes"/>
      <point x="134" y="512"/>
      <point x="52" y="443"/>
      <point x="52" y="244" type="curve" smooth="yes"/>
      <point x="52" y="82"/>
      <point x="95" y="-11"/>
      <point x="249" y="-11" type="curve" smooth="yes"/>
      <point x="322" y="-11"/>
      <point x="438" y="2"/>
      <point x="438" y="2" type="curve"/>
      <point x="436" y="51" type="line"/>
      <point x="436" y="51"/>
      <point x="323" y="42"/>
    </contour>
    <contour>
      <point x="395" y="275" type="curve"/>
      <point x="113" y="275" type="line"/>
      <point x="113" y="412"/>
      <point x="168" y="462"/>
      <point x="259" y="462" type="curve" smooth="yes"/>
      <point x="354" y="462"/>
      <point x="395" y="412"/>
    </contour>
    <contour>
      <point x="168" y="737" type="line"/>
      <point x="146" y="686" type="line"/>
      <point x="356" y="598" type="line"/>
      <point x="374" y="640" type="line"/>
    </contour>
  </outline>
</glyph>
<glyph name="ecircumflex" format="2">
  <advance width="503"/>
  <unicode hex="00EA"/>
  <note>
ecircumflex
</note>
  <anchor x="254" y="0" name="bottom"/>
  <anchor x="371" y="0" name="ogonek"/>
  <anchor x="260" y="737" name="top"/>
  <outline>
    <contour>
      <point x="255" y="42" type="curve" smooth="yes"/>
      <point x="145" y="42"/>
      <point x="113" y="105"/>
      <point x="113" y="226" type="curve"/>
      <point x="453" y="226" type="line"/>
      <point x="455" y="273" type="line" smooth="yes"/>
      <point x="455" y="443"/>
      <point x="389" y="512"/>
      <point x="259" y="512" type="curve" smooth="yes"/>
      <point x="134" y="512"/>
      <point x="52" y="443"/>
      <point x="52" y="244" type="curve" smooth="yes"/>
      <point x="52" y="82"/>
      <point x="95" y="-11"/>
      <point x="249" y="-11" type="curve" smooth="yes"/>
      <point x="322" y="-11"/>
      <point x="438" y="2"/>
      <point x="438" y="2" type="curve"/>
      <point x="436" y="51" type="line"/>
      <point x="436" y="51"/>
      <point x="323" y="42"/>
    </contour>
    <contour>
      <point x="395" y="275" type="curve"/>
      <point x="113" y="275" type="line"/>
      <point x="113" y="412"/>
      <point x="168" y="462"/>
      <point x="259" y="462" type="curve" smooth="yes"/>
      <point x="354" y="462"/>
      <point x="395" y="412"/>
    </contour>
    <contour>
      <point x="232" y="732" type="line"/>
      <point x="116" y="603" type="line"/>
      <point x="179" y="603" type="line"/>
      <point x="261" y="688" type="line"/>
      <point x="343" y="603" type="line"/>
      <point x="405" y="603" type="line"/>
      <point x="289" y="732" type="line"/>
    </contour>
  </outline>
</glyph>
<glyph name="iacute" format="2">
  <advance width="213"/>
  <unicode hex="00ED"/>
  <note>
iacute
</note>
  <anchor x="107" y="0" name="bottom"/>
  <anchor x="137" y="0" name="ogonek"/>
  <anchor x="113" y="737" name="top"/>
  <outline>
    <contour>
      <point x="137" y="500" type="line"/>
      <point x="77" y="500" type="line"/>
      <point x="77" y="0" type="line"/>
      <point x="137" y="0" type="line"/>
    </contour>
    <contour>
      <point x="205" y="737" type="line"/>
      <point x="-1" y="640" type="line"/>
      <point x="17" y="598" type="line"/>
      <point x="227" y="686" type="line"/>
    </contour>
  </outline>
</glyph>
<glyph name="icircumflex" format="2">
  <advance width="213"/>
  <unicode hex="00EE"/>
  <note>
icircumflex
</note>
  <anchor x="107" y="0" name="bottom"/>
  <anchor x="137" y="0" name="ogonek"/>
  <anchor x="107" y="737" name="top"/>
  <outline>
    <contour>
      <point x="137" y="500" type="line"/>
      <point x="77" y="500" type="line"/>
      <point x="77" y="0" type="line"/>
      <point x="137" y="0" type="line"/>
    </contour>
    <contour>
      <point x="78" y="732" type="line"/>
      <point x="-38" y="603" type="line"/>
      <point x="25" y="603" type="line"/>
      <point x="107" y="688" type="line"/>
      <point x="189" y="603" type="line"/>
      <point x="251" y="603" type="line"/>
      <point x="135" y="732" type="line"/>
    </contour>
  </outline>
</glyph>
<glyph name="idieresis" format="2">
  <advance width="213"/>
  <unicode hex="00EF"/>
  <note>
idieresis
</note>
  <anchor x="107" y="0" name="bottom"/>
  <anchor x="137" y="0" name="ogonek"/>
  <anchor x="107" y="707" name="top"/>
  <outline>
    <contour>
      <point x="137" y="500" type="line"/>
      <point x="77" y="500" type="line"/>
      <point x="77" y="0" type="line"/>
      <point x="137" y="0" type="line"/>
    </contour>
    <contour>
      <point x="-21" y="707" type="line"/>
      <point x="-21" y="631" type="line"/>
      <point x="38" y="631" type="line"/>
      <point x="38" y="707" type="line"/>
    </contour>
    <contour>
      <point x="174" y="707" type="line"/>
      <point x="174" y="631" type="line"/>
      <point x="233" y="631" type="line"/>
      <point x="233" y="707" type="line"/>
    </contour>
  </outline>
</glyph>
<glyph name="eth" format="2">
  <advance width="553"/>
  <unicode hex="00F0"/>
  <note>
eth
</note>
  <outline>
    <contour>
      <point x="234" y="648" type="curve"/>
      <point x="135" y="581" type="line"/>
      <point x="163" y="542" type="line"/>
      <point x="284" y="622" type="line"/>
      <point x="386" y="561"/>
      <point x="429" y="481"/>
      <point x="432" y="389" type="curve"/>
      <point x="432" y="389"/>
      <point x="334" y="428"/>
      <point x="258" y="428" type="curve" smooth="yes"/>
      <point x="127" y="428"/>
      <point x="50" y="342"/>
      <point x="50" y="207" type="curve" smooth="yes"/>
      <point x="50" y="69"/>
      <point x="132" y="-9"/>
      <point x="272" y="-9" type="curve" smooth="yes"/>
      <point x="430" y="-9"/>
      <point x="495" y="89"/>
      <point x="495" y="353" type="curve" smooth="yes"/>
      <point x="495" y="492"/>
      <point x="440" y="589"/>
      <point x="334" y="656" type="curve"/>
      <point x="416" y="712" type="line"/>
      <point x="387" y="751" type="line"/>
      <point x="286" y="682" type="line"/>
      <point x="239" y="706"/>
      <point x="183" y="725"/>
      <point x="121" y="740" type="curve"/>
      <point x="107" y="694" type="line"/>
      <point x="155" y="681"/>
      <point x="198" y="665"/>
    </contour>
    <contour>
      <point x="113" y="207" type="curve" smooth="yes"/>
      <point x="113" y="306"/>
      <point x="166" y="374"/>
      <point x="261" y="374" type="curve" smooth="yes"/>
      <point x="333" y="374"/>
      <point x="433" y="334"/>
      <point x="433" y="334" type="curve"/>
      <point x="432" y="114"/>
      <point x="386" y="46"/>
      <point x="272" y="46" type="curve" smooth="yes"/>
      <point x="167" y="46"/>
      <point x="113" y="107"/>
    </contour>
  </outline>
</glyph>
<glyph name="ntilde" format="2">
  <advance width="538"/>
  <unicode hex="00F1"/>
  <note>
ntilde
</note>
  <anchor x="277" y="0" name="bottom"/>
  <anchor x="266" y="717" name="top"/>
  <outline>
    <contour>
      <point x="77" y="500" type="line"/>
      <point x="77" y="0" type="line"/>
      <point x="137" y="0" type="line"/>
      <point x="137" y="414" type="line"/>
      <point x="137" y="414"/>
      <point x="209" y="459"/>
      <point x="293" y="459" type="curve" smooth="yes"/>
      <point x="389" y="459"/>
      <point x="407" y="411"/>
      <point x="407" y="263" type="curve" smooth="yes"/>
      <point x="407" y="0" type="line"/>
      <point x="467" y="0" type="line"/>
      <point x="467" y="265" type="line" smooth="yes"/>
      <point x="467" y="451"/>
      <point x="433" y="512"/>
      <point x="303" y="512" type="curve" smooth="yes"/>
      <point x="216" y="512"/>
      <point x="136" y="463"/>
      <point x="136" y="463" type="curve"/>
      <point x="136" y="500" type="line"/>
    </contour>
    <contour>
      <point x="100" y="659" type="curve"/>
      <point x="125" y="627" type="line"/>
      <point x="125" y="627"/>
      <point x="174" y="669"/>
      <point x="197" y="669" type="curve" smooth="yes"/>
      <point x="229" y="669"/>
      <point x="299" y="619"/>
      <point x="339" y="619" type="curve" smooth="yes"/>
      <point x="376" y="619"/>
      <point x="425" y="670"/>
      <point x="431" y="676" type="curve"/>
      <point x="406" y="708" type="line"/>
      <point x="406" y="708"/>
      <point x="360" y="669"/>
      <point x="340" y="669" type="curve" smooth="yes"/>
      <point x="309" y="669"/>
      <point x="238" y="717"/>
      <point x="198" y="717" type="curve" smooth="yes"/>
      <point x="160" y="717"/>
      <point x="100" y="659"/>
    </contour>
  </outline>
</glyph>
<glyph name="otilde" format="2">
  <advance width="525"/>
  <unicode hex="00F5"/>
  <note>
otilde
</note>
  <anchor x="263" y="0" name="bottom"/>
  <anchor x="263" y="250" name="center"/>
  <anchor x="323" y="0" name="ogonek"/>
  <anchor x="263" y="717" name="top"/>
  <anchor x="506" y="500" name="topright"/>
  <outline>
    <contour>
      <point x="263" y="512" type="curve" smooth="yes"/>
      <point x="109" y="512"/>
      <point x="52" y="431"/>
      <point x="52" y="251" type="curve" smooth="yes"/>
      <point x="52" y="81"/>
      <point x="98" y="-11"/>
      <point x="263" y="-11" type="curve" smooth="yes"/>
      <point x="428" y="-11"/>
      <point x="473" y="81"/>
      <point x="473" y="251" type="curve" smooth="yes"/>
      <point x="473" y="431"/>
      <point x="417" y="512"/>
    </contour>
    <contour>
      <point x="97" y="659" type="curve"/>
      <point x="122" y="627" type="line"/>
      <point x="122" y="627"/>
      <point x="171" y="669"/>
      <point x="194" y="669" type="curve" smooth="yes"/>
      <point x="226" y="669"/>
      <point x="296" y="619"/>
      <point x="336" y="619" type="curve" smooth="yes"/>
      <point x="373" y="619"/>
      <point x="422" y="670"/>
      <point x="428" y="676" type="curve"/>
      <point x="403" y="708" type="line"/>
      <point x="403" y="708"/>
      <point x="357" y="669"/>
      <point x="337" y="669" type="curve" smooth="yes"/>
      <point x="306" y="669"/>
      <point x="235" y="717"/>
      <point x="195" y="717" type="curve" smooth="yes"/>
      <point x="157" y="717"/>
      <point x="97" y="659"/>
    </contour>
    <contour>
      <point x="114" y="251" type="curve" smooth="yes"/>
      <point x="114" y="404"/>
      <point x="148" y="460"/>
      <point x="263" y="460" type="curve" smooth="yes"/>
      <point x="378" y="460"/>
      <point x="411" y="404"/>
      <point x="411" y="251" type="curve" smooth="yes"/>
      <point x="411" y="112"/>
      <point x="387" y="41"/>
      <point x="263" y="41" type="curve" smooth="yes"/>
      <point x="139" y="41"/>
      <point x="114" y="112"/>
    </contour>
  </outline>
</glyph>
<glyph name="odieresis" format="2">
  <advance width="525"/>
  <unicode hex="00F6"/>
  <note>
odieresis
</note>
  <anchor x="263" y="0" name="bottom"/>
  <anchor x="263" y="250" name="center"/>
  <anchor x="323" y="0" name="ogonek"/>
  <anchor x="263" y="707" name="top"/>
  <anchor x="506" y="500" name="topright"/>
  <outline>
    <contour>
      <point x="263" y="512" type="curve" smooth="yes"/>
      <point x="109" y="512"/>
      <point x="52" y="431"/>
      <point x="52" y="251" type="curve" smooth="yes"/>
      <point x="52" y="81"/>
      <point x="98" y="-11"/>
      <point x="263" y="-11" type="curve" smooth="yes"/>
      <point x="428" y="-11"/>
      <point x="473" y="81"/>
      <point x="473" y="251" type="curve" smooth="yes"/>
      <point x="473" y="431"/>
      <point x="417" y="512"/>
    </contour>
    <contour>
      <point x="114" y="251" type="curve" smooth="yes"/>
      <point x="114" y="404"/>
      <point x="148" y="460"/>
      <point x="263" y="460" type="curve" smooth="yes"/>
      <point x="378" y="460"/>
      <point x="411" y="404"/>
      <point x="411" y="251" type="curve" smooth="yes"/>
      <point x="411" y="112"/>
      <point x="387" y="41"/>
      <point x="263" y="41" type="curve" smooth="yes"/>
      <point x="139" y="41"/>
      <point x="114" y="112"/>
    </contour>
    <contour>
      <point x="135" y="707" type="line"/>
      <point x="135" y="631" type="line"/>
      <point x="194" y="631" type="line"/>
      <point x="194" y="707" type="line"/>
    </contour>
    <contour>
      <point x="330" y="707" type="line"/>
      <point x="330" y="631" type="line"/>
      <point x="389" y="631" type="line"/>
      <point x="389" y="707" type="line"/>
    </contour>
  </outline>
</glyph>
<glyph name="divide" format="2">
  <advance width="560"/>
  <unicode hex="00F7"/>
  <note>
divide
</note>
  <outline>
    <contour>
      <point x="77" y="315" type="line"/>
      <point x="77" y="260" type="line"/>
      <point x="483" y="260" type="line"/>
      <point x="483" y="315" type="line"/>
    </contour>
    <contour>
      <point x="247" y="169" type="line"/>
      <point x="247" y="76" type="line"/>
      <point x="313" y="76" type="line"/>
      <point x="313" y="169" type="line"/>
    </contour>
    <contour>
      <point x="247" y="498" type="line"/>
      <point x="247" y="406" type="line"/>
      <point x="313" y="406" type="line"/>
      <point x="313" y="498" type="line"/>
    </contour>
  </outline>
</glyph>
<glyph name="oslash" format="2">
  <advance width="525"/>
  <unicode hex="00F8"/>
  <note>
oslash
</note>
  <anchor x="263" y="0" name="bottom"/>
  <anchor x="263" y="250" name="center"/>
  <anchor x="323" y="0" name="ogonek"/>
  <anchor x="264" y="500" name="top"/>
  <anchor x="506" y="500" name="topright"/>
  <outline>
    <contour>
      <point x="430" y="530" type="line"/>
      <point x="384" y="552" type="line"/>
      <point x="357" y="498" type="line"/>
      <point x="331" y="507"/>
      <point x="300" y="512"/>
      <point x="263" y="512" type="curve" smooth="yes"/>
      <point x="109" y="512"/>
      <point x="52" y="431"/>
      <point x="52" y="251" type="curve" smooth="yes"/>
      <point x="52" y="145"/>
      <point x="70" y="69"/>
      <point x="123" y="27" type="curve"/>
      <point x="95" y="-30" type="line"/>
      <point x="141" y="-52" type="line"/>
      <point x="168" y="3" type="line"/>
      <point x="194" y="-6"/>
      <point x="226" y="-11"/>
      <point x="263" y="-11" type="curve" smooth="yes"/>
      <point x="428" y="-11"/>
      <point x="473" y="81"/>
      <point x="473" y="251" type="curve" smooth="yes"/>
      <point x="473" y="360"/>
      <point x="452" y="433"/>
      <point x="402" y="473" type="curve"/>
    </contour>
    <contour>
      <point x="114" y="251" type="curve" smooth="yes"/>
      <point x="114" y="404"/>
      <point x="148" y="460"/>
      <point x="263" y="460" type="curve" smooth="yes"/>
      <point x="291" y="460"/>
      <point x="314" y="457"/>
      <point x="333" y="449" type="curve"/>
      <point x="151" y="82" type="line"/>
      <point x="122" y="117"/>
      <point x="114" y="173"/>
    </contour>
    <contour>
      <point x="193" y="52" type="curve"/>
      <point x="375" y="420" type="line"/>
      <point x="402" y="387"/>
      <point x="411" y="333"/>
      <point x="411" y="251" type="curve" smooth="yes"/>
      <point x="411" y="112"/>
      <point x="387" y="41"/>
      <point x="263" y="41" type="curve" smooth="yes"/>
      <point x="235" y="41"/>
      <point x="212" y="45"/>
    </contour>
  </outline>
</glyph>
<glyph name="ugrave" format="2">
  <advance width="530"/>
  <unicode hex="00F9"/>
  <note>
ugrave
</note>
  <anchor x="265" y="0" name="bottom"/>
  <anchor x="450" y="0" name="ogonek"/>
  <anchor x="265" y="737" name="top"/>
  <anchor x="507" y="500" name="topright"/>
  <outline>
    <contour>
      <point x="453" y="0" type="line"/>
      <point x="453" y="500" type="line"/>
      <point x="393" y="500" type="line"/>
      <point x="393" y="86" type="line"/>
      <point x="393" y="86"/>
      <point x="329" y="43"/>
      <point x="244" y="43" type="curve" smooth="yes"/>
      <point x="149" y="43"/>
      <point x="132" y="89"/>
      <point x="132" y="240" type="curve" smooth="yes"/>
      <point x="132" y="500" type="line"/>
      <point x="72" y="500" type="line"/>
      <point x="72" y="238" type="line" smooth="yes"/>
      <point x="72" y="50"/>
      <point x="107" y="-11"/>
      <point x="237" y="-11" type="curve" smooth="yes"/>
      <point x="323" y="-11"/>
      <point x="393" y="37"/>
      <point x="393" y="37" type="curve"/>
      <point x="393" y="0" type="line"/>
    </contour>
    <contour>
      <point x="173" y="737" type="line"/>
      <point x="151" y="686" type="line"/>
      <point x="361" y="598" type="line"/>
      <point x="379" y="640" type="line"/>
    </contour>
  </outline>
</glyph>
<glyph name="uacute" format="2">
  <advance width="530"/>
  <unicode hex="00FA"/>
  <note>
uacute
</note>
  <anchor x="265" y="0" name="bottom"/>
  <anchor x="450" y="0" name="ogonek"/>
  <anchor x="271" y="737" name="top"/>
  <anchor x="507" y="500" name="topright"/>
  <outline>
    <contour>
      <point x="453" y="0" type="line"/>
      <point x="453" y="500" type="line"/>
      <point x="393" y="500" type="line"/>
      <point x="393" y="86" type="line"/>
      <point x="393" y="86"/>
      <point x="329" y="43"/>
      <point x="244" y="43" type="curve" smooth="yes"/>
      <point x="149" y="43"/>
      <point x="132" y="89"/>
      <point x="132" y="240" type="curve" smooth="yes"/>
      <point x="132" y="500" type="line"/>
      <point x="72" y="500" type="line"/>
      <point x="72" y="238" type="line" smooth="yes"/>
      <point x="72" y="50"/>
      <point x="107" y="-11"/>
      <point x="237" y="-11" type="curve" smooth="yes"/>
      <point x="323" y="-11"/>
      <point x="393" y="37"/>
      <point x="393" y="37" type="curve"/>
      <point x="393" y="0" type="line"/>
    </contour>
    <contour>
      <point x="363" y="737" type="line"/>
      <point x="157" y="640" type="line"/>
      <point x="175" y="598" type="line"/>
      <point x="385" y="686" type="line"/>
    </contour>
  </outline>
</glyph>
<glyph name="thorn" format="2">
  <advance width="525"/>
  <unicode hex="00FE"/>
  <note>
thorn
</note>
  <outline>
    <contour>
      <point x="136" y="730" type="line"/>
      <point x="77" y="730" type="line"/>
      <point x="77" y="-230" type="line"/>
      <point x="137" y="-230" type="line"/>
      <point x="137" y="3" type="line"/>
      <point x="154" y="-1"/>
      <point x="207" y="-10"/>
      <point x="256" y="-10" type="curve" smooth="yes"/>
      <point x="410" y="-10"/>
      <point x="472" y="65"/>
      <point x="472" y="257" type="curve" smooth="yes"/>
      <point x="472" y="433"/>
      <point x="419" y="512"/>
      <point x="295" y="512" type="curve" smooth="yes"/>
      <point x="214" y="512"/>
      <point x="136" y="464"/>
      <point x="136" y="464" type="curve"/>
    </contour>
    <contour>
      <point x="137" y="55" type="curve"/>
      <point x="137" y="414" type="line"/>
      <point x="137" y="414"/>
      <point x="213" y="459"/>
      <point x="288" y="459" type="curve" smooth="yes"/>
      <point x="366" y="459"/>
      <point x="410" y="406"/>
      <point x="410" y="257" type="curve" smooth="yes"/>
      <point x="410" y="103"/>
      <point x="371" y="42"/>
      <point x="254" y="42" type="curve" smooth="yes"/>
      <point x="207" y="42"/>
      <point x="153" y="52"/>
    </contour>
  </outline>
</glyph>
<glyph name="ydieresis" format="2">
  <advance width="481"/>
  <unicode hex="00FF"/>
  <note>
ydieresis
</note>
  <anchor x="238" y="0" name="bottom"/>
  <anchor x="238" y="707" name="top"/>
  <outline>
    <contour>
      <point x="229" y="52" type="line"/>
      <point x="86" y="500" type="line"/>
      <point x="26" y="500" type="line"/>
      <point x="184" y="0" type="line"/>
      <point x="238" y="0" type="line"/>
      <point x="169" y="-230" type="line"/>
      <point x="229" y="-230" type="line"/>
      <point x="452" y="500" type="line"/>
      <point x="392" y="500" type="line"/>
      <point x="252" y="52" type="line"/>
    </contour>
    <contour>
      <point x="111" y="707" type="line"/>
      <point x="111" y="631" type="line"/>
      <point x="170" y="631" type="line"/>
      <point x="170" y="707" type="line"/>
    </contour>
    <contour>
      <point x="306" y="707" type="line"/>
      <point x="306" y="631" type="line"/>
      <point x="365" y="631" type="line"/>
      <point x="365" y="707" type="line"/>
    </contour>
  </outline>
</glyph>
<glyph name="Amacron" format="2">
  <advance width="597"/>
  <unicode hex="0100"/>
  <note>
Amacron
</note>
  <anchor x="297" y="0" name="bottom"/>
  <anchor x="572" y="0" name="ogonek"/>
  <anchor x="297" y="859" name="top"/>
  <outline>
    <contour>
      <point x="282" y="642" type="line"/>
      <point x="312" y="642" type="line"/>
      <point x="432" y="253" type="line"/>
      <point x="162" y="253" type="line"/>
    </contour>
    <contour>
      <point x="241" y="700" type="line"/>
      <point x="25" y="0" type="line"/>
      <point x="84" y="0" type="line"/>
      <point x="145" y="198" type="line"/>
      <point x="448" y="198" type="line"/>
      <point x="509" y="0" type="line"/>
      <point x="572" y="0" type="line"/>
      <point x="356" y="700" type="line"/>
    </contour>
    <contour>
      <point x="160" y="859" type="line"/>
      <point x="160" y="811" type="line"/>
      <point x="432" y="811" type="line"/>
      <point x="432" y="859" type="line"/>
    </contour>
  </outline>
</glyph>
<glyph name="Aogonek" format="2">
  <advance width="597"/>
  <unicode hex="0104"/>
  <note>
Aogonek
</note>
  <anchor x="297" y="0" name="bottom"/>
  <anchor x="572" y="0" name="ogonek"/>
  <anchor x="297" y="700" name="top"/>
  <outline>
    <contour>
      <point x="282" y="642" type="line"/>
      <point x="312" y="642" type="line"/>
      <point x="432" y="253" type="line"/>
      <point x="162" y="253" type="line"/>
    </contour>
    <contour>
      <point x="241" y="700" type="line"/>
      <point x="25" y="0" type="line"/>
      <point x="84" y="0" type="line"/>
      <point x="145" y="198" type="line"/>
      <point x="448" y="198" type="line"/>
      <point x="509" y="0" type="line"/>
      <point x="515" y="0" type="line"/>
      <point x="494" y="-19"/>
      <point x="438" y="-75"/>
      <point x="438" y="-119" type="curve" smooth="yes"/>
      <point x="438" y="-171"/>
      <point x="476" y="-204"/>
      <point x="525" y="-204" type="curve" smooth="yes"/>
      <point x="557" y="-204"/>
      <point x="598" y="-195"/>
      <point x="598" y="-195" type="curve"/>
      <point x="593" y="-147" type="line"/>
      <point x="593" y="-147"/>
      <point x="556" y="-153"/>
      <point x="540" y="-153" type="curve" smooth="yes"/>
      <point x="515" y="-153"/>
      <point x="497" y="-133"/>
      <point x="497" y="-107" type="curve" smooth="yes"/>
      <point x="497" y="-75"/>
      <point x="572" y="0"/>
      <point x="572" y="0" type="curve"/>
      <point x="356" y="700" type="line"/>
    </contour>
  </outline>
</glyph>
<glyph name="aogonek" format="2">
  <advance width="502"/>
  <unicode hex="0105"/>
  <note>
aogonek
</note>
  <anchor x="249" y="0" name="bottom"/>
  <anchor x="463" y="0" name="ogonek"/>
  <anchor x="238" y="500" name="top"/>
  <outline>
    <contour>
      <point x="417" y="81" type="curve" smooth="yes"/>
      <point x="417" y="353" type="line" smooth="yes"/>
      <point x="417" y="460"/>
      <point x="369" y="512"/>
      <point x="256" y="512" type="curve" smooth="yes"/>
      <point x="177" y="512"/>
      <point x="66" y="492"/>
      <point x="66" y="492" type="curve"/>
      <point x="69" y="444" type="line"/>
      <point x="69" y="444"/>
      <point x="188" y="459"/>
      <point x="254" y="459" type="curve" smooth="yes"/>
      <point x="324" y="459"/>
      <point x="357" y="430"/>
      <point x="357" y="353" type="curve" smooth="yes"/>
      <point x="357" y="304" type="line"/>
      <point x="187" y="287" type="line" smooth="yes"/>
      <point x="86" y="277"/>
      <point x="40" y="234"/>
      <point x="40" y="141" type="curve" smooth="yes"/>
      <point x="40" y="41"/>
      <point x="89" y="-11"/>
      <point x="183" y="-11" type="curve" smooth="yes"/>
      <point x="271" y="-11"/>
      <point x="365" y="30"/>
      <point x="365" y="30" type="curve"/>
      <point x="377" y="16"/>
      <point x="391" y="7"/>
      <point x="408" y="1" type="curve"/>
      <point x="387" y="-18"/>
      <point x="330" y="-75"/>
      <point x="330" y="-119" type="curve" smooth="yes"/>
      <point x="330" y="-171"/>
      <point x="368" y="-204"/>
      <point x="417" y="-204" type="curve" smooth="yes"/>
      <point x="449" y="-204"/>
      <point x="490" y="-195"/>
      <point x="490" y="-195" type="curve"/>
      <point x="485" y="-147" type="line"/>
      <point x="485" y="-147"/>
      <point x="448" y="-153"/>
      <point x="432" y="-153" type="curve" smooth="yes"/>
      <point x="407" y="-153"/>
      <point x="389" y="-133"/>
      <point x="389" y="-107" type="curve" smooth="yes"/>
      <point x="389" y="-82"/>
      <point x="435" y="-30"/>
      <point x="455" y="-9" type="curve"/>
      <point x="462" y="-10"/>
      <point x="470" y="-10"/>
      <point x="478" y="-10" type="curve"/>
      <point x="481" y="38" type="line"/>
      <point x="447" y="41"/>
      <point x="418" y="52"/>
    </contour>
    <contour>
      <point x="101" y="143" type="curve" smooth="yes"/>
      <point x="101" y="202"/>
      <point x="126" y="234"/>
      <point x="194" y="241" type="curve" smooth="yes"/>
      <point x="357" y="257" type="line"/>
      <point x="357" y="75" type="line"/>
      <point x="357" y="75"/>
      <point x="266" y="40"/>
      <point x="190" y="40" type="curve" smooth="yes"/>
      <point x="129" y="40"/>
      <point x="101" y="77"/>
    </contour>
  </outline>
</glyph>
<glyph name="Cacute" format="2">
  <advance width="539"/>
  <unicode hex="0106"/>
  <note>
Cacute
</note>
  <anchor x="319" y="0" name="bottom"/>
  <anchor x="326" y="917" name="top"/>
  <outline>
    <contour>
      <point x="503" y="10" type="curve"/>
      <point x="500" y="63" type="line"/>
      <point x="450" y="54"/>
      <point x="376" y="44"/>
      <point x="321" y="44" type="curve" smooth="yes"/>
      <point x="148" y="44"/>
      <point x="124" y="153"/>
      <point x="124" y="350" type="curve" smooth="yes"/>
      <point x="124" y="555"/>
      <point x="150" y="657"/>
      <point x="315" y="657" type="curve" smooth="yes"/>
      <point x="374" y="657"/>
      <point x="454" y="644"/>
      <point x="498" y="635" type="curve"/>
      <point x="501" y="688" type="line"/>
      <point x="456" y="698"/>
      <point x="382" y="712"/>
      <point x="312" y="712" type="curve" smooth="yes"/>
      <point x="101" y="712"/>
      <point x="61" y="576"/>
      <point x="61" y="350" type="curve" smooth="yes"/>
      <point x="61" y="114"/>
      <point x="105" y="-11"/>
      <point x="317" y="-11" type="curve" smooth="yes"/>
      <point x="380" y="-11"/>
      <point x="453" y="-1"/>
    </contour>
    <contour>
      <point x="418" y="917" type="line"/>
      <point x="212" y="820" type="line"/>
      <point x="230" y="778" type="line"/>
      <point x="440" y="866" type="line"/>
    </contour>
  </outline>
</glyph>
<glyph name="Ccircumflex" format="2">
  <advance width="539"/>
  <unicode hex="0108"/>
  <note>
Ccircumflex
</note>
  <anchor x="319" y="0" name="bottom"/>
  <anchor x="326" y="912" name="top"/>
  <outline>
    <contour>
      <point x="503" y="10" type="curve"/>
      <point x="500" y="63" type="line"/>
      <point x="450" y="54"/>
      <point x="376" y="44"/>
      <point x="321" y="44" type="curve" smooth="yes"/>
      <point x="148" y="44"/>
      <point x="124" y="153"/>
      <point x="124" y="350" type="curve" smooth="yes"/>
      <point x="124" y="555"/>
      <point x="150" y="657"/>
      <point x="315" y="657" type="curve" smooth="yes"/>
      <point x="374" y="657"/>
      <point x="454" y="644"/>
      <point x="498" y="635" type="curve"/>
      <point x="501" y="688" type="line"/>
      <point x="456" y="698"/>
      <point x="382" y="712"/>
      <point x="312" y="712" type="curve" smooth="yes"/>
      <point x="101" y="712"/>
      <point x="61" y="576"/>
      <point x="61" y="350" type="curve" smooth="yes"/>
      <point x="61" y="114"/>
      <point x="105" y="-11"/>
      <point x="317" y="-11" type="curve" smooth="yes"/>
      <point x="380" y="-11"/>
      <point x="453" y="-1"/>
    </contour>
    <contour>
      <point x="298" y="912" type="line"/>
      <point x="182" y="783" type="line"/>
      <point x="245" y="783" type="line"/>
      <point x="327" y="869" type="line"/>
      <point x="409" y="783" type="line"/>
      <point x="471" y="783" type="line"/>
      <point x="355" y="912" type="line"/>
    </contour>
  </outline>
</glyph>
<glyph name="Dcaron" format="2">
  <advance width="646"/>
  <unicode hex="010E"/>
  <note>
Dcaron
</note>
  <anchor x="300" y="0" name="bottom"/>
  <anchor x="118" y="354" name="center"/>
  <anchor x="300" y="917" name="top"/>
  <outline>
    <contour>
      <point x="89" y="700" type="line"/>
      <point x="89" y="0" type="line"/>
      <point x="341" y="0" type="line" smooth="yes"/>
      <point x="534" y="0"/>
      <point x="588" y="169"/>
      <point x="588" y="359" type="curve" smooth="yes"/>
      <point x="588" y="552"/>
      <point x="532" y="700"/>
      <point x="341" y="700" type="curve" smooth="yes"/>
    </contour>
    <contour>
      <point x="341" y="55" type="curve" smooth="yes"/>
      <point x="150" y="55" type="line"/>
      <point x="150" y="645" type="line"/>
      <point x="341" y="645" type="line" smooth="yes"/>
      <point x="487" y="645"/>
      <point x="524" y="512"/>
      <point x="524" y="359" type="curve" smooth="yes"/>
      <point x="524" y="207"/>
      <point x="487" y="55"/>
    </contour>
    <contour>
      <point x="218" y="912" type="line"/>
      <point x="155" y="912" type="line"/>
      <point x="271" y="783" type="line"/>
      <point x="328" y="783" type="line"/>
      <point x="444" y="912" type="line"/>
      <point x="382" y="912" type="line"/>
      <point x="300" y="827" type="line"/>
    </contour>
  </outline>
</glyph>
<glyph name="Dcroat" format="2">
  <advance width="666"/>
  <unicode hex="0110"/>
  <note>
Dcroat
</note>
  <anchor x="320" y="0" name="bottom"/>
  <anchor x="138" y="354" name="center"/>
  <anchor x="320" y="700" name="top"/>
  <outline>
    <contour>
      <point x="109" y="328" type="line"/>
      <point x="109" y="0" type="line"/>
      <point x="361" y="0" type="line" smooth="yes"/>
      <point x="554" y="0"/>
      <point x="608" y="169"/>
      <point x="608" y="359" type="curve" smooth="yes"/>
      <point x="608" y="552"/>
      <point x="552" y="700"/>
      <point x="361" y="700" type="curve" smooth="yes"/>
      <point x="109" y="700" type="line"/>
      <point x="109" y="382" type="line"/>
      <point x="40" y="382" type="line"/>
      <point x="40" y="328" type="line"/>
    </contour>
    <contour>
      <point x="361" y="55" type="curve" smooth="yes"/>
      <point x="170" y="55" type="line"/>
      <point x="170" y="328" type="line"/>
      <point x="373" y="328" type="line"/>
      <point x="373" y="382" type="line"/>
      <point x="170" y="382" type="line"/>
      <point x="170" y="645" type="line"/>
      <point x="361" y="645" type="line" smooth="yes"/>
      <point x="507" y="645"/>
      <point x="544" y="512"/>
      <point x="544" y="359" type="curve" smooth="yes"/>
      <point x="544" y="207"/>
      <point x="507" y="55"/>
    </contour>
  </outline>
</glyph>
<glyph name="Emacron" format="2">
  <advance width="553"/>
  <unicode hex="0112"/>
  <note>
Emacron
</note>
  <anchor x="300" y="0" name="bottom"/>
  <anchor x="463" y="0" name="ogonek"/>
  <anchor x="300" y="859" name="top"/>
  <outline>
    <contour>
      <point x="505" y="700" type="line"/>
      <point x="89" y="700" type="line"/>
      <point x="89" y="0" type="line"/>
      <point x="505" y="0" type="line"/>
      <point x="505" y="55" type="line"/>
      <point x="150" y="55" type="line"/>
      <point x="150" y="330" type="line"/>
      <point x="445" y="330" type="line"/>
      <point x="445" y="384" type="line"/>
      <point x="150" y="384" type="line"/>
      <point x="150" y="645" type="line"/>
      <point x="505" y="645" type="line"/>
    </contour>
    <contour>
      <point x="164" y="859" type="line"/>
      <point x="164" y="811" type="line"/>
      <point x="436" y="811" type="line"/>
      <point x="436" y="859" type="line"/>
    </contour>
  </outline>
</glyph>
<glyph name="Ebreve" format="2">
  <advance width="553"/>
  <unicode hex="0114"/>
  <note>
Ebreve
</note>
  <anchor x="300" y="0" name="bottom"/>
  <anchor x="463" y="0" name="ogonek"/>
  <anchor x="300" y="911" name="top"/>
  <outline>
    <contour>
      <point x="505" y="700" type="line"/>
      <point x="89" y="700" type="line"/>
      <point x="89" y="0" type="line"/>
      <point x="505" y="0" type="line"/>
      <point x="505" y="55" type="line"/>
      <point x="150" y="55" type="line"/>
      <point x="150" y="330" type="line"/>
      <point x="445" y="330" type="line"/>
      <point x="445" y="384" type="line"/>
      <point x="150" y="384" type="line"/>
      <point x="150" y="645" type="line"/>
      <point x="505" y="645" type="line"/>
    </contour>
    <contour>
      <point x="209" y="911" type="curve"/>
      <point x="158" y="911" type="line"/>
      <point x="162" y="838"/>
      <point x="214" y="778"/>
      <point x="300" y="778" type="curve" smooth="yes"/>
      <point x="386" y="778"/>
      <point x="438" y="838"/>
      <point x="442" y="911" type="curve"/>
      <point x="391" y="911" type="line"/>
      <point x="388" y="862"/>
      <point x="356" y="825"/>
      <point x="300" y="825" type="curve" smooth="yes"/>
      <point x="244" y="825"/>
      <point x="212" y="862"/>
    </contour>
  </outline>
</glyph>
<glyph name="ebreve" format="2">
  <advance width="503"/>
  <unicode hex="0115"/>
  <note>
ebreve
</note>
  <anchor x="254" y="0" name="bottom"/>
  <anchor x="371" y="0" name="ogonek"/>
  <anchor x="260" y="731" name="top"/>
  <outline>
    <contour>
      <point x="255" y="42" type="curve" smooth="yes"/>
      <point x="145" y="42"/>
      <point x="113" y="105"/>
      <point x="113" y="226" type="curve"/>
      <point x="453" y="226" type="line"/>
      <point x="455" y="273" type="line" smooth="yes"/>
      <point x="455" y="443"/>
      <point x="389" y="512"/>
      <point x="259" y="512" type="curve" smooth="yes"/>
      <point x="134" y="512"/>
      <point x="52" y="443"/>
      <point x="52" y="244" type="curve" smooth="yes"/>
      <point x="52" y="82"/>
      <point x="95" y="-11"/>
      <point x="249" y="-11" type="curve" smooth="yes"/>
      <point x="322" y="-11"/>
      <point x="438" y="2"/>
      <point x="438" y="2" type="curve"/>
      <point x="436" y="51" type="line"/>
      <point x="436" y="51"/>
      <point x="323" y="42"/>
    </contour>
    <contour>
      <point x="395" y="275" type="curve"/>
      <point x="113" y="275" type="line"/>
      <point x="113" y="412"/>
      <point x="168" y="462"/>
      <point x="259" y="462" type="curve" smooth="yes"/>
      <point x="354" y="462"/>
      <point x="395" y="412"/>
    </contour>
    <contour>
      <point x="169" y="731" type="curve"/>
      <point x="118" y="731" type="line"/>
      <point x="122" y="658"/>
      <point x="174" y="598"/>
      <point x="260" y="598" type="curve" smooth="yes"/>
      <point x="346" y="598"/>
      <point x="398" y="658"/>
      <point x="402" y="731" type="curve"/>
      <point x="351" y="731" type="line"/>
      <point x="348" y="682"/>
      <point x="316" y="645"/>
      <point x="260" y="645" type="curve" smooth="yes"/>
      <point x="204" y="645"/>
      <point x="172" y="682"/>
    </contour>
  </outline>
</glyph>
<glyph name="Eogonek" format="2">
  <advance width="553"/>
  <unicode hex="0118"/>
  <note>
Eogonek
</note>
  <anchor x="300" y="0" name="bottom"/>
  <anchor x="463" y="0" name="ogonek"/>
  <anchor x="300" y="700" name="top"/>
  <outline>
    <contour>
      <point x="505" y="700" type="line"/>
      <point x="89" y="700" type="line"/>
      <point x="89" y="0" type="line"/>
      <point x="406" y="0" type="line"/>
      <point x="385" y="-19"/>
      <point x="329" y="-75"/>
      <point x="329" y="-119" type="curve" smooth="yes"/>
      <point x="329" y="-171"/>
      <point x="367" y="-204"/>
      <point x="416" y="-204" type="curve" smooth="yes"/>
      <point x="448" y="-204"/>
      <point x="489" y="-195"/>
      <point x="489" y="-195" type="curve"/>
      <point x="484" y="-147" type="line"/>
      <point x="484" y="-147"/>
      <point x="447" y="-153"/>
      <point x="431" y="-153" type="curve" smooth="yes"/>
      <point x="406" y="-153"/>
      <point x="388" y="-133"/>
      <point x="388" y="-107" type="curve" smooth="yes"/>
      <point x="388" y="-75"/>
      <point x="463" y="0"/>
      <point x="463" y="0" type="curve"/>
      <point x="505" y="0" type="line"/>
      <point x="505" y="55" type="line"/>
      <point x="150" y="55" type="line"/>
      <point x="150" y="330" type="line"/>
      <point x="445" y="330" type="line"/>
      <point x="445" y="384" type="line"/>
      <point x="150" y="384" type="line"/>
      <point x="150" y="645" type="line"/>
      <point x="505" y="645" type="line"/>
    </contour>
  </outline>
</glyph>
<glyph name="eogonek" format="2">
  <advance width="503"/>
  <unicode hex="0119"/>
  <note>
eogonek
</note>
  <anchor x="254" y="0" name="bottom"/>
  <anchor x="371" y="0" name="ogonek"/>
  <anchor x="260" y="500" name="top"/>
  <outline>
    <contour>
      <point x="255" y="42" type="curve" smooth="yes"/>
      <point x="145" y="42"/>
      <point x="113" y="105"/>
      <point x="113" y="226" type="curve"/>
      <point x="453" y="226" type="line"/>
      <point x="455" y="273" type="line" smooth="yes"/>
      <point x="455" y="443"/>
      <point x="389" y="512"/>
      <point x="259" y="512" type="curve" smooth="yes"/>
      <point x="134" y="512"/>
      <point x="52" y="443"/>
      <point x="52" y="244" type="curve" smooth="yes"/>
      <point x="52" y="82"/>
      <point x="95" y="-11"/>
      <point x="249" y="-11" type="curve" smooth="yes"/>
      <point x="266" y="-11"/>
      <point x="285" y="-10"/>
      <point x="304" y="-9" type="curve"/>
      <point x="280" y="-34"/>
      <point x="237" y="-81"/>
      <point x="237" y="-119" type="curve" smooth="yes"/>
      <point x="237" y="-171"/>
      <point x="275" y="-204"/>
      <point x="324" y="-204" type="curve" smooth="yes"/>
      <point x="356" y="-204"/>
      <point x="397" y="-195"/>
      <point x="397" y="-195" type="curve"/>
      <point x="392" y="-147" type="line"/>
      <point x="392" y="-147"/>
      <point x="355" y="-153"/>
      <point x="339" y="-153" type="curve" smooth="yes"/>
      <point x="314" y="-153"/>
      <point x="296" y="-133"/>
      <point x="296" y="-107" type="curve" smooth="yes"/>
      <point x="296" y="-80"/>
      <point x="350" y="-22"/>
      <point x="366" y="-5" type="curve"/>
      <point x="407" y="-2"/>
      <point x="438" y="2"/>
      <point x="438" y="2" type="curve"/>
      <point x="436" y="51" type="line"/>
      <point x="436" y="51"/>
      <point x="323" y="42"/>
    </contour>
    <contour>
      <point x="395" y="275" type="curve"/>
      <point x="113" y="275" type="line"/>
      <point x="113" y="412"/>
      <point x="168" y="462"/>
      <point x="259" y="462" type="curve" smooth="yes"/>
      <point x="354" y="462"/>
      <point x="395" y="412"/>
    </contour>
  </outline>
</glyph>
<glyph name="Ecaron" format="2">
  <advance width="553"/>
  <unicode hex="011A"/>
  <note>
Ecaron
</note>
  <anchor x="300" y="0" name="bottom"/>
  <anchor x="463" y="0" name="ogonek"/>
  <anchor x="300" y="917" name="top"/>
  <outline>
    <contour>
      <point x="505" y="700" type="line"/>
      <point x="89" y="700" type="line"/>
      <point x="89" y="0" type="line"/>
      <point x="505" y="0" type="line"/>
      <point x="505" y="55" type="line"/>
      <point x="150" y="55" type="line"/>
      <point x="150" y="330" type="line"/>
      <point x="445" y="330" type="line"/>
      <point x="445" y="384" type="line"/>
      <point x="150" y="384" type="line"/>
      <point x="150" y="645" type="line"/>
      <point x="505" y="645" type="line"/>
    </contour>
    <contour>
      <point x="219" y="912" type="line"/>
      <point x="156" y="912" type="line"/>
      <point x="272" y="783" type="line"/>
      <point x="329" y="783" type="line"/>
      <point x="445" y="912" type="line"/>
      <point x="383" y="912" type="line"/>
      <point x="301" y="827" type="line"/>
    </contour>
  </outline>
</glyph>
<glyph name="Gbreve" format="2">
  <advance width="617"/>
  <unicode hex="011E"/>
  <note>
Gbreve
</note>
  <anchor x="347" y="0" name="bottom"/>
  <anchor x="340" y="911" name="top"/>
  <outline>
    <contour>
      <point x="549" y="351" type="line"/>
      <point x="360" y="351" type="line"/>
      <point x="360" y="297" type="line"/>
      <point x="489" y="297" type="line"/>
      <point x="489" y="60" type="line"/>
      <point x="456" y="53"/>
      <point x="376" y="44"/>
      <point x="325" y="44" type="curve" smooth="yes"/>
      <point x="150" y="44"/>
      <point x="124" y="146"/>
      <point x="124" y="345" type="curve" smooth="yes"/>
      <point x="124" y="549"/>
      <point x="145" y="657"/>
      <point x="316" y="657" type="curve" smooth="yes"/>
      <point x="407" y="657"/>
      <point x="546" y="630"/>
      <point x="546" y="630" type="curve"/>
      <point x="549" y="683" type="line"/>
      <point x="549" y="683"/>
      <point x="417" y="712"/>
      <point x="312" y="712" type="curve" smooth="yes"/>
      <point x="102" y="712"/>
      <point x="61" y="578"/>
      <point x="61" y="345" type="curve" smooth="yes"/>
      <point x="61" y="114"/>
      <point x="104" y="-11"/>
      <point x="321" y="-11" type="curve" smooth="yes"/>
      <point x="393" y="-11"/>
      <point x="511" y="6"/>
      <point x="549" y="14" type="curve"/>
    </contour>
    <contour>
      <point x="249" y="911" type="curve"/>
      <point x="198" y="911" type="line"/>
      <point x="202" y="838"/>
      <point x="254" y="778"/>
      <point x="340" y="778" type="curve" smooth="yes"/>
      <point x="426" y="778"/>
      <point x="478" y="838"/>
      <point x="482" y="911" type="curve"/>
      <point x="431" y="911" type="line"/>
      <point x="428" y="862"/>
      <point x="396" y="825"/>
      <point x="340" y="825" type="curve" smooth="yes"/>
      <point x="284" y="825"/>
      <point x="252" y="862"/>
    </contour>
  </outline>
</glyph>
<glyph name="Hcircumflex" format="2">
  <advance width="676"/>
  <unicode hex="0124"/>
  <note>
Hcircumflex
</note>
  <anchor x="338" y="0" name="bottom"/>
  <anchor x="338" y="543" name="center"/>
  <anchor x="338" y="912" name="top"/>
  <outline>
    <contour>
      <point x="150" y="328" type="line"/>
      <point x="526" y="328" type="line"/>
      <point x="526" y="0" type="line"/>
      <point x="588" y="0" type="line"/>
      <point x="588" y="700" type="line"/>
      <point x="526" y="700" type="line"/>
      <point x="526" y="384" type="line"/>
      <point x="150" y="384" type="line"/>
      <point x="150" y="700" type="line"/>
      <point x="89" y="700" type="line"/>
      <point x="89" y="0" type="line"/>
      <point x="150" y="0" type="line"/>
    </contour>
    <contour>
      <point x="310" y="912" type="line"/>
      <point x="194" y="783" type="line"/>
      <point x="257" y="783" type="line"/>
      <point x="339" y="869" type="line"/>
      <point x="421" y="783" type="line"/>
      <point x="483" y="783" type="line"/>
      <point x="367" y="912" type="line"/>
    </contour>
  </outline>
</glyph>
<glyph name="hcircumflex" format="2">
  <advance width="538"/>
  <unicode hex="0125"/>
  <note>
hcircumflex
</note>
  <anchor x="268" y="0" name="bottom"/>
  <anchor x="206" y="614" name="center"/>
  <anchor x="107" y="942" name="top"/>
  <outline>
    <contour>
      <point x="77" y="730" type="line"/>
      <point x="77" y="0" type="line"/>
      <point x="137" y="0" type="line"/>
      <point x="137" y="423" type="line"/>
      <point x="137" y="423"/>
      <point x="214" y="457"/>
      <point x="294" y="457" type="curve" smooth="yes"/>
      <point x="391" y="457"/>
      <point x="407" y="408"/>
      <point x="407" y="261" type="curve" smooth="yes"/>
      <point x="407" y="0" type="line"/>
      <point x="467" y="0" type="line"/>
      <point x="467" y="263" type="line" smooth="yes"/>
      <point x="467" y="447"/>
      <point x="435" y="510"/>
      <point x="304" y="510" type="curve" smooth="yes"/>
      <point x="219" y="510"/>
      <point x="137" y="471"/>
      <point x="137" y="471" type="curve"/>
      <point x="137" y="730" type="line"/>
    </contour>
    <contour>
      <point x="78" y="942" type="line"/>
      <point x="-38" y="813" type="line"/>
      <point x="25" y="813" type="line"/>
      <point x="107" y="899" type="line"/>
      <point x="189" y="813" type="line"/>
      <point x="251" y="813" type="line"/>
      <point x="135" y="942" type="line"/>
    </contour>
  </outline>
</glyph>
<glyph name="Hbar" format="2">
  <advance width="706"/>
  <unicode hex="0126"/>
  <note>
Hbar
</note>
  <anchor x="353" y="0" name="bottom"/>
  <anchor x="353" y="543" name="center"/>
  <anchor x="353" y="700" name="top"/>
  <outline>
    <contour>
      <point x="165" y="328" type="line"/>
      <point x="541" y="328" type="line"/>
      <point x="541" y="0" type="line"/>
      <point x="603" y="0" type="line"/>
      <point x="603" y="516" type="line"/>
      <point x="681" y="516" type="line"/>
      <point x="681" y="570" type="line"/>
      <point x="603" y="570" type="line"/>
      <point x="603" y="700" type="line"/>
      <point x="541" y="700" type="line"/>
      <point x="541" y="570" type="line"/>
      <point x="165" y="570" type="line"/>
      <point x="165" y="700" type="line"/>
      <point x="104" y="700" type="line"/>
      <point x="104" y="570" type="line"/>
      <point x="26" y="570" type="line"/>
      <point x="26" y="516" type="line"/>
      <point x="104" y="516" type="line"/>
      <point x="104" y="0" type="line"/>
      <point x="165" y="0" type="line"/>
    </contour>
    <contour>
      <point x="541" y="384" type="line"/>
      <point x="165" y="384" type="line"/>
      <point x="165" y="516" type="line"/>
      <point x="541" y="516" type="line"/>
    </contour>
  </outline>
</glyph>
<glyph name="Itilde" format="2">
  <advance width="239"/>
  <unicode hex="0128"/>
  <note>
Itilde
</note>
  <anchor x="119" y="0" name="bottom"/>
  <anchor x="119" y="353" name="center"/>
  <anchor x="150" y="0" name="ogonek"/>
  <anchor x="119" y="897" name="top"/>
  <outline>
    <contour>
      <point x="150" y="700" type="line"/>
      <point x="89" y="700" type="line"/>
      <point x="89" y="0" type="line"/>
      <point x="150" y="0" type="line"/>
    </contour>
    <contour>
      <point x="-46" y="839" type="curve"/>
      <point x="-21" y="807" type="line"/>
      <point x="-21" y="807"/>
      <point x="28" y="849"/>
      <point x="51" y="849" type="curve" smooth="yes"/>
      <point x="83" y="849"/>
      <point x="153" y="799"/>
      <point x="193" y="799" type="curve" smooth="yes"/>
      <point x="229" y="799"/>
      <point x="279" y="850"/>
      <point x="285" y="856" type="curve"/>
      <point x="260" y="888" type="line"/>
      <point x="260" y="888"/>
      <point x="213" y="849"/>
      <point x="194" y="849" type="curve" smooth="yes"/>
      <point x="163" y="849"/>
      <point x="91" y="897"/>
      <point x="51" y="897" type="curve" smooth="yes"/>
      <point x="14" y="897"/>
      <point x="-46" y="839"/>
    </contour>
  </outline>
</glyph>
<glyph name="itilde" format="2">
  <advance width="213"/>
  <unicode hex="0129"/>
  <note>
itilde
</note>
  <anchor x="107" y="0" name="bottom"/>
  <anchor x="137" y="0" name="ogonek"/>
  <anchor x="107" y="717" name="top"/>
  <outline>
    <contour>
      <point x="137" y="500" type="line"/>
      <point x="77" y="500" type="line"/>
      <point x="77" y="0" type="line"/>
      <point x="137" y="0" type="line"/>
    </contour>
    <contour>
      <point x="-59" y="659" type="curve"/>
      <point x="-34" y="627" type="line"/>
      <point x="-34" y="627"/>
      <point x="15" y="669"/>
      <point x="38" y="669" type="curve" smooth="yes"/>
      <point x="70" y="669"/>
      <point x="140" y="619"/>
      <point x="180" y="619" type="curve" smooth="yes"/>
      <point x="217" y="619"/>
      <point x="266" y="670"/>
      <point x="272" y="676" type="curve"/>
      <point x="247" y="708" type="line"/>
      <point x="247" y="708"/>
      <point x="201" y="669"/>
      <point x="181" y="669" type="curve" smooth="yes"/>
      <point x="150" y="669"/>
      <point x="79" y="717"/>
      <point x="39" y="717" type="curve" smooth="yes"/>
      <point x="1" y="717"/>
      <point x="-59" y="659"/>
    </contour>
  </outline>
</glyph>
<glyph name="Imacron" format="2">
  <advance width="239"/>
  <unicode hex="012A"/>
  <note>
Imacron
</note>
  <anchor x="119" y="0" name="bottom"/>
  <anchor x="119" y="353" name="center"/>
  <anchor x="150" y="0" name="ogonek"/>
  <anchor x="119" y="859" name="top"/>
  <outline>
    <contour>
      <point x="150" y="700" type="line"/>
      <point x="89" y="700" type="line"/>
      <point x="89" y="0" type="line"/>
      <point x="150" y="0" type="line"/>
    </contour>
    <contour>
      <point x="-17" y="859" type="line"/>
      <point x="-17" y="811" type="line"/>
      <point x="255" y="811" type="line"/>
      <point x="255" y="859" type="line"/>
    </contour>
  </outline>
</glyph>
<glyph name="imacron" format="2">
  <advance width="213"/>
  <unicode hex="012B"/>
  <note>
imacron
</note>
  <anchor x="107" y="0" name="bottom"/>
  <anchor x="137" y="0" name="ogonek"/>
  <anchor x="107" y="679" name="top"/>
  <outline>
    <contour>
      <point x="137" y="500" type="line"/>
      <point x="77" y="500" type="line"/>
      <point x="77" y="0" type="line"/>
      <point x="137" y="0" type="line"/>
    </contour>
    <contour>
      <point x="-30" y="679" type="line"/>
      <point x="-30" y="631" type="line"/>
      <point x="242" y="631" type="line"/>
      <point x="242" y="679" type="line"/>
    </contour>
  </outline>
</glyph>
<glyph name="Ibreve" format="2">
  <advance width="239"/>
  <unicode hex="012C"/>
  <note>
Ibreve
</note>
  <anchor x="119" y="0" name="bottom"/>
  <anchor x="119" y="353" name="center"/>
  <anchor x="150" y="0" name="ogonek"/>
  <anchor x="119" y="911" name="top"/>
  <outline>
    <contour>
      <point x="150" y="700" type="line"/>
      <point x="89" y="700" type="line"/>
      <point x="89" y="0" type="line"/>
      <point x="150" y="0" type="line"/>
    </contour>
    <contour>
      <point x="28" y="911" type="curve"/>
      <point x="-23" y="911" type="line"/>
      <point x="-19" y="838"/>
      <point x="33" y="778"/>
      <point x="119" y="778" type="curve" smooth="yes"/>
      <point x="205" y="778"/>
      <point x="257" y="838"/>
      <point x="261" y="911" type="curve"/>
      <point x="210" y="911" type="line"/>
      <point x="207" y="862"/>
      <point x="175" y="825"/>
      <point x="119" y="825" type="curve" smooth="yes"/>
      <point x="63" y="825"/>
      <point x="31" y="862"/>
    </contour>
  </outline>
</glyph>
<glyph name="ibreve" format="2">
  <advance width="213"/>
  <unicode hex="012D"/>
  <note>
ibreve
</note>
  <anchor x="107" y="0" name="bottom"/>
  <anchor x="137" y="0" name="ogonek"/>
  <anchor x="107" y="731" name="top"/>
  <outline>
    <contour>
      <point x="137" y="500" type="line"/>
      <point x="77" y="500" type="line"/>
      <point x="77" y="0" type="line"/>
      <point x="137" y="0" type="line"/>
    </contour>
    <contour>
      <point x="16" y="731" type="curve"/>
      <point x="-35" y="731" type="line"/>
      <point x="-31" y="658"/>
      <point x="21" y="598"/>
      <point x="107" y="598" type="curve" smooth="yes"/>
      <point x="193" y="598"/>
      <point x="245" y="658"/>
      <point x="249" y="731" type="curve"/>
      <point x="198" y="731" type="line"/>
      <point x="195" y="682"/>
      <point x="163" y="645"/>
      <point x="107" y="645" type="curve" smooth="yes"/>
      <point x="51" y="645"/>
      <point x="19" y="682"/>
    </contour>
  </outline>
</glyph>
<glyph name="Iogonek" format="2">
  <advance width="239"/>
  <unicode hex="012E"/>
  <note>
Iogonek
</note>
  <anchor x="119" y="0" name="bottom"/>
  <anchor x="119" y="353" name="center"/>
  <anchor x="150" y="0" name="ogonek"/>
  <anchor x="119" y="700" name="top"/>
  <outline>
    <contour>
      <point x="150" y="700" type="line"/>
      <point x="89" y="700" type="line"/>
      <point x="89" y="0" type="line"/>
      <point x="93" y="0" type="line"/>
      <point x="72" y="-19"/>
      <point x="16" y="-75"/>
      <point x="16" y="-119" type="curve" smooth="yes"/>
      <point x="16" y="-171"/>
      <point x="54" y="-204"/>
      <point x="103" y="-204" type="curve" smooth="yes"/>
      <point x="135" y="-204"/>
      <point x="176" y="-195"/>
      <point x="176" y="-195" type="curve"/>
      <point x="171" y="-147" type="line"/>
      <point x="171" y="-147"/>
      <point x="134" y="-153"/>
      <point x="118" y="-153" type="curve" smooth="yes"/>
      <point x="93" y="-153"/>
      <point x="75" y="-133"/>
      <point x="75" y="-107" type="curve" smooth="yes"/>
      <point x="75" y="-75"/>
      <point x="150" y="0"/>
      <point x="150" y="0" type="curve"/>
    </contour>
  </outline>
</glyph>
<glyph name="iogonek" format="2">
  <advance width="213"/>
  <unicode hex="012F"/>
  <note>
iogonek
</note>
  <anchor x="107" y="0" name="bottom"/>
  <anchor x="137" y="0" name="ogonek"/>
  <anchor x="107" y="700" name="top"/>
  <outline>
    <contour>
      <point x="137" y="500" type="line"/>
      <point x="77" y="500" type="line"/>
      <point x="77" y="0" type="line"/>
      <point x="80" y="0" type="line"/>
      <point x="59" y="-19"/>
      <point x="3" y="-75"/>
      <point x="3" y="-119" type="curve" smooth="yes"/>
      <point x="3" y="-171"/>
      <point x="41" y="-204"/>
      <point x="90" y="-204" type="curve" smooth="yes"/>
      <point x="122" y="-204"/>
      <point x="163" y="-195"/>
      <point x="163" y="-195" type="curve"/>
      <point x="158" y="-147" type="line"/>
      <point x="158" y="-147"/>
      <point x="121" y="-153"/>
      <point x="105" y="-153" type="curve" smooth="yes"/>
      <point x="80" y="-153"/>
      <point x="62" y="-133"/>
      <point x="62" y="-107" type="curve" smooth="yes"/>
      <point x="62" y="-75"/>
      <point x="137" y="0"/>
      <point x="137" y="0" type="curve"/>
    </contour>
    <contour>
      <point x="76" y="700" type="line"/>
      <point x="76" y="612" type="line"/>
      <point x="137" y="612" type="line"/>
      <point x="137" y="700" type="line"/>
    </contour>
  </outline>
</glyph>
<glyph name="Idotaccent" format="2">
  <advance width="239"/>
  <unicode hex="0130"/>
  <note>
Idotaccent
</note>
  <anchor x="119" y="0" name="bottom"/>
  <anchor x="119" y="353" name="center"/>
  <anchor x="150" y="0" name="ogonek"/>
  <anchor x="119" y="893" name="top"/>
  <outline>
    <contour>
      <point x="150" y="700" type="line"/>
      <point x="89" y="700" type="line"/>
      <point x="89" y="0" type="line"/>
      <point x="150" y="0" type="line"/>
    </contour>
    <contour>
      <point x="88" y="893" type="line"/>
      <point x="88" y="811" type="line"/>
      <point x="150" y="811" type="line"/>
      <point x="150" y="893" type="line"/>
    </contour>
  </outline>
</glyph>
<glyph name="dotlessi" format="2">
  <advance width="213"/>
  <unicode hex="0131"/>
  <note>
dotlessi
</note>
  <anchor x="107" y="0" name="bottom"/>
  <anchor x="137" y="0" name="ogonek"/>
  <anchor x="107" y="500" name="top"/>
  <outline>
    <contour>
      <point x="137" y="500" type="line"/>
      <point x="77" y="500" type="line"/>
      <point x="77" y="0" type="line"/>
      <point x="137" y="0" type="line"/>
    </contour>
  </outline>
</glyph>
<glyph name="IJ" format="2">
  <advance width="527"/>
  <unicode hex="0132"/>
  <note>
IJ
</note>
  <anchor x="384" y="0" name="bottom"/>
  <anchor x="119" y="353" name="center"/>
  <anchor x="150" y="0" name="ogonek"/>
  <anchor x="411" y="700" name="top"/>
  <outline>
    <contour>
      <point x="150" y="700" type="line"/>
      <point x="89" y="700" type="line"/>
      <point x="89" y="0" type="line"/>
      <point x="150" y="0" type="line"/>
    </contour>
    <contour>
      <point x="258" y="46" type="curve"/>
      <point x="258" y="-10" type="line"/>
      <point x="394" y="-10"/>
      <point x="442" y="9"/>
      <point x="442" y="139" type="curve" smooth="yes"/>
      <point x="442" y="700" type="line"/>
      <point x="381" y="700" type="line"/>
      <point x="381" y="144" type="line" smooth="yes"/>
      <point x="381" y="58"/>
      <point x="363" y="46"/>
    </contour>
  </outline>
</glyph>
